G04 #@! TF.FileFunction,Soldermask,Bot*
%FSLAX46Y46*%
G04 Gerber Fmt 4.6, Leading zero omitted, Abs format (unit mm)*
G04 Created by KiCad (PCBNEW 4.0.7) date 07/15/18 11:06:10*
%MOMM*%
%LPD*%
G01*
G04 APERTURE LIST*
%ADD10C,0.100000*%
%ADD11C,0.010000*%
%ADD12R,0.800000X3.400000*%
%ADD13R,1.400000X3.900000*%
%ADD14R,2.000000X3.800000*%
%ADD15C,3.600000*%
%ADD16R,1.050000X1.460000*%
%ADD17R,1.500000X0.800000*%
%ADD18R,1.150000X1.200000*%
%ADD19R,1.200000X1.150000*%
%ADD20R,0.900000X1.300000*%
%ADD21R,1.300000X0.900000*%
G04 APERTURE END LIST*
D10*
D11*
G36*
X5765302Y-25361604D02*
X5762310Y-25362307D01*
X5703009Y-25382945D01*
X5648965Y-25414274D01*
X5601581Y-25454885D01*
X5562257Y-25503367D01*
X5532394Y-25558312D01*
X5515011Y-25611072D01*
X5505910Y-25675418D01*
X5509252Y-25737653D01*
X5524872Y-25797216D01*
X5552609Y-25853548D01*
X5592299Y-25906089D01*
X5604604Y-25919108D01*
X5648702Y-25957916D01*
X5695014Y-25986121D01*
X5747219Y-26005735D01*
X5775882Y-26012780D01*
X5816538Y-26019647D01*
X5851909Y-26021034D01*
X5888167Y-26016940D01*
X5908675Y-26012812D01*
X5971424Y-25992648D01*
X6027576Y-25961977D01*
X6076234Y-25921642D01*
X6116498Y-25872487D01*
X6147471Y-25815354D01*
X6161975Y-25775084D01*
X6171127Y-25725719D01*
X6171916Y-25671280D01*
X6164781Y-25615850D01*
X6150164Y-25563508D01*
X6135588Y-25530650D01*
X6118871Y-25505130D01*
X6095046Y-25476278D01*
X6067154Y-25447145D01*
X6038235Y-25420786D01*
X6011331Y-25400253D01*
X5997575Y-25392078D01*
X5942077Y-25370126D01*
X5882455Y-25357425D01*
X5822325Y-25354432D01*
X5765302Y-25361604D01*
X5765302Y-25361604D01*
G37*
X5765302Y-25361604D02*
X5762310Y-25362307D01*
X5703009Y-25382945D01*
X5648965Y-25414274D01*
X5601581Y-25454885D01*
X5562257Y-25503367D01*
X5532394Y-25558312D01*
X5515011Y-25611072D01*
X5505910Y-25675418D01*
X5509252Y-25737653D01*
X5524872Y-25797216D01*
X5552609Y-25853548D01*
X5592299Y-25906089D01*
X5604604Y-25919108D01*
X5648702Y-25957916D01*
X5695014Y-25986121D01*
X5747219Y-26005735D01*
X5775882Y-26012780D01*
X5816538Y-26019647D01*
X5851909Y-26021034D01*
X5888167Y-26016940D01*
X5908675Y-26012812D01*
X5971424Y-25992648D01*
X6027576Y-25961977D01*
X6076234Y-25921642D01*
X6116498Y-25872487D01*
X6147471Y-25815354D01*
X6161975Y-25775084D01*
X6171127Y-25725719D01*
X6171916Y-25671280D01*
X6164781Y-25615850D01*
X6150164Y-25563508D01*
X6135588Y-25530650D01*
X6118871Y-25505130D01*
X6095046Y-25476278D01*
X6067154Y-25447145D01*
X6038235Y-25420786D01*
X6011331Y-25400253D01*
X5997575Y-25392078D01*
X5942077Y-25370126D01*
X5882455Y-25357425D01*
X5822325Y-25354432D01*
X5765302Y-25361604D01*
G36*
X3792654Y-22991792D02*
X3769344Y-22995046D01*
X3744679Y-23002642D01*
X3738579Y-23005340D01*
X3727442Y-23013034D01*
X3708355Y-23029186D01*
X3681198Y-23053909D01*
X3645852Y-23087318D01*
X3602197Y-23129527D01*
X3550113Y-23180649D01*
X3489480Y-23240800D01*
X3448079Y-23282139D01*
X3184582Y-23545801D01*
X3460535Y-23821809D01*
X3517479Y-23878721D01*
X3566169Y-23927260D01*
X3607299Y-23968069D01*
X3641558Y-24001791D01*
X3669640Y-24029069D01*
X3692236Y-24050546D01*
X3710036Y-24066864D01*
X3723734Y-24078666D01*
X3734020Y-24086596D01*
X3741586Y-24091297D01*
X3747124Y-24093410D01*
X3751326Y-24093580D01*
X3752607Y-24093299D01*
X3786985Y-24088786D01*
X3825140Y-24091934D01*
X3861251Y-24102088D01*
X3871271Y-24106632D01*
X3907297Y-24131493D01*
X3934724Y-24163957D01*
X3952821Y-24201827D01*
X3960861Y-24242902D01*
X3958112Y-24284986D01*
X3943967Y-24325642D01*
X3925510Y-24352399D01*
X3899753Y-24377712D01*
X3870860Y-24398056D01*
X3845097Y-24409352D01*
X3800543Y-24415977D01*
X3758184Y-24411374D01*
X3719634Y-24396719D01*
X3686509Y-24373188D01*
X3660424Y-24341955D01*
X3642994Y-24304196D01*
X3635834Y-24261087D01*
X3635749Y-24257000D01*
X3636260Y-24233397D01*
X3637965Y-24213458D01*
X3640087Y-24202946D01*
X3639931Y-24199130D01*
X3636936Y-24193007D01*
X3630495Y-24183930D01*
X3619999Y-24171254D01*
X3604841Y-24154330D01*
X3584414Y-24132513D01*
X3558111Y-24105157D01*
X3525323Y-24071614D01*
X3485443Y-24031238D01*
X3437863Y-23983383D01*
X3381977Y-23927401D01*
X3368663Y-23914087D01*
X3092527Y-23638006D01*
X3019025Y-23710965D01*
X2983746Y-23746701D01*
X2956982Y-23775820D01*
X2937642Y-23800007D01*
X2924631Y-23820948D01*
X2916857Y-23840329D01*
X2913228Y-23859837D01*
X2912567Y-23875188D01*
X2915153Y-23904401D01*
X2921994Y-23929282D01*
X2923760Y-23933150D01*
X2930088Y-23941324D01*
X2944665Y-23957601D01*
X2966688Y-23981175D01*
X2995355Y-24011242D01*
X3029863Y-24046994D01*
X3069408Y-24087628D01*
X3113187Y-24132338D01*
X3160399Y-24180318D01*
X3210239Y-24230764D01*
X3261905Y-24282870D01*
X3314594Y-24335830D01*
X3367504Y-24388840D01*
X3419830Y-24441093D01*
X3470771Y-24491786D01*
X3519523Y-24540111D01*
X3565284Y-24585265D01*
X3607250Y-24626442D01*
X3644618Y-24662836D01*
X3676587Y-24693642D01*
X3702352Y-24718055D01*
X3721111Y-24735269D01*
X3732061Y-24744480D01*
X3733800Y-24745614D01*
X3765588Y-24757198D01*
X3799639Y-24761703D01*
X3826776Y-24759079D01*
X3845994Y-24752197D01*
X3866217Y-24741950D01*
X3868051Y-24740828D01*
X3876383Y-24733952D01*
X3892786Y-24718909D01*
X3916387Y-24696546D01*
X3946314Y-24667714D01*
X3981695Y-24633261D01*
X4021655Y-24594037D01*
X4065323Y-24550889D01*
X4111827Y-24504667D01*
X4149706Y-24466825D01*
X4410037Y-24206180D01*
X3857625Y-23654434D01*
X3827594Y-23661482D01*
X3786948Y-23664772D01*
X3746673Y-23656467D01*
X3708884Y-23637549D01*
X3675697Y-23609003D01*
X3654562Y-23581003D01*
X3644373Y-23562973D01*
X3638593Y-23546971D01*
X3636038Y-23528073D01*
X3635523Y-23501847D01*
X3638742Y-23461282D01*
X3649136Y-23428351D01*
X3668225Y-23399318D01*
X3684032Y-23382646D01*
X3719757Y-23356465D01*
X3759083Y-23341338D01*
X3800018Y-23336917D01*
X3840572Y-23342855D01*
X3878752Y-23358802D01*
X3912569Y-23384410D01*
X3940031Y-23419331D01*
X3945072Y-23428325D01*
X3953646Y-23453216D01*
X3958426Y-23484787D01*
X3958957Y-23517463D01*
X3954784Y-23545669D01*
X3954679Y-23546043D01*
X3954311Y-23549937D01*
X3955656Y-23554917D01*
X3959355Y-23561676D01*
X3966053Y-23570906D01*
X3976392Y-23583299D01*
X3991016Y-23599546D01*
X4010567Y-23620339D01*
X4035689Y-23646370D01*
X4067024Y-23678331D01*
X4105215Y-23716914D01*
X4150906Y-23762810D01*
X4204739Y-23816712D01*
X4226106Y-23838080D01*
X4502079Y-24113998D01*
X4578477Y-24037861D01*
X4607020Y-24008545D01*
X4632099Y-23981119D01*
X4652011Y-23957545D01*
X4665054Y-23939791D01*
X4668146Y-23934394D01*
X4679524Y-23897154D01*
X4679924Y-23857683D01*
X4669345Y-23820137D01*
X4668153Y-23817605D01*
X4662067Y-23808757D01*
X4649175Y-23793446D01*
X4629222Y-23771409D01*
X4601957Y-23742385D01*
X4567124Y-23706112D01*
X4524471Y-23662328D01*
X4473744Y-23610772D01*
X4414689Y-23551182D01*
X4347053Y-23483296D01*
X4270582Y-23406851D01*
X4262608Y-23398894D01*
X4192787Y-23329230D01*
X4131350Y-23267980D01*
X4077674Y-23214603D01*
X4031136Y-23168560D01*
X3991113Y-23129312D01*
X3956982Y-23096317D01*
X3928119Y-23069038D01*
X3903902Y-23046933D01*
X3883708Y-23029463D01*
X3866913Y-23016089D01*
X3852895Y-23006270D01*
X3841029Y-22999467D01*
X3830694Y-22995140D01*
X3821267Y-22992750D01*
X3812123Y-22991756D01*
X3802640Y-22991619D01*
X3792654Y-22991792D01*
X3792654Y-22991792D01*
G37*
X3792654Y-22991792D02*
X3769344Y-22995046D01*
X3744679Y-23002642D01*
X3738579Y-23005340D01*
X3727442Y-23013034D01*
X3708355Y-23029186D01*
X3681198Y-23053909D01*
X3645852Y-23087318D01*
X3602197Y-23129527D01*
X3550113Y-23180649D01*
X3489480Y-23240800D01*
X3448079Y-23282139D01*
X3184582Y-23545801D01*
X3460535Y-23821809D01*
X3517479Y-23878721D01*
X3566169Y-23927260D01*
X3607299Y-23968069D01*
X3641558Y-24001791D01*
X3669640Y-24029069D01*
X3692236Y-24050546D01*
X3710036Y-24066864D01*
X3723734Y-24078666D01*
X3734020Y-24086596D01*
X3741586Y-24091297D01*
X3747124Y-24093410D01*
X3751326Y-24093580D01*
X3752607Y-24093299D01*
X3786985Y-24088786D01*
X3825140Y-24091934D01*
X3861251Y-24102088D01*
X3871271Y-24106632D01*
X3907297Y-24131493D01*
X3934724Y-24163957D01*
X3952821Y-24201827D01*
X3960861Y-24242902D01*
X3958112Y-24284986D01*
X3943967Y-24325642D01*
X3925510Y-24352399D01*
X3899753Y-24377712D01*
X3870860Y-24398056D01*
X3845097Y-24409352D01*
X3800543Y-24415977D01*
X3758184Y-24411374D01*
X3719634Y-24396719D01*
X3686509Y-24373188D01*
X3660424Y-24341955D01*
X3642994Y-24304196D01*
X3635834Y-24261087D01*
X3635749Y-24257000D01*
X3636260Y-24233397D01*
X3637965Y-24213458D01*
X3640087Y-24202946D01*
X3639931Y-24199130D01*
X3636936Y-24193007D01*
X3630495Y-24183930D01*
X3619999Y-24171254D01*
X3604841Y-24154330D01*
X3584414Y-24132513D01*
X3558111Y-24105157D01*
X3525323Y-24071614D01*
X3485443Y-24031238D01*
X3437863Y-23983383D01*
X3381977Y-23927401D01*
X3368663Y-23914087D01*
X3092527Y-23638006D01*
X3019025Y-23710965D01*
X2983746Y-23746701D01*
X2956982Y-23775820D01*
X2937642Y-23800007D01*
X2924631Y-23820948D01*
X2916857Y-23840329D01*
X2913228Y-23859837D01*
X2912567Y-23875188D01*
X2915153Y-23904401D01*
X2921994Y-23929282D01*
X2923760Y-23933150D01*
X2930088Y-23941324D01*
X2944665Y-23957601D01*
X2966688Y-23981175D01*
X2995355Y-24011242D01*
X3029863Y-24046994D01*
X3069408Y-24087628D01*
X3113187Y-24132338D01*
X3160399Y-24180318D01*
X3210239Y-24230764D01*
X3261905Y-24282870D01*
X3314594Y-24335830D01*
X3367504Y-24388840D01*
X3419830Y-24441093D01*
X3470771Y-24491786D01*
X3519523Y-24540111D01*
X3565284Y-24585265D01*
X3607250Y-24626442D01*
X3644618Y-24662836D01*
X3676587Y-24693642D01*
X3702352Y-24718055D01*
X3721111Y-24735269D01*
X3732061Y-24744480D01*
X3733800Y-24745614D01*
X3765588Y-24757198D01*
X3799639Y-24761703D01*
X3826776Y-24759079D01*
X3845994Y-24752197D01*
X3866217Y-24741950D01*
X3868051Y-24740828D01*
X3876383Y-24733952D01*
X3892786Y-24718909D01*
X3916387Y-24696546D01*
X3946314Y-24667714D01*
X3981695Y-24633261D01*
X4021655Y-24594037D01*
X4065323Y-24550889D01*
X4111827Y-24504667D01*
X4149706Y-24466825D01*
X4410037Y-24206180D01*
X3857625Y-23654434D01*
X3827594Y-23661482D01*
X3786948Y-23664772D01*
X3746673Y-23656467D01*
X3708884Y-23637549D01*
X3675697Y-23609003D01*
X3654562Y-23581003D01*
X3644373Y-23562973D01*
X3638593Y-23546971D01*
X3636038Y-23528073D01*
X3635523Y-23501847D01*
X3638742Y-23461282D01*
X3649136Y-23428351D01*
X3668225Y-23399318D01*
X3684032Y-23382646D01*
X3719757Y-23356465D01*
X3759083Y-23341338D01*
X3800018Y-23336917D01*
X3840572Y-23342855D01*
X3878752Y-23358802D01*
X3912569Y-23384410D01*
X3940031Y-23419331D01*
X3945072Y-23428325D01*
X3953646Y-23453216D01*
X3958426Y-23484787D01*
X3958957Y-23517463D01*
X3954784Y-23545669D01*
X3954679Y-23546043D01*
X3954311Y-23549937D01*
X3955656Y-23554917D01*
X3959355Y-23561676D01*
X3966053Y-23570906D01*
X3976392Y-23583299D01*
X3991016Y-23599546D01*
X4010567Y-23620339D01*
X4035689Y-23646370D01*
X4067024Y-23678331D01*
X4105215Y-23716914D01*
X4150906Y-23762810D01*
X4204739Y-23816712D01*
X4226106Y-23838080D01*
X4502079Y-24113998D01*
X4578477Y-24037861D01*
X4607020Y-24008545D01*
X4632099Y-23981119D01*
X4652011Y-23957545D01*
X4665054Y-23939791D01*
X4668146Y-23934394D01*
X4679524Y-23897154D01*
X4679924Y-23857683D01*
X4669345Y-23820137D01*
X4668153Y-23817605D01*
X4662067Y-23808757D01*
X4649175Y-23793446D01*
X4629222Y-23771409D01*
X4601957Y-23742385D01*
X4567124Y-23706112D01*
X4524471Y-23662328D01*
X4473744Y-23610772D01*
X4414689Y-23551182D01*
X4347053Y-23483296D01*
X4270582Y-23406851D01*
X4262608Y-23398894D01*
X4192787Y-23329230D01*
X4131350Y-23267980D01*
X4077674Y-23214603D01*
X4031136Y-23168560D01*
X3991113Y-23129312D01*
X3956982Y-23096317D01*
X3928119Y-23069038D01*
X3903902Y-23046933D01*
X3883708Y-23029463D01*
X3866913Y-23016089D01*
X3852895Y-23006270D01*
X3841029Y-22999467D01*
X3830694Y-22995140D01*
X3821267Y-22992750D01*
X3812123Y-22991756D01*
X3802640Y-22991619D01*
X3792654Y-22991792D01*
G36*
X1274338Y-24146754D02*
X1216884Y-24160276D01*
X1162608Y-24185284D01*
X1112889Y-24221541D01*
X1094199Y-24239541D01*
X1055246Y-24287427D01*
X1028290Y-24338085D01*
X1012680Y-24393133D01*
X1007767Y-24454187D01*
X1007768Y-24454456D01*
X1014119Y-24513261D01*
X1031887Y-24569593D01*
X1059860Y-24621695D01*
X1096827Y-24667810D01*
X1141577Y-24706181D01*
X1192898Y-24735050D01*
X1204442Y-24739758D01*
X1239788Y-24749438D01*
X1282162Y-24755264D01*
X1326624Y-24756998D01*
X1368234Y-24754404D01*
X1396336Y-24748998D01*
X1454200Y-24726378D01*
X1505593Y-24693278D01*
X1549408Y-24650728D01*
X1584540Y-24599761D01*
X1605439Y-24554185D01*
X1620214Y-24496804D01*
X1623151Y-24438772D01*
X1614906Y-24381702D01*
X1596139Y-24327209D01*
X1567505Y-24276907D01*
X1529663Y-24232409D01*
X1483270Y-24195331D01*
X1451985Y-24177505D01*
X1393267Y-24155130D01*
X1333592Y-24144960D01*
X1274338Y-24146754D01*
X1274338Y-24146754D01*
G37*
X1274338Y-24146754D02*
X1216884Y-24160276D01*
X1162608Y-24185284D01*
X1112889Y-24221541D01*
X1094199Y-24239541D01*
X1055246Y-24287427D01*
X1028290Y-24338085D01*
X1012680Y-24393133D01*
X1007767Y-24454187D01*
X1007768Y-24454456D01*
X1014119Y-24513261D01*
X1031887Y-24569593D01*
X1059860Y-24621695D01*
X1096827Y-24667810D01*
X1141577Y-24706181D01*
X1192898Y-24735050D01*
X1204442Y-24739758D01*
X1239788Y-24749438D01*
X1282162Y-24755264D01*
X1326624Y-24756998D01*
X1368234Y-24754404D01*
X1396336Y-24748998D01*
X1454200Y-24726378D01*
X1505593Y-24693278D01*
X1549408Y-24650728D01*
X1584540Y-24599761D01*
X1605439Y-24554185D01*
X1620214Y-24496804D01*
X1623151Y-24438772D01*
X1614906Y-24381702D01*
X1596139Y-24327209D01*
X1567505Y-24276907D01*
X1529663Y-24232409D01*
X1483270Y-24195331D01*
X1451985Y-24177505D01*
X1393267Y-24155130D01*
X1333592Y-24144960D01*
X1274338Y-24146754D01*
G36*
X3771915Y-24192538D02*
X3749660Y-24206768D01*
X3734377Y-24226936D01*
X3730732Y-24237463D01*
X3731110Y-24261883D01*
X3740654Y-24286263D01*
X3756999Y-24305517D01*
X3764735Y-24310553D01*
X3790982Y-24319487D01*
X3815437Y-24316857D01*
X3832983Y-24308374D01*
X3852641Y-24290221D01*
X3862414Y-24267879D01*
X3863094Y-24244036D01*
X3855473Y-24221380D01*
X3840342Y-24202602D01*
X3818492Y-24190388D01*
X3797300Y-24187150D01*
X3771915Y-24192538D01*
X3771915Y-24192538D01*
G37*
X3771915Y-24192538D02*
X3749660Y-24206768D01*
X3734377Y-24226936D01*
X3730732Y-24237463D01*
X3731110Y-24261883D01*
X3740654Y-24286263D01*
X3756999Y-24305517D01*
X3764735Y-24310553D01*
X3790982Y-24319487D01*
X3815437Y-24316857D01*
X3832983Y-24308374D01*
X3852641Y-24290221D01*
X3862414Y-24267879D01*
X3863094Y-24244036D01*
X3855473Y-24221380D01*
X3840342Y-24202602D01*
X3818492Y-24190388D01*
X3797300Y-24187150D01*
X3771915Y-24192538D01*
G36*
X3781670Y-23434479D02*
X3768154Y-23440018D01*
X3747792Y-23455898D01*
X3734128Y-23478683D01*
X3729423Y-23503934D01*
X3730574Y-23513815D01*
X3741642Y-23536958D01*
X3761501Y-23555023D01*
X3786552Y-23565730D01*
X3813199Y-23566793D01*
X3813888Y-23566670D01*
X3826781Y-23560616D01*
X3841962Y-23548700D01*
X3845494Y-23545206D01*
X3860388Y-23521737D01*
X3864324Y-23496347D01*
X3858088Y-23471941D01*
X3842469Y-23451424D01*
X3818254Y-23437703D01*
X3816156Y-23437041D01*
X3796943Y-23432775D01*
X3781670Y-23434479D01*
X3781670Y-23434479D01*
G37*
X3781670Y-23434479D02*
X3768154Y-23440018D01*
X3747792Y-23455898D01*
X3734128Y-23478683D01*
X3729423Y-23503934D01*
X3730574Y-23513815D01*
X3741642Y-23536958D01*
X3761501Y-23555023D01*
X3786552Y-23565730D01*
X3813199Y-23566793D01*
X3813888Y-23566670D01*
X3826781Y-23560616D01*
X3841962Y-23548700D01*
X3845494Y-23545206D01*
X3860388Y-23521737D01*
X3864324Y-23496347D01*
X3858088Y-23471941D01*
X3842469Y-23451424D01*
X3818254Y-23437703D01*
X3816156Y-23437041D01*
X3796943Y-23432775D01*
X3781670Y-23434479D01*
G36*
X4502601Y-20988235D02*
X4445899Y-20999262D01*
X4392613Y-21020461D01*
X4344172Y-21050998D01*
X4302003Y-21090040D01*
X4267534Y-21136755D01*
X4242193Y-21190308D01*
X4231612Y-21226940D01*
X4224472Y-21286555D01*
X4228974Y-21345270D01*
X4244257Y-21401519D01*
X4269460Y-21453731D01*
X4303722Y-21500341D01*
X4346183Y-21539781D01*
X4395981Y-21570482D01*
X4427366Y-21583487D01*
X4469891Y-21594222D01*
X4517195Y-21599624D01*
X4564001Y-21599405D01*
X4605027Y-21593274D01*
X4605194Y-21593232D01*
X4656395Y-21575613D01*
X4702011Y-21549412D01*
X4745315Y-21512704D01*
X4749877Y-21508145D01*
X4787526Y-21464235D01*
X4814026Y-21419045D01*
X4830447Y-21369939D01*
X4837862Y-21314277D01*
X4838545Y-21289762D01*
X4833775Y-21232307D01*
X4818577Y-21180022D01*
X4792196Y-21131061D01*
X4754052Y-21083767D01*
X4712695Y-21046011D01*
X4668141Y-21018505D01*
X4620544Y-21000025D01*
X4561292Y-20988211D01*
X4502601Y-20988235D01*
X4502601Y-20988235D01*
G37*
X4502601Y-20988235D02*
X4445899Y-20999262D01*
X4392613Y-21020461D01*
X4344172Y-21050998D01*
X4302003Y-21090040D01*
X4267534Y-21136755D01*
X4242193Y-21190308D01*
X4231612Y-21226940D01*
X4224472Y-21286555D01*
X4228974Y-21345270D01*
X4244257Y-21401519D01*
X4269460Y-21453731D01*
X4303722Y-21500341D01*
X4346183Y-21539781D01*
X4395981Y-21570482D01*
X4427366Y-21583487D01*
X4469891Y-21594222D01*
X4517195Y-21599624D01*
X4564001Y-21599405D01*
X4605027Y-21593274D01*
X4605194Y-21593232D01*
X4656395Y-21575613D01*
X4702011Y-21549412D01*
X4745315Y-21512704D01*
X4749877Y-21508145D01*
X4787526Y-21464235D01*
X4814026Y-21419045D01*
X4830447Y-21369939D01*
X4837862Y-21314277D01*
X4838545Y-21289762D01*
X4833775Y-21232307D01*
X4818577Y-21180022D01*
X4792196Y-21131061D01*
X4754052Y-21083767D01*
X4712695Y-21046011D01*
X4668141Y-21018505D01*
X4620544Y-21000025D01*
X4561292Y-20988211D01*
X4502601Y-20988235D01*
D12*
X24247000Y-7747000D03*
X23547000Y-7747000D03*
X22847000Y-7747000D03*
X22147000Y-7747000D03*
X21447000Y-7747000D03*
X20047000Y-7747000D03*
X19347000Y-7747000D03*
X18647000Y-7747000D03*
X17947000Y-7747000D03*
X17247000Y-7747000D03*
X16547000Y-7747000D03*
X15847000Y-7747000D03*
X15147000Y-7747000D03*
X14447000Y-7747000D03*
X13747000Y-7747000D03*
X13047000Y-7747000D03*
X12347000Y-7747000D03*
X11647000Y-7747000D03*
X10947000Y-7747000D03*
X10247000Y-7747000D03*
X9547000Y-7747000D03*
X8847000Y-7747000D03*
X8147000Y-7747000D03*
X7447000Y-7747000D03*
X6747000Y-7747000D03*
X6047000Y-7747000D03*
X5347000Y-7747000D03*
X4647000Y-7747000D03*
X3947000Y-7747000D03*
X20747000Y-7747000D03*
D13*
X16970000Y-19577000D03*
X14970000Y-19577000D03*
X12970000Y-19577000D03*
X10970000Y-19577000D03*
D14*
X19370000Y-25127000D03*
X8570000Y-25127000D03*
D15*
X2159000Y1016000D03*
D16*
X5014000Y-18626000D03*
X4064000Y-18626000D03*
X3114000Y-18626000D03*
X3114000Y-16426000D03*
X5014000Y-16426000D03*
D17*
X9280000Y-12659000D03*
X9280000Y-12009000D03*
X9280000Y-11359000D03*
X9280000Y-10709000D03*
X13580000Y-10709000D03*
X13580000Y-11359000D03*
X13580000Y-12009000D03*
X13580000Y-12659000D03*
D18*
X17018000Y-12712000D03*
X17018000Y-14212000D03*
X3302000Y-12839000D03*
X3302000Y-14339000D03*
X5588000Y-12839000D03*
X5588000Y-14339000D03*
X23749000Y-20181000D03*
X23749000Y-18681000D03*
X22098000Y-14212000D03*
X22098000Y-12712000D03*
X23749000Y-14212000D03*
X23749000Y-12712000D03*
X25400000Y-14212000D03*
X25400000Y-12712000D03*
D19*
X24880000Y-10922000D03*
X23380000Y-10922000D03*
X21832000Y-10922000D03*
X20332000Y-10922000D03*
X6108000Y-10922000D03*
X7608000Y-10922000D03*
D20*
X13831000Y-14605000D03*
X12331000Y-14605000D03*
D21*
X18669000Y-14212000D03*
X18669000Y-12712000D03*
X15367000Y-14212000D03*
X15367000Y-12712000D03*
X23749000Y-17260000D03*
X23749000Y-15760000D03*
D20*
X9537000Y-14605000D03*
X11037000Y-14605000D03*
D21*
X21971000Y-15760000D03*
X21971000Y-17260000D03*
X20447000Y-14212000D03*
X20447000Y-12712000D03*
D20*
X4687000Y-10922000D03*
X3187000Y-10922000D03*
D15*
X25908000Y1016000D03*
M02*
