G04 #@! TF.FileFunction,Copper,L1,Top,Signal*
%FSLAX46Y46*%
G04 Gerber Fmt 4.6, Leading zero omitted, Abs format (unit mm)*
G04 Created by KiCad (PCBNEW 4.0.7) date 07/15/18 11:06:09*
%MOMM*%
%LPD*%
G01*
G04 APERTURE LIST*
%ADD10C,0.100000*%
%ADD11C,0.685800*%
%ADD12C,0.152400*%
%ADD13C,0.400000*%
G04 APERTURE END LIST*
D10*
D11*
X4191000Y-5080000D03*
X7493000Y-5080000D03*
X9525000Y-16002000D03*
X19939000Y-15748000D03*
X18669000Y-5080000D03*
X5969000Y-4572000D03*
X7239000Y-12319000D03*
X16129000Y-11811000D03*
X18288000Y-15494000D03*
X11303000Y-5080000D03*
X17653000Y-10414000D03*
X17780000Y-11430000D03*
X9652000Y-17399000D03*
D12*
X4191000Y-4953000D02*
X4191000Y-5080000D01*
X5334000Y-3810000D02*
X4191000Y-4953000D01*
X6223000Y-3810000D02*
X5334000Y-3810000D01*
X6350000Y-3937000D02*
X6223000Y-3810000D01*
X7493000Y-5080000D02*
X6350000Y-3937000D01*
D13*
X19939000Y-16764000D02*
X19939000Y-15748000D01*
X18288000Y-18415000D02*
X19939000Y-16764000D01*
X9271000Y-18415000D02*
X18288000Y-18415000D01*
X8509000Y-17653000D02*
X9271000Y-18415000D01*
X8509000Y-17018000D02*
X8509000Y-17653000D01*
X9525000Y-16002000D02*
X8509000Y-17018000D01*
X19939000Y-15748000D02*
X18669000Y-14478000D01*
X18669000Y-14478000D02*
X18669000Y-5080000D01*
D12*
X6096000Y-4699000D02*
X5969000Y-4572000D01*
X6096000Y-11557000D02*
X6096000Y-4699000D01*
X6858000Y-12319000D02*
X6096000Y-11557000D01*
X7239000Y-12319000D02*
X6858000Y-12319000D01*
X16256000Y-11938000D02*
X16129000Y-11811000D01*
X16256000Y-13462000D02*
X16256000Y-11938000D01*
X18288000Y-15494000D02*
X16256000Y-13462000D01*
X12700000Y-5080000D02*
X11303000Y-5080000D01*
X14224000Y-6604000D02*
X12700000Y-5080000D01*
X14224000Y-6985000D02*
X14224000Y-6604000D01*
X17653000Y-10414000D02*
X14224000Y-6985000D01*
X17780000Y-11430000D02*
X17399000Y-11049000D01*
X17399000Y-11049000D02*
X12827000Y-11049000D01*
X12827000Y-11049000D02*
X11684000Y-12192000D01*
X11684000Y-12192000D02*
X11684000Y-16129000D01*
X11684000Y-16129000D02*
X10414000Y-17399000D01*
X10414000Y-17399000D02*
X9652000Y-17399000D01*
D10*
G36*
X2534876Y3216463D02*
X2616365Y3215684D01*
X2707731Y3212731D01*
X2807278Y3206200D01*
X2912673Y3194769D01*
X3021503Y3177200D01*
X3131214Y3152406D01*
X3239286Y3119478D01*
X3344050Y3077421D01*
X3446089Y3024726D01*
X3545965Y2961064D01*
X3642256Y2887373D01*
X3733258Y2804960D01*
X3817337Y2715307D01*
X3893001Y2620004D01*
X3958903Y2520741D01*
X4013959Y2419135D01*
X4058176Y2315052D01*
X4092948Y2207608D01*
X4119401Y2098053D01*
X4138423Y1988825D01*
X4151065Y1882477D01*
X4158529Y1781505D01*
X4162130Y1688207D01*
X4163253Y1604466D01*
X4163334Y1532582D01*
X4163334Y-659488D01*
X4163335Y-659493D01*
X4163334Y-659498D01*
X4163335Y-690441D01*
X4163504Y-691289D01*
X4163340Y-692138D01*
X4163557Y-730269D01*
X4164156Y-733194D01*
X4163648Y-736135D01*
X4164776Y-780797D01*
X4165802Y-785351D01*
X4165148Y-789976D01*
X4167949Y-840055D01*
X4169474Y-845973D01*
X4168862Y-852051D01*
X4174097Y-906427D01*
X4176267Y-913638D01*
X4175884Y-921163D01*
X4184316Y-978720D01*
X4187346Y-987236D01*
X4187423Y-996275D01*
X4199813Y-1055896D01*
X4203991Y-1065744D01*
X4204835Y-1076409D01*
X4221944Y-1136976D01*
X4227643Y-1148150D01*
X4229661Y-1160527D01*
X4252252Y-1220922D01*
X4259745Y-1233027D01*
X4263343Y-1246801D01*
X4292052Y-1305957D01*
X4300512Y-1317127D01*
X4305289Y-1330302D01*
X4339899Y-1387490D01*
X4348793Y-1397219D01*
X4354343Y-1409171D01*
X4394269Y-1463806D01*
X4403578Y-1472363D01*
X4409838Y-1483346D01*
X4454499Y-1534846D01*
X4464293Y-1542448D01*
X4471291Y-1552683D01*
X4520104Y-1600463D01*
X4530515Y-1607260D01*
X4538352Y-1616918D01*
X4590731Y-1660394D01*
X4601946Y-1666469D01*
X4610786Y-1675664D01*
X4666147Y-1714253D01*
X4678396Y-1719612D01*
X4688476Y-1728398D01*
X4746237Y-1761516D01*
X4759733Y-1766052D01*
X4771292Y-1774358D01*
X4830860Y-1801442D01*
X4844404Y-1804619D01*
X4856393Y-1811665D01*
X4916941Y-1832744D01*
X4928866Y-1834408D01*
X4939698Y-1839668D01*
X5000125Y-1855465D01*
X5010351Y-1856073D01*
X5019848Y-1859917D01*
X5079035Y-1871195D01*
X5087665Y-1871125D01*
X5095835Y-1873905D01*
X5152666Y-1881425D01*
X5159806Y-1880962D01*
X5166675Y-1882944D01*
X5220031Y-1887468D01*
X5225740Y-1886827D01*
X5231317Y-1888211D01*
X5280083Y-1890499D01*
X5284299Y-1889864D01*
X5288465Y-1890775D01*
X5331523Y-1891590D01*
X5333935Y-1891158D01*
X5336339Y-1891643D01*
X5372572Y-1891747D01*
X5373003Y-1891663D01*
X5373433Y-1891748D01*
X22702024Y-1891748D01*
X22702454Y-1891663D01*
X22702885Y-1891747D01*
X22739117Y-1891643D01*
X22741522Y-1891157D01*
X22743934Y-1891590D01*
X22786991Y-1890775D01*
X22791157Y-1889864D01*
X22795373Y-1890499D01*
X22844139Y-1888211D01*
X22849715Y-1886827D01*
X22855424Y-1887468D01*
X22908781Y-1882944D01*
X22915650Y-1880962D01*
X22922790Y-1881425D01*
X22979620Y-1873905D01*
X22987791Y-1871125D01*
X22996420Y-1871195D01*
X23055608Y-1859917D01*
X23065105Y-1856073D01*
X23075332Y-1855465D01*
X23135759Y-1839668D01*
X23146590Y-1834408D01*
X23158517Y-1832744D01*
X23219065Y-1811665D01*
X23231056Y-1804617D01*
X23244594Y-1801442D01*
X23304164Y-1774359D01*
X23315726Y-1766051D01*
X23329222Y-1761515D01*
X23386982Y-1728397D01*
X23397060Y-1719612D01*
X23409307Y-1714254D01*
X23464669Y-1675665D01*
X23473511Y-1666469D01*
X23484728Y-1660392D01*
X23537106Y-1616916D01*
X23544940Y-1607261D01*
X23555353Y-1600463D01*
X23604165Y-1552683D01*
X23611163Y-1542448D01*
X23620957Y-1534846D01*
X23665619Y-1483346D01*
X23671880Y-1472362D01*
X23681184Y-1463809D01*
X23721112Y-1409174D01*
X23726664Y-1397219D01*
X23735558Y-1387490D01*
X23770167Y-1330303D01*
X23774945Y-1317129D01*
X23783405Y-1305957D01*
X23812114Y-1246801D01*
X23815712Y-1233027D01*
X23823207Y-1220918D01*
X23845797Y-1160522D01*
X23847814Y-1148147D01*
X23853512Y-1136976D01*
X23870620Y-1076409D01*
X23871464Y-1065747D01*
X23875643Y-1055896D01*
X23888033Y-996274D01*
X23888110Y-987236D01*
X23891140Y-978720D01*
X23899572Y-921164D01*
X23899189Y-913643D01*
X23901359Y-906433D01*
X23906595Y-852056D01*
X23905983Y-845974D01*
X23907508Y-840055D01*
X23910309Y-789977D01*
X23909655Y-785351D01*
X23910681Y-780797D01*
X23911809Y-736136D01*
X23911300Y-733190D01*
X23911900Y-730260D01*
X23912116Y-692130D01*
X23911953Y-691286D01*
X23912121Y-690441D01*
X23912122Y-659498D01*
X23912121Y-659493D01*
X23912122Y-659488D01*
X23912122Y638932D01*
X24003670Y638932D01*
X24292926Y-61121D01*
X24828062Y-597192D01*
X25527609Y-887669D01*
X26285068Y-888330D01*
X26985121Y-599074D01*
X27521192Y-63938D01*
X27811669Y635609D01*
X27812330Y1393068D01*
X27523074Y2093121D01*
X26987938Y2629192D01*
X26288391Y2919669D01*
X25530932Y2920330D01*
X24830879Y2631074D01*
X24294808Y2095938D01*
X24004331Y1396391D01*
X24003670Y638932D01*
X23912122Y638932D01*
X23912122Y1532582D01*
X23912204Y1604469D01*
X23913326Y1688206D01*
X23916928Y1781526D01*
X23924390Y1882458D01*
X23937035Y1988828D01*
X23956056Y2098053D01*
X23982510Y2207611D01*
X24017281Y2315052D01*
X24061498Y2419135D01*
X24116553Y2520739D01*
X24182458Y2620007D01*
X24258119Y2715307D01*
X24342193Y2804955D01*
X24433192Y2887366D01*
X24529493Y2961065D01*
X24629376Y3024730D01*
X24731405Y3077421D01*
X24836170Y3119478D01*
X24944243Y3152406D01*
X25053955Y3177201D01*
X25162778Y3194768D01*
X25268180Y3206201D01*
X25367726Y3212731D01*
X25459091Y3215684D01*
X25540580Y3216463D01*
X25609780Y3216489D01*
X26197559Y3216489D01*
X26266081Y3216470D01*
X26347004Y3215761D01*
X26437928Y3212948D01*
X26537120Y3206626D01*
X26642303Y3195462D01*
X26751007Y3178226D01*
X26860721Y3153813D01*
X26968944Y3121300D01*
X27073876Y3079726D01*
X27176013Y3027578D01*
X27276024Y2964438D01*
X27372535Y2891208D01*
X27463831Y2809195D01*
X27548289Y2719859D01*
X27624400Y2624794D01*
X27690808Y2525688D01*
X27746408Y2424182D01*
X27791133Y2320251D01*
X27826338Y2212957D01*
X27853181Y2103455D01*
X27872545Y1994154D01*
X27885475Y1887592D01*
X27893162Y1786323D01*
X27896921Y1692592D01*
X27898133Y1608346D01*
X27898233Y1535424D01*
X27898233Y-25564719D01*
X27898017Y-25653123D01*
X27896194Y-25755272D01*
X27891051Y-25868771D01*
X27880918Y-25991312D01*
X27864224Y-26119981D01*
X27839492Y-26251952D01*
X27805427Y-26384188D01*
X27760876Y-26513906D01*
X27704249Y-26640030D01*
X27634373Y-26763173D01*
X27551730Y-26882809D01*
X27457726Y-26997003D01*
X27353983Y-27103842D01*
X27242229Y-27201550D01*
X27124323Y-27288472D01*
X27002238Y-27363091D01*
X26877290Y-27424455D01*
X26748897Y-27473124D01*
X26617253Y-27510848D01*
X26484866Y-27538800D01*
X26354646Y-27558235D01*
X26229577Y-27570556D01*
X26112525Y-27577309D01*
X26005997Y-27580135D01*
X25912256Y-27580729D01*
X25831563Y-27580733D01*
X2241068Y-27580733D01*
X2163200Y-27580729D01*
X2069460Y-27580135D01*
X1962932Y-27577309D01*
X1845879Y-27570556D01*
X1720811Y-27558235D01*
X1590590Y-27538800D01*
X1458208Y-27510849D01*
X1326563Y-27473125D01*
X1198168Y-27424456D01*
X1073211Y-27363086D01*
X951140Y-27288476D01*
X833237Y-27201559D01*
X721480Y-27103848D01*
X617730Y-26997002D01*
X523725Y-26882806D01*
X441084Y-26763174D01*
X371206Y-26640026D01*
X314581Y-26513910D01*
X270029Y-26384188D01*
X235965Y-26251952D01*
X211231Y-26119975D01*
X194538Y-25991312D01*
X184405Y-25868772D01*
X179262Y-25755272D01*
X177440Y-25653127D01*
X177223Y-25564713D01*
X177223Y-17018000D01*
X8005000Y-17018000D01*
X8005000Y-17653000D01*
X8043365Y-17845873D01*
X8152618Y-18009382D01*
X8914618Y-18771382D01*
X9078128Y-18880635D01*
X9271000Y-18919000D01*
X18288000Y-18919000D01*
X18480873Y-18880635D01*
X18644382Y-18771382D01*
X20295382Y-17120382D01*
X20404635Y-16956872D01*
X20443001Y-16764000D01*
X20443000Y-16763995D01*
X20443000Y-16158937D01*
X20487096Y-16114918D01*
X20585788Y-15877241D01*
X20586013Y-15619888D01*
X20487735Y-15382039D01*
X20305918Y-15199904D01*
X20068241Y-15101212D01*
X20004921Y-15101157D01*
X19173000Y-14269236D01*
X19173000Y-5490937D01*
X19217096Y-5446918D01*
X19315788Y-5209241D01*
X19316013Y-4951888D01*
X19217735Y-4714039D01*
X19035918Y-4531904D01*
X18798241Y-4433212D01*
X18540888Y-4432987D01*
X18303039Y-4531265D01*
X18120904Y-4713082D01*
X18022212Y-4950759D01*
X18021987Y-5208112D01*
X18120265Y-5445961D01*
X18165000Y-5490774D01*
X18165000Y-10011240D01*
X18019918Y-9865904D01*
X17782241Y-9767212D01*
X17543687Y-9767003D01*
X14604200Y-6827516D01*
X14604200Y-6604000D01*
X14575259Y-6458504D01*
X14492842Y-6335158D01*
X12968842Y-4811158D01*
X12845496Y-4728741D01*
X12700000Y-4699800D01*
X11837521Y-4699800D01*
X11669918Y-4531904D01*
X11432241Y-4433212D01*
X11174888Y-4432987D01*
X10937039Y-4531265D01*
X10754904Y-4713082D01*
X10656212Y-4950759D01*
X10655987Y-5208112D01*
X10754265Y-5445961D01*
X10936082Y-5628096D01*
X11173759Y-5726788D01*
X11431112Y-5727013D01*
X11668961Y-5628735D01*
X11837791Y-5460200D01*
X12542516Y-5460200D01*
X13843800Y-6761484D01*
X13843800Y-6985000D01*
X13872741Y-7130496D01*
X13955158Y-7253842D01*
X17006194Y-10304878D01*
X17005987Y-10542112D01*
X17058334Y-10668800D01*
X12827000Y-10668800D01*
X12681504Y-10697741D01*
X12558158Y-10780158D01*
X11415158Y-11923158D01*
X11332741Y-12046504D01*
X11303800Y-12192000D01*
X11303800Y-15971516D01*
X10256516Y-17018800D01*
X10186521Y-17018800D01*
X10018918Y-16850904D01*
X9781241Y-16752212D01*
X9523888Y-16751987D01*
X9462350Y-16777414D01*
X9590805Y-16648959D01*
X9653112Y-16649013D01*
X9890961Y-16550735D01*
X10073096Y-16368918D01*
X10171788Y-16131241D01*
X10172013Y-15873888D01*
X10073735Y-15636039D01*
X9891918Y-15453904D01*
X9654241Y-15355212D01*
X9396888Y-15354987D01*
X9159039Y-15453265D01*
X8976904Y-15635082D01*
X8878212Y-15872759D01*
X8878157Y-15936079D01*
X8152618Y-16661618D01*
X8043365Y-16825127D01*
X8043365Y-16825128D01*
X8005000Y-17018000D01*
X177223Y-17018000D01*
X177223Y-4700112D01*
X5321987Y-4700112D01*
X5420265Y-4937961D01*
X5602082Y-5120096D01*
X5715800Y-5167316D01*
X5715800Y-11557000D01*
X5744741Y-11702496D01*
X5827158Y-11825842D01*
X6589158Y-12587842D01*
X6673392Y-12644125D01*
X6690265Y-12684961D01*
X6872082Y-12867096D01*
X7109759Y-12965788D01*
X7367112Y-12966013D01*
X7604961Y-12867735D01*
X7787096Y-12685918D01*
X7885788Y-12448241D01*
X7886013Y-12190888D01*
X7787735Y-11953039D01*
X7605918Y-11770904D01*
X7368241Y-11672212D01*
X7110888Y-11671987D01*
X6873039Y-11770265D01*
X6859983Y-11783299D01*
X6476200Y-11399516D01*
X6476200Y-4979743D01*
X6517096Y-4938918D01*
X6615788Y-4701241D01*
X6616013Y-4443888D01*
X6517735Y-4206039D01*
X6335918Y-4023904D01*
X6098241Y-3925212D01*
X5840888Y-3924987D01*
X5603039Y-4023265D01*
X5420904Y-4205082D01*
X5322212Y-4442759D01*
X5321987Y-4700112D01*
X177223Y-4700112D01*
X177223Y638932D01*
X254670Y638932D01*
X543926Y-61121D01*
X1079062Y-597192D01*
X1778609Y-887669D01*
X2536068Y-888330D01*
X3236121Y-599074D01*
X3772192Y-63938D01*
X4062669Y635609D01*
X4063330Y1393068D01*
X3774074Y2093121D01*
X3238938Y2629192D01*
X2539391Y2919669D01*
X1781932Y2920330D01*
X1081879Y2631074D01*
X545808Y2095938D01*
X255331Y1396391D01*
X254670Y638932D01*
X177223Y638932D01*
X177223Y1535424D01*
X177323Y1608321D01*
X178536Y1692581D01*
X182294Y1786303D01*
X189982Y1887589D01*
X202910Y1994125D01*
X222274Y2103429D01*
X249123Y2212958D01*
X284321Y2320233D01*
X329050Y2424172D01*
X384650Y2525679D01*
X451064Y2624792D01*
X527177Y2719859D01*
X611631Y2809190D01*
X702928Y2891204D01*
X799446Y2964438D01*
X899457Y3027579D01*
X1001591Y3079726D01*
X1106516Y3121296D01*
X1214732Y3153809D01*
X1324463Y3178224D01*
X1433177Y3195464D01*
X1538350Y3206626D01*
X1637546Y3212948D01*
X1728470Y3215761D01*
X1809395Y3216470D01*
X1877917Y3216489D01*
X2465676Y3216489D01*
X2534876Y3216463D01*
X2534876Y3216463D01*
G37*
X2534876Y3216463D02*
X2616365Y3215684D01*
X2707731Y3212731D01*
X2807278Y3206200D01*
X2912673Y3194769D01*
X3021503Y3177200D01*
X3131214Y3152406D01*
X3239286Y3119478D01*
X3344050Y3077421D01*
X3446089Y3024726D01*
X3545965Y2961064D01*
X3642256Y2887373D01*
X3733258Y2804960D01*
X3817337Y2715307D01*
X3893001Y2620004D01*
X3958903Y2520741D01*
X4013959Y2419135D01*
X4058176Y2315052D01*
X4092948Y2207608D01*
X4119401Y2098053D01*
X4138423Y1988825D01*
X4151065Y1882477D01*
X4158529Y1781505D01*
X4162130Y1688207D01*
X4163253Y1604466D01*
X4163334Y1532582D01*
X4163334Y-659488D01*
X4163335Y-659493D01*
X4163334Y-659498D01*
X4163335Y-690441D01*
X4163504Y-691289D01*
X4163340Y-692138D01*
X4163557Y-730269D01*
X4164156Y-733194D01*
X4163648Y-736135D01*
X4164776Y-780797D01*
X4165802Y-785351D01*
X4165148Y-789976D01*
X4167949Y-840055D01*
X4169474Y-845973D01*
X4168862Y-852051D01*
X4174097Y-906427D01*
X4176267Y-913638D01*
X4175884Y-921163D01*
X4184316Y-978720D01*
X4187346Y-987236D01*
X4187423Y-996275D01*
X4199813Y-1055896D01*
X4203991Y-1065744D01*
X4204835Y-1076409D01*
X4221944Y-1136976D01*
X4227643Y-1148150D01*
X4229661Y-1160527D01*
X4252252Y-1220922D01*
X4259745Y-1233027D01*
X4263343Y-1246801D01*
X4292052Y-1305957D01*
X4300512Y-1317127D01*
X4305289Y-1330302D01*
X4339899Y-1387490D01*
X4348793Y-1397219D01*
X4354343Y-1409171D01*
X4394269Y-1463806D01*
X4403578Y-1472363D01*
X4409838Y-1483346D01*
X4454499Y-1534846D01*
X4464293Y-1542448D01*
X4471291Y-1552683D01*
X4520104Y-1600463D01*
X4530515Y-1607260D01*
X4538352Y-1616918D01*
X4590731Y-1660394D01*
X4601946Y-1666469D01*
X4610786Y-1675664D01*
X4666147Y-1714253D01*
X4678396Y-1719612D01*
X4688476Y-1728398D01*
X4746237Y-1761516D01*
X4759733Y-1766052D01*
X4771292Y-1774358D01*
X4830860Y-1801442D01*
X4844404Y-1804619D01*
X4856393Y-1811665D01*
X4916941Y-1832744D01*
X4928866Y-1834408D01*
X4939698Y-1839668D01*
X5000125Y-1855465D01*
X5010351Y-1856073D01*
X5019848Y-1859917D01*
X5079035Y-1871195D01*
X5087665Y-1871125D01*
X5095835Y-1873905D01*
X5152666Y-1881425D01*
X5159806Y-1880962D01*
X5166675Y-1882944D01*
X5220031Y-1887468D01*
X5225740Y-1886827D01*
X5231317Y-1888211D01*
X5280083Y-1890499D01*
X5284299Y-1889864D01*
X5288465Y-1890775D01*
X5331523Y-1891590D01*
X5333935Y-1891158D01*
X5336339Y-1891643D01*
X5372572Y-1891747D01*
X5373003Y-1891663D01*
X5373433Y-1891748D01*
X22702024Y-1891748D01*
X22702454Y-1891663D01*
X22702885Y-1891747D01*
X22739117Y-1891643D01*
X22741522Y-1891157D01*
X22743934Y-1891590D01*
X22786991Y-1890775D01*
X22791157Y-1889864D01*
X22795373Y-1890499D01*
X22844139Y-1888211D01*
X22849715Y-1886827D01*
X22855424Y-1887468D01*
X22908781Y-1882944D01*
X22915650Y-1880962D01*
X22922790Y-1881425D01*
X22979620Y-1873905D01*
X22987791Y-1871125D01*
X22996420Y-1871195D01*
X23055608Y-1859917D01*
X23065105Y-1856073D01*
X23075332Y-1855465D01*
X23135759Y-1839668D01*
X23146590Y-1834408D01*
X23158517Y-1832744D01*
X23219065Y-1811665D01*
X23231056Y-1804617D01*
X23244594Y-1801442D01*
X23304164Y-1774359D01*
X23315726Y-1766051D01*
X23329222Y-1761515D01*
X23386982Y-1728397D01*
X23397060Y-1719612D01*
X23409307Y-1714254D01*
X23464669Y-1675665D01*
X23473511Y-1666469D01*
X23484728Y-1660392D01*
X23537106Y-1616916D01*
X23544940Y-1607261D01*
X23555353Y-1600463D01*
X23604165Y-1552683D01*
X23611163Y-1542448D01*
X23620957Y-1534846D01*
X23665619Y-1483346D01*
X23671880Y-1472362D01*
X23681184Y-1463809D01*
X23721112Y-1409174D01*
X23726664Y-1397219D01*
X23735558Y-1387490D01*
X23770167Y-1330303D01*
X23774945Y-1317129D01*
X23783405Y-1305957D01*
X23812114Y-1246801D01*
X23815712Y-1233027D01*
X23823207Y-1220918D01*
X23845797Y-1160522D01*
X23847814Y-1148147D01*
X23853512Y-1136976D01*
X23870620Y-1076409D01*
X23871464Y-1065747D01*
X23875643Y-1055896D01*
X23888033Y-996274D01*
X23888110Y-987236D01*
X23891140Y-978720D01*
X23899572Y-921164D01*
X23899189Y-913643D01*
X23901359Y-906433D01*
X23906595Y-852056D01*
X23905983Y-845974D01*
X23907508Y-840055D01*
X23910309Y-789977D01*
X23909655Y-785351D01*
X23910681Y-780797D01*
X23911809Y-736136D01*
X23911300Y-733190D01*
X23911900Y-730260D01*
X23912116Y-692130D01*
X23911953Y-691286D01*
X23912121Y-690441D01*
X23912122Y-659498D01*
X23912121Y-659493D01*
X23912122Y-659488D01*
X23912122Y638932D01*
X24003670Y638932D01*
X24292926Y-61121D01*
X24828062Y-597192D01*
X25527609Y-887669D01*
X26285068Y-888330D01*
X26985121Y-599074D01*
X27521192Y-63938D01*
X27811669Y635609D01*
X27812330Y1393068D01*
X27523074Y2093121D01*
X26987938Y2629192D01*
X26288391Y2919669D01*
X25530932Y2920330D01*
X24830879Y2631074D01*
X24294808Y2095938D01*
X24004331Y1396391D01*
X24003670Y638932D01*
X23912122Y638932D01*
X23912122Y1532582D01*
X23912204Y1604469D01*
X23913326Y1688206D01*
X23916928Y1781526D01*
X23924390Y1882458D01*
X23937035Y1988828D01*
X23956056Y2098053D01*
X23982510Y2207611D01*
X24017281Y2315052D01*
X24061498Y2419135D01*
X24116553Y2520739D01*
X24182458Y2620007D01*
X24258119Y2715307D01*
X24342193Y2804955D01*
X24433192Y2887366D01*
X24529493Y2961065D01*
X24629376Y3024730D01*
X24731405Y3077421D01*
X24836170Y3119478D01*
X24944243Y3152406D01*
X25053955Y3177201D01*
X25162778Y3194768D01*
X25268180Y3206201D01*
X25367726Y3212731D01*
X25459091Y3215684D01*
X25540580Y3216463D01*
X25609780Y3216489D01*
X26197559Y3216489D01*
X26266081Y3216470D01*
X26347004Y3215761D01*
X26437928Y3212948D01*
X26537120Y3206626D01*
X26642303Y3195462D01*
X26751007Y3178226D01*
X26860721Y3153813D01*
X26968944Y3121300D01*
X27073876Y3079726D01*
X27176013Y3027578D01*
X27276024Y2964438D01*
X27372535Y2891208D01*
X27463831Y2809195D01*
X27548289Y2719859D01*
X27624400Y2624794D01*
X27690808Y2525688D01*
X27746408Y2424182D01*
X27791133Y2320251D01*
X27826338Y2212957D01*
X27853181Y2103455D01*
X27872545Y1994154D01*
X27885475Y1887592D01*
X27893162Y1786323D01*
X27896921Y1692592D01*
X27898133Y1608346D01*
X27898233Y1535424D01*
X27898233Y-25564719D01*
X27898017Y-25653123D01*
X27896194Y-25755272D01*
X27891051Y-25868771D01*
X27880918Y-25991312D01*
X27864224Y-26119981D01*
X27839492Y-26251952D01*
X27805427Y-26384188D01*
X27760876Y-26513906D01*
X27704249Y-26640030D01*
X27634373Y-26763173D01*
X27551730Y-26882809D01*
X27457726Y-26997003D01*
X27353983Y-27103842D01*
X27242229Y-27201550D01*
X27124323Y-27288472D01*
X27002238Y-27363091D01*
X26877290Y-27424455D01*
X26748897Y-27473124D01*
X26617253Y-27510848D01*
X26484866Y-27538800D01*
X26354646Y-27558235D01*
X26229577Y-27570556D01*
X26112525Y-27577309D01*
X26005997Y-27580135D01*
X25912256Y-27580729D01*
X25831563Y-27580733D01*
X2241068Y-27580733D01*
X2163200Y-27580729D01*
X2069460Y-27580135D01*
X1962932Y-27577309D01*
X1845879Y-27570556D01*
X1720811Y-27558235D01*
X1590590Y-27538800D01*
X1458208Y-27510849D01*
X1326563Y-27473125D01*
X1198168Y-27424456D01*
X1073211Y-27363086D01*
X951140Y-27288476D01*
X833237Y-27201559D01*
X721480Y-27103848D01*
X617730Y-26997002D01*
X523725Y-26882806D01*
X441084Y-26763174D01*
X371206Y-26640026D01*
X314581Y-26513910D01*
X270029Y-26384188D01*
X235965Y-26251952D01*
X211231Y-26119975D01*
X194538Y-25991312D01*
X184405Y-25868772D01*
X179262Y-25755272D01*
X177440Y-25653127D01*
X177223Y-25564713D01*
X177223Y-17018000D01*
X8005000Y-17018000D01*
X8005000Y-17653000D01*
X8043365Y-17845873D01*
X8152618Y-18009382D01*
X8914618Y-18771382D01*
X9078128Y-18880635D01*
X9271000Y-18919000D01*
X18288000Y-18919000D01*
X18480873Y-18880635D01*
X18644382Y-18771382D01*
X20295382Y-17120382D01*
X20404635Y-16956872D01*
X20443001Y-16764000D01*
X20443000Y-16763995D01*
X20443000Y-16158937D01*
X20487096Y-16114918D01*
X20585788Y-15877241D01*
X20586013Y-15619888D01*
X20487735Y-15382039D01*
X20305918Y-15199904D01*
X20068241Y-15101212D01*
X20004921Y-15101157D01*
X19173000Y-14269236D01*
X19173000Y-5490937D01*
X19217096Y-5446918D01*
X19315788Y-5209241D01*
X19316013Y-4951888D01*
X19217735Y-4714039D01*
X19035918Y-4531904D01*
X18798241Y-4433212D01*
X18540888Y-4432987D01*
X18303039Y-4531265D01*
X18120904Y-4713082D01*
X18022212Y-4950759D01*
X18021987Y-5208112D01*
X18120265Y-5445961D01*
X18165000Y-5490774D01*
X18165000Y-10011240D01*
X18019918Y-9865904D01*
X17782241Y-9767212D01*
X17543687Y-9767003D01*
X14604200Y-6827516D01*
X14604200Y-6604000D01*
X14575259Y-6458504D01*
X14492842Y-6335158D01*
X12968842Y-4811158D01*
X12845496Y-4728741D01*
X12700000Y-4699800D01*
X11837521Y-4699800D01*
X11669918Y-4531904D01*
X11432241Y-4433212D01*
X11174888Y-4432987D01*
X10937039Y-4531265D01*
X10754904Y-4713082D01*
X10656212Y-4950759D01*
X10655987Y-5208112D01*
X10754265Y-5445961D01*
X10936082Y-5628096D01*
X11173759Y-5726788D01*
X11431112Y-5727013D01*
X11668961Y-5628735D01*
X11837791Y-5460200D01*
X12542516Y-5460200D01*
X13843800Y-6761484D01*
X13843800Y-6985000D01*
X13872741Y-7130496D01*
X13955158Y-7253842D01*
X17006194Y-10304878D01*
X17005987Y-10542112D01*
X17058334Y-10668800D01*
X12827000Y-10668800D01*
X12681504Y-10697741D01*
X12558158Y-10780158D01*
X11415158Y-11923158D01*
X11332741Y-12046504D01*
X11303800Y-12192000D01*
X11303800Y-15971516D01*
X10256516Y-17018800D01*
X10186521Y-17018800D01*
X10018918Y-16850904D01*
X9781241Y-16752212D01*
X9523888Y-16751987D01*
X9462350Y-16777414D01*
X9590805Y-16648959D01*
X9653112Y-16649013D01*
X9890961Y-16550735D01*
X10073096Y-16368918D01*
X10171788Y-16131241D01*
X10172013Y-15873888D01*
X10073735Y-15636039D01*
X9891918Y-15453904D01*
X9654241Y-15355212D01*
X9396888Y-15354987D01*
X9159039Y-15453265D01*
X8976904Y-15635082D01*
X8878212Y-15872759D01*
X8878157Y-15936079D01*
X8152618Y-16661618D01*
X8043365Y-16825127D01*
X8043365Y-16825128D01*
X8005000Y-17018000D01*
X177223Y-17018000D01*
X177223Y-4700112D01*
X5321987Y-4700112D01*
X5420265Y-4937961D01*
X5602082Y-5120096D01*
X5715800Y-5167316D01*
X5715800Y-11557000D01*
X5744741Y-11702496D01*
X5827158Y-11825842D01*
X6589158Y-12587842D01*
X6673392Y-12644125D01*
X6690265Y-12684961D01*
X6872082Y-12867096D01*
X7109759Y-12965788D01*
X7367112Y-12966013D01*
X7604961Y-12867735D01*
X7787096Y-12685918D01*
X7885788Y-12448241D01*
X7886013Y-12190888D01*
X7787735Y-11953039D01*
X7605918Y-11770904D01*
X7368241Y-11672212D01*
X7110888Y-11671987D01*
X6873039Y-11770265D01*
X6859983Y-11783299D01*
X6476200Y-11399516D01*
X6476200Y-4979743D01*
X6517096Y-4938918D01*
X6615788Y-4701241D01*
X6616013Y-4443888D01*
X6517735Y-4206039D01*
X6335918Y-4023904D01*
X6098241Y-3925212D01*
X5840888Y-3924987D01*
X5603039Y-4023265D01*
X5420904Y-4205082D01*
X5322212Y-4442759D01*
X5321987Y-4700112D01*
X177223Y-4700112D01*
X177223Y638932D01*
X254670Y638932D01*
X543926Y-61121D01*
X1079062Y-597192D01*
X1778609Y-887669D01*
X2536068Y-888330D01*
X3236121Y-599074D01*
X3772192Y-63938D01*
X4062669Y635609D01*
X4063330Y1393068D01*
X3774074Y2093121D01*
X3238938Y2629192D01*
X2539391Y2919669D01*
X1781932Y2920330D01*
X1081879Y2631074D01*
X545808Y2095938D01*
X255331Y1396391D01*
X254670Y638932D01*
X177223Y638932D01*
X177223Y1535424D01*
X177323Y1608321D01*
X178536Y1692581D01*
X182294Y1786303D01*
X189982Y1887589D01*
X202910Y1994125D01*
X222274Y2103429D01*
X249123Y2212958D01*
X284321Y2320233D01*
X329050Y2424172D01*
X384650Y2525679D01*
X451064Y2624792D01*
X527177Y2719859D01*
X611631Y2809190D01*
X702928Y2891204D01*
X799446Y2964438D01*
X899457Y3027579D01*
X1001591Y3079726D01*
X1106516Y3121296D01*
X1214732Y3153809D01*
X1324463Y3178224D01*
X1433177Y3195464D01*
X1538350Y3206626D01*
X1637546Y3212948D01*
X1728470Y3215761D01*
X1809395Y3216470D01*
X1877917Y3216489D01*
X2465676Y3216489D01*
X2534876Y3216463D01*
M02*
