G04 #@! TF.FileFunction,Legend,Top*
%FSLAX46Y46*%
G04 Gerber Fmt 4.6, Leading zero omitted, Abs format (unit mm)*
G04 Created by KiCad (PCBNEW 4.0.7) date 07/15/18 11:06:10*
%MOMM*%
%LPD*%
G01*
G04 APERTURE LIST*
%ADD10C,0.100000*%
%ADD11C,0.125000*%
G04 APERTURE END LIST*
D10*
D11*
X16253334Y-25972333D02*
X16653334Y-25972333D01*
X16453334Y-25972333D02*
X16453334Y-26672333D01*
X16520000Y-26572333D01*
X16586667Y-26505667D01*
X16653334Y-26472333D01*
X15986667Y-26605667D02*
X15953333Y-26639000D01*
X15886667Y-26672333D01*
X15720000Y-26672333D01*
X15653333Y-26639000D01*
X15620000Y-26605667D01*
X15586667Y-26539000D01*
X15586667Y-26472333D01*
X15620000Y-26372333D01*
X16020000Y-25972333D01*
X15586667Y-25972333D01*
X15186666Y-26372333D02*
X15253333Y-26405667D01*
X15286666Y-26439000D01*
X15320000Y-26505667D01*
X15320000Y-26539000D01*
X15286666Y-26605667D01*
X15253333Y-26639000D01*
X15186666Y-26672333D01*
X15053333Y-26672333D01*
X14986666Y-26639000D01*
X14953333Y-26605667D01*
X14920000Y-26539000D01*
X14920000Y-26505667D01*
X14953333Y-26439000D01*
X14986666Y-26405667D01*
X15053333Y-26372333D01*
X15186666Y-26372333D01*
X15253333Y-26339000D01*
X15286666Y-26305667D01*
X15320000Y-26239000D01*
X15320000Y-26105667D01*
X15286666Y-26039000D01*
X15253333Y-26005667D01*
X15186666Y-25972333D01*
X15053333Y-25972333D01*
X14986666Y-26005667D01*
X14953333Y-26039000D01*
X14920000Y-26105667D01*
X14920000Y-26239000D01*
X14953333Y-26305667D01*
X14986666Y-26339000D01*
X15053333Y-26372333D01*
X14686666Y-25972333D02*
X14319999Y-26439000D01*
X14686666Y-26439000D02*
X14319999Y-25972333D01*
X13753332Y-26672333D02*
X13886666Y-26672333D01*
X13953332Y-26639000D01*
X13986666Y-26605667D01*
X14053332Y-26505667D01*
X14086666Y-26372333D01*
X14086666Y-26105667D01*
X14053332Y-26039000D01*
X14019999Y-26005667D01*
X13953332Y-25972333D01*
X13819999Y-25972333D01*
X13753332Y-26005667D01*
X13719999Y-26039000D01*
X13686666Y-26105667D01*
X13686666Y-26272333D01*
X13719999Y-26339000D01*
X13753332Y-26372333D01*
X13819999Y-26405667D01*
X13953332Y-26405667D01*
X14019999Y-26372333D01*
X14053332Y-26339000D01*
X14086666Y-26272333D01*
X13086665Y-26439000D02*
X13086665Y-25972333D01*
X13253332Y-26705667D02*
X13419999Y-26205667D01*
X12986665Y-26205667D01*
X12186665Y-26439000D02*
X12186665Y-25739000D01*
X12186665Y-26405667D02*
X12119999Y-26439000D01*
X11986665Y-26439000D01*
X11919999Y-26405667D01*
X11886665Y-26372333D01*
X11853332Y-26305667D01*
X11853332Y-26105667D01*
X11886665Y-26039000D01*
X11919999Y-26005667D01*
X11986665Y-25972333D01*
X12119999Y-25972333D01*
X12186665Y-26005667D01*
X11619999Y-25972333D02*
X11253332Y-26439000D01*
X11619999Y-26439000D02*
X11253332Y-25972333D01*
X20269999Y-25402333D02*
X19836666Y-25402333D01*
X20069999Y-25135667D01*
X19969999Y-25135667D01*
X19903332Y-25102333D01*
X19869999Y-25069000D01*
X19836666Y-25002333D01*
X19836666Y-24835667D01*
X19869999Y-24769000D01*
X19903332Y-24735667D01*
X19969999Y-24702333D01*
X20169999Y-24702333D01*
X20236666Y-24735667D01*
X20269999Y-24769000D01*
X19536665Y-24769000D02*
X19503332Y-24735667D01*
X19536665Y-24702333D01*
X19569999Y-24735667D01*
X19536665Y-24769000D01*
X19536665Y-24702333D01*
X19269999Y-25402333D02*
X18836666Y-25402333D01*
X19069999Y-25135667D01*
X18969999Y-25135667D01*
X18903332Y-25102333D01*
X18869999Y-25069000D01*
X18836666Y-25002333D01*
X18836666Y-24835667D01*
X18869999Y-24769000D01*
X18903332Y-24735667D01*
X18969999Y-24702333D01*
X19169999Y-24702333D01*
X19236666Y-24735667D01*
X19269999Y-24769000D01*
X18636665Y-25402333D02*
X18403332Y-24702333D01*
X18169999Y-25402333D01*
X17936665Y-24969000D02*
X17403332Y-24969000D01*
X16736665Y-25402333D02*
X17069998Y-25402333D01*
X17103332Y-25069000D01*
X17069998Y-25102333D01*
X17003332Y-25135667D01*
X16836665Y-25135667D01*
X16769998Y-25102333D01*
X16736665Y-25069000D01*
X16703332Y-25002333D01*
X16703332Y-24835667D01*
X16736665Y-24769000D01*
X16769998Y-24735667D01*
X16836665Y-24702333D01*
X17003332Y-24702333D01*
X17069998Y-24735667D01*
X17103332Y-24769000D01*
X16403331Y-24769000D02*
X16369998Y-24735667D01*
X16403331Y-24702333D01*
X16436665Y-24735667D01*
X16403331Y-24769000D01*
X16403331Y-24702333D01*
X15936665Y-25402333D02*
X15869998Y-25402333D01*
X15803332Y-25369000D01*
X15769998Y-25335667D01*
X15736665Y-25269000D01*
X15703332Y-25135667D01*
X15703332Y-24969000D01*
X15736665Y-24835667D01*
X15769998Y-24769000D01*
X15803332Y-24735667D01*
X15869998Y-24702333D01*
X15936665Y-24702333D01*
X16003332Y-24735667D01*
X16036665Y-24769000D01*
X16069998Y-24835667D01*
X16103332Y-24969000D01*
X16103332Y-25135667D01*
X16069998Y-25269000D01*
X16036665Y-25335667D01*
X16003332Y-25369000D01*
X15936665Y-25402333D01*
X15503331Y-25402333D02*
X15269998Y-24702333D01*
X15036665Y-25402333D01*
X12903332Y-24702333D02*
X12903332Y-25069000D01*
X12936666Y-25135667D01*
X13003332Y-25169000D01*
X13136666Y-25169000D01*
X13203332Y-25135667D01*
X12903332Y-24735667D02*
X12969999Y-24702333D01*
X13136666Y-24702333D01*
X13203332Y-24735667D01*
X13236666Y-24802333D01*
X13236666Y-24869000D01*
X13203332Y-24935667D01*
X13136666Y-24969000D01*
X12969999Y-24969000D01*
X12903332Y-25002333D01*
X12269999Y-24702333D02*
X12269999Y-25402333D01*
X12269999Y-24735667D02*
X12336666Y-24702333D01*
X12469999Y-24702333D01*
X12536666Y-24735667D01*
X12569999Y-24769000D01*
X12603333Y-24835667D01*
X12603333Y-25035667D01*
X12569999Y-25102333D01*
X12536666Y-25135667D01*
X12469999Y-25169000D01*
X12336666Y-25169000D01*
X12269999Y-25135667D01*
X11636666Y-24702333D02*
X11636666Y-25402333D01*
X11636666Y-24735667D02*
X11703333Y-24702333D01*
X11836666Y-24702333D01*
X11903333Y-24735667D01*
X11936666Y-24769000D01*
X11970000Y-24835667D01*
X11970000Y-25035667D01*
X11936666Y-25102333D01*
X11903333Y-25135667D01*
X11836666Y-25169000D01*
X11703333Y-25169000D01*
X11636666Y-25135667D01*
X11303333Y-24702333D02*
X11303333Y-25169000D01*
X11303333Y-25035667D02*
X11270000Y-25102333D01*
X11236667Y-25135667D01*
X11170000Y-25169000D01*
X11103333Y-25169000D01*
X10870000Y-24769000D02*
X10836667Y-24735667D01*
X10870000Y-24702333D01*
X10903334Y-24735667D01*
X10870000Y-24769000D01*
X10870000Y-24702333D01*
X10870000Y-25135667D02*
X10836667Y-25102333D01*
X10870000Y-25069000D01*
X10903334Y-25102333D01*
X10870000Y-25135667D01*
X10870000Y-25069000D01*
X9870001Y-25402333D02*
X9803334Y-25402333D01*
X9736668Y-25369000D01*
X9703334Y-25335667D01*
X9670001Y-25269000D01*
X9636668Y-25135667D01*
X9636668Y-24969000D01*
X9670001Y-24835667D01*
X9703334Y-24769000D01*
X9736668Y-24735667D01*
X9803334Y-24702333D01*
X9870001Y-24702333D01*
X9936668Y-24735667D01*
X9970001Y-24769000D01*
X10003334Y-24835667D01*
X10036668Y-24969000D01*
X10036668Y-25135667D01*
X10003334Y-25269000D01*
X9970001Y-25335667D01*
X9936668Y-25369000D01*
X9870001Y-25402333D01*
X9403334Y-24702333D02*
X9036667Y-25169000D01*
X9403334Y-25169000D02*
X9036667Y-24702333D01*
X8836667Y-25402333D02*
X8403334Y-25402333D01*
X8636667Y-25135667D01*
X8536667Y-25135667D01*
X8470000Y-25102333D01*
X8436667Y-25069000D01*
X8403334Y-25002333D01*
X8403334Y-24835667D01*
X8436667Y-24769000D01*
X8470000Y-24735667D01*
X8536667Y-24702333D01*
X8736667Y-24702333D01*
X8803334Y-24735667D01*
X8836667Y-24769000D01*
X7703333Y-24769000D02*
X7736667Y-24735667D01*
X7836667Y-24702333D01*
X7903333Y-24702333D01*
X8003333Y-24735667D01*
X8070000Y-24802333D01*
X8103333Y-24869000D01*
X8136667Y-25002333D01*
X8136667Y-25102333D01*
X8103333Y-25235667D01*
X8070000Y-25302333D01*
X8003333Y-25369000D01*
X7903333Y-25402333D01*
X7836667Y-25402333D01*
X7736667Y-25369000D01*
X7703333Y-25335667D01*
X20869999Y-24005333D02*
X20736666Y-24005333D01*
X20669999Y-23972000D01*
X20603332Y-23905333D01*
X20569999Y-23772000D01*
X20569999Y-23538667D01*
X20603332Y-23405333D01*
X20669999Y-23338667D01*
X20736666Y-23305333D01*
X20869999Y-23305333D01*
X20936666Y-23338667D01*
X21003332Y-23405333D01*
X21036666Y-23538667D01*
X21036666Y-23772000D01*
X21003332Y-23905333D01*
X20936666Y-23972000D01*
X20869999Y-24005333D01*
X20169999Y-23305333D02*
X20236666Y-23338667D01*
X20269999Y-23405333D01*
X20269999Y-24005333D01*
X19636666Y-23338667D02*
X19703332Y-23305333D01*
X19836666Y-23305333D01*
X19903332Y-23338667D01*
X19936666Y-23405333D01*
X19936666Y-23672000D01*
X19903332Y-23738667D01*
X19836666Y-23772000D01*
X19703332Y-23772000D01*
X19636666Y-23738667D01*
X19603332Y-23672000D01*
X19603332Y-23605333D01*
X19936666Y-23538667D01*
X19003332Y-23305333D02*
X19003332Y-24005333D01*
X19003332Y-23338667D02*
X19069999Y-23305333D01*
X19203332Y-23305333D01*
X19269999Y-23338667D01*
X19303332Y-23372000D01*
X19336666Y-23438667D01*
X19336666Y-23638667D01*
X19303332Y-23705333D01*
X19269999Y-23738667D01*
X19203332Y-23772000D01*
X19069999Y-23772000D01*
X19003332Y-23738667D01*
X18136666Y-23305333D02*
X18136666Y-24005333D01*
X17903333Y-23505333D01*
X17670000Y-24005333D01*
X17670000Y-23305333D01*
X17236666Y-23305333D02*
X17303333Y-23338667D01*
X17336666Y-23372000D01*
X17370000Y-23438667D01*
X17370000Y-23638667D01*
X17336666Y-23705333D01*
X17303333Y-23738667D01*
X17236666Y-23772000D01*
X17136666Y-23772000D01*
X17070000Y-23738667D01*
X17036666Y-23705333D01*
X17003333Y-23638667D01*
X17003333Y-23438667D01*
X17036666Y-23372000D01*
X17070000Y-23338667D01*
X17136666Y-23305333D01*
X17236666Y-23305333D01*
X16403333Y-23305333D02*
X16403333Y-24005333D01*
X16403333Y-23338667D02*
X16470000Y-23305333D01*
X16603333Y-23305333D01*
X16670000Y-23338667D01*
X16703333Y-23372000D01*
X16736667Y-23438667D01*
X16736667Y-23638667D01*
X16703333Y-23705333D01*
X16670000Y-23738667D01*
X16603333Y-23772000D01*
X16470000Y-23772000D01*
X16403333Y-23738667D01*
X15770000Y-23772000D02*
X15770000Y-23305333D01*
X16070000Y-23772000D02*
X16070000Y-23405333D01*
X16036667Y-23338667D01*
X15970000Y-23305333D01*
X15870000Y-23305333D01*
X15803334Y-23338667D01*
X15770000Y-23372000D01*
X15336667Y-23305333D02*
X15403334Y-23338667D01*
X15436667Y-23405333D01*
X15436667Y-24005333D01*
X14803334Y-23338667D02*
X14870000Y-23305333D01*
X15003334Y-23305333D01*
X15070000Y-23338667D01*
X15103334Y-23405333D01*
X15103334Y-23672000D01*
X15070000Y-23738667D01*
X15003334Y-23772000D01*
X14870000Y-23772000D01*
X14803334Y-23738667D01*
X14770000Y-23672000D01*
X14770000Y-23605333D01*
X15103334Y-23538667D01*
X14036667Y-24005333D02*
X13803334Y-23305333D01*
X13570001Y-24005333D01*
X12970001Y-23305333D02*
X13370001Y-23305333D01*
X13170001Y-23305333D02*
X13170001Y-24005333D01*
X13236667Y-23905333D01*
X13303334Y-23838667D01*
X13370001Y-23805333D01*
X12670000Y-23372000D02*
X12636667Y-23338667D01*
X12670000Y-23305333D01*
X12703334Y-23338667D01*
X12670000Y-23372000D01*
X12670000Y-23305333D01*
X12203334Y-24005333D02*
X12136667Y-24005333D01*
X12070001Y-23972000D01*
X12036667Y-23938667D01*
X12003334Y-23872000D01*
X11970001Y-23738667D01*
X11970001Y-23572000D01*
X12003334Y-23438667D01*
X12036667Y-23372000D01*
X12070001Y-23338667D01*
X12136667Y-23305333D01*
X12203334Y-23305333D01*
X12270001Y-23338667D01*
X12303334Y-23372000D01*
X12336667Y-23438667D01*
X12370001Y-23572000D01*
X12370001Y-23738667D01*
X12336667Y-23872000D01*
X12303334Y-23938667D01*
X12270001Y-23972000D01*
X12203334Y-24005333D01*
X10903334Y-23672000D02*
X11136667Y-23672000D01*
X11136667Y-23305333D02*
X11136667Y-24005333D01*
X10803334Y-24005333D01*
X10536667Y-23305333D02*
X10536667Y-23772000D01*
X10536667Y-23638667D02*
X10503334Y-23705333D01*
X10470001Y-23738667D01*
X10403334Y-23772000D01*
X10336667Y-23772000D01*
X10103334Y-23305333D02*
X10103334Y-23772000D01*
X10103334Y-24005333D02*
X10136668Y-23972000D01*
X10103334Y-23938667D01*
X10070001Y-23972000D01*
X10103334Y-24005333D01*
X10103334Y-23938667D01*
X9836668Y-23772000D02*
X9470001Y-23772000D01*
X9836668Y-23305333D01*
X9470001Y-23305333D01*
X9270001Y-23772000D02*
X8903334Y-23772000D01*
X9270001Y-23305333D01*
X8903334Y-23305333D01*
X8703334Y-23772000D02*
X8536667Y-23305333D01*
X8370001Y-23772000D02*
X8536667Y-23305333D01*
X8603334Y-23138667D01*
X8636667Y-23105333D01*
X8703334Y-23072000D01*
X8103334Y-23372000D02*
X8070001Y-23338667D01*
X8103334Y-23305333D01*
X8136668Y-23338667D01*
X8103334Y-23372000D01*
X8103334Y-23305333D01*
X7503335Y-23338667D02*
X7570001Y-23305333D01*
X7703335Y-23305333D01*
X7770001Y-23338667D01*
X7803335Y-23405333D01*
X7803335Y-23672000D01*
X7770001Y-23738667D01*
X7703335Y-23772000D01*
X7570001Y-23772000D01*
X7503335Y-23738667D01*
X7470001Y-23672000D01*
X7470001Y-23605333D01*
X7803335Y-23538667D01*
X7203335Y-23338667D02*
X7136668Y-23305333D01*
X7003335Y-23305333D01*
X6936668Y-23338667D01*
X6903335Y-23405333D01*
X6903335Y-23438667D01*
X6936668Y-23505333D01*
X7003335Y-23538667D01*
X7103335Y-23538667D01*
X7170001Y-23572000D01*
X7203335Y-23638667D01*
X7203335Y-23672000D01*
X7170001Y-23738667D01*
X7103335Y-23772000D01*
X7003335Y-23772000D01*
X6936668Y-23738667D01*
M02*
