G04 #@! TF.FileFunction,Legend,Bot*
%FSLAX46Y46*%
G04 Gerber Fmt 4.6, Leading zero omitted, Abs format (unit mm)*
G04 Created by KiCad (PCBNEW 4.0.7) date 07/15/18 11:06:09*
%MOMM*%
%LPD*%
G01*
G04 APERTURE LIST*
%ADD10C,0.100000*%
%ADD11C,0.200000*%
%ADD12C,0.175000*%
%ADD13C,0.010000*%
%ADD14C,0.120000*%
%ADD15C,0.150000*%
G04 APERTURE END LIST*
D10*
D11*
X10414000Y-12954000D02*
X10541000Y-12954000D01*
D12*
X10638667Y-17360000D02*
X10605333Y-17260000D01*
X10605333Y-17093333D01*
X10638667Y-17026666D01*
X10672000Y-16993333D01*
X10738667Y-16960000D01*
X10805333Y-16960000D01*
X10872000Y-16993333D01*
X10905333Y-17026666D01*
X10938667Y-17093333D01*
X10972000Y-17226666D01*
X11005333Y-17293333D01*
X11038667Y-17326666D01*
X11105333Y-17360000D01*
X11172000Y-17360000D01*
X11238667Y-17326666D01*
X11272000Y-17293333D01*
X11305333Y-17226666D01*
X11305333Y-17060000D01*
X11272000Y-16960000D01*
X10605333Y-16659999D02*
X11305333Y-16659999D01*
X11305333Y-16493333D01*
X11272000Y-16393333D01*
X11205333Y-16326666D01*
X11138667Y-16293333D01*
X11005333Y-16259999D01*
X10905333Y-16259999D01*
X10772000Y-16293333D01*
X10705333Y-16326666D01*
X10638667Y-16393333D01*
X10605333Y-16493333D01*
X10605333Y-16659999D01*
X10805333Y-15993333D02*
X10805333Y-15659999D01*
X10605333Y-16059999D02*
X11305333Y-15826666D01*
X10605333Y-15593333D01*
X12797667Y-17343334D02*
X12764333Y-17243334D01*
X12764333Y-17076667D01*
X12797667Y-17010000D01*
X12831000Y-16976667D01*
X12897667Y-16943334D01*
X12964333Y-16943334D01*
X13031000Y-16976667D01*
X13064333Y-17010000D01*
X13097667Y-17076667D01*
X13131000Y-17210000D01*
X13164333Y-17276667D01*
X13197667Y-17310000D01*
X13264333Y-17343334D01*
X13331000Y-17343334D01*
X13397667Y-17310000D01*
X13431000Y-17276667D01*
X13464333Y-17210000D01*
X13464333Y-17043334D01*
X13431000Y-16943334D01*
X12831000Y-16243333D02*
X12797667Y-16276667D01*
X12764333Y-16376667D01*
X12764333Y-16443333D01*
X12797667Y-16543333D01*
X12864333Y-16610000D01*
X12931000Y-16643333D01*
X13064333Y-16676667D01*
X13164333Y-16676667D01*
X13297667Y-16643333D01*
X13364333Y-16610000D01*
X13431000Y-16543333D01*
X13464333Y-16443333D01*
X13464333Y-16376667D01*
X13431000Y-16276667D01*
X13397667Y-16243333D01*
X12764333Y-15610000D02*
X12764333Y-15943333D01*
X13464333Y-15943333D01*
X15369333Y-17189333D02*
X14669333Y-16956000D01*
X15369333Y-16722667D01*
X14736000Y-16089333D02*
X14702667Y-16122667D01*
X14669333Y-16222667D01*
X14669333Y-16289333D01*
X14702667Y-16389333D01*
X14769333Y-16456000D01*
X14836000Y-16489333D01*
X14969333Y-16522667D01*
X15069333Y-16522667D01*
X15202667Y-16489333D01*
X15269333Y-16456000D01*
X15336000Y-16389333D01*
X15369333Y-16289333D01*
X15369333Y-16222667D01*
X15336000Y-16122667D01*
X15302667Y-16089333D01*
X14736000Y-15389333D02*
X14702667Y-15422667D01*
X14669333Y-15522667D01*
X14669333Y-15589333D01*
X14702667Y-15689333D01*
X14769333Y-15756000D01*
X14836000Y-15789333D01*
X14969333Y-15822667D01*
X15069333Y-15822667D01*
X15202667Y-15789333D01*
X15269333Y-15756000D01*
X15336000Y-15689333D01*
X15369333Y-15589333D01*
X15369333Y-15522667D01*
X15336000Y-15422667D01*
X15302667Y-15389333D01*
X17368000Y-16789333D02*
X17401333Y-16855999D01*
X17401333Y-16955999D01*
X17368000Y-17055999D01*
X17301333Y-17122666D01*
X17234667Y-17155999D01*
X17101333Y-17189333D01*
X17001333Y-17189333D01*
X16868000Y-17155999D01*
X16801333Y-17122666D01*
X16734667Y-17055999D01*
X16701333Y-16955999D01*
X16701333Y-16889333D01*
X16734667Y-16789333D01*
X16768000Y-16755999D01*
X17001333Y-16755999D01*
X17001333Y-16889333D01*
X16701333Y-16455999D02*
X17401333Y-16455999D01*
X16701333Y-16055999D01*
X17401333Y-16055999D01*
X16701333Y-15722666D02*
X17401333Y-15722666D01*
X17401333Y-15556000D01*
X17368000Y-15456000D01*
X17301333Y-15389333D01*
X17234667Y-15356000D01*
X17101333Y-15322666D01*
X17001333Y-15322666D01*
X16868000Y-15356000D01*
X16801333Y-15389333D01*
X16734667Y-15456000D01*
X16701333Y-15556000D01*
X16701333Y-15722666D01*
D13*
G36*
X26863676Y-20272210D02*
X26833995Y-20262428D01*
X26816050Y-20257363D01*
X26796716Y-20247258D01*
X26784300Y-20237450D01*
X26765892Y-20223271D01*
X26758900Y-20220198D01*
X26740553Y-20215023D01*
X26703528Y-20200651D01*
X26652099Y-20178764D01*
X26638250Y-20172653D01*
X26605922Y-20158563D01*
X26584599Y-20149766D01*
X26581100Y-20148550D01*
X26566600Y-20142890D01*
X26537623Y-20130475D01*
X26523950Y-20124448D01*
X26462828Y-20097508D01*
X26422192Y-20080058D01*
X26403336Y-20072653D01*
X26403300Y-20072643D01*
X26388794Y-20066802D01*
X26359807Y-20054278D01*
X26346150Y-20048248D01*
X26283048Y-20020443D01*
X26242795Y-20003221D01*
X26225500Y-19996575D01*
X26211198Y-19990743D01*
X26181830Y-19977780D01*
X26162000Y-19968808D01*
X26107360Y-19944801D01*
X26072863Y-19931944D01*
X26056256Y-19929412D01*
X26055251Y-19929823D01*
X26043485Y-19924398D01*
X26023634Y-19908457D01*
X26004753Y-19894392D01*
X25996900Y-19894550D01*
X25989222Y-19895363D01*
X25974675Y-19884724D01*
X25953644Y-19868459D01*
X25943059Y-19863358D01*
X25914326Y-19855174D01*
X25865574Y-19835377D01*
X25831800Y-19820293D01*
X25797053Y-19805048D01*
X25772403Y-19795339D01*
X25766184Y-19793590D01*
X25750013Y-19787535D01*
X25753530Y-19775723D01*
X25772702Y-19761484D01*
X25803499Y-19748150D01*
X25829617Y-19741177D01*
X25855862Y-19733132D01*
X25867717Y-19728351D01*
X25888969Y-19719252D01*
X25895300Y-19716783D01*
X25912103Y-19710371D01*
X25941850Y-19698584D01*
X25973971Y-19685644D01*
X25996900Y-19676196D01*
X26017257Y-19667858D01*
X26022300Y-19665950D01*
X26038026Y-19659514D01*
X26049884Y-19654350D01*
X26077599Y-19644688D01*
X26087984Y-19642390D01*
X26113354Y-19633601D01*
X26123900Y-19627861D01*
X26153197Y-19615418D01*
X26167354Y-19612090D01*
X26195071Y-19603524D01*
X26205454Y-19597503D01*
X26225642Y-19587045D01*
X26259090Y-19574265D01*
X26269950Y-19570700D01*
X26304878Y-19558347D01*
X26329614Y-19547195D01*
X26333450Y-19544725D01*
X26349713Y-19535139D01*
X26352500Y-19534500D01*
X26359254Y-19533345D01*
X26372685Y-19529181D01*
X26397530Y-19520351D01*
X26438529Y-19505195D01*
X26473150Y-19492264D01*
X26513440Y-19477308D01*
X26543363Y-19466418D01*
X26555700Y-19462188D01*
X26571128Y-19456683D01*
X26600565Y-19445251D01*
X26634526Y-19431625D01*
X26657300Y-19422196D01*
X26677632Y-19414246D01*
X26682700Y-19412651D01*
X26696704Y-19407631D01*
X26728263Y-19395625D01*
X26771299Y-19378953D01*
X26784300Y-19373873D01*
X26829853Y-19356796D01*
X26866168Y-19344584D01*
X26886948Y-19339310D01*
X26889075Y-19339345D01*
X26892818Y-19328612D01*
X26895870Y-19297370D01*
X26897905Y-19250506D01*
X26898600Y-19196051D01*
X26897632Y-19137055D01*
X26894978Y-19089959D01*
X26891021Y-19059438D01*
X26886727Y-19050000D01*
X26866520Y-19054173D01*
X26845452Y-19061179D01*
X26819117Y-19070303D01*
X26806392Y-19073622D01*
X26789401Y-19079849D01*
X26761203Y-19093267D01*
X26758900Y-19094450D01*
X26730303Y-19108217D01*
X26712060Y-19115167D01*
X26711409Y-19115279D01*
X26693201Y-19120210D01*
X26670000Y-19128099D01*
X26635036Y-19140668D01*
X26615923Y-19146945D01*
X26604710Y-19149501D01*
X26603192Y-19149726D01*
X26586207Y-19156020D01*
X26557981Y-19169478D01*
X26555567Y-19170719D01*
X26530271Y-19181588D01*
X26517858Y-19182582D01*
X26517600Y-19181708D01*
X26509742Y-19182583D01*
X26492200Y-19196050D01*
X26473873Y-19209962D01*
X26466800Y-19210393D01*
X26457085Y-19209657D01*
X26433256Y-19219153D01*
X26428834Y-19221382D01*
X26402323Y-19234336D01*
X26388017Y-19239888D01*
X26387559Y-19239865D01*
X26374598Y-19243072D01*
X26347054Y-19252409D01*
X26313967Y-19264679D01*
X26289000Y-19274705D01*
X26268677Y-19282544D01*
X26263600Y-19284048D01*
X26248094Y-19290936D01*
X26244550Y-19292979D01*
X26226163Y-19300831D01*
X26192021Y-19313089D01*
X26162000Y-19323050D01*
X26121728Y-19336567D01*
X26090988Y-19347945D01*
X26079450Y-19353122D01*
X26062507Y-19361424D01*
X26060400Y-19362020D01*
X26045329Y-19367147D01*
X26017534Y-19377836D01*
X26015950Y-19378466D01*
X25978945Y-19392915D01*
X25958495Y-19399770D01*
X25947705Y-19401200D01*
X25944877Y-19400809D01*
X25929751Y-19406356D01*
X25919477Y-19413445D01*
X25897955Y-19425028D01*
X25861394Y-19439836D01*
X25831800Y-19450050D01*
X25791496Y-19463850D01*
X25760749Y-19475954D01*
X25749250Y-19481826D01*
X25729778Y-19491348D01*
X25696810Y-19503603D01*
X25685750Y-19507213D01*
X25650873Y-19519000D01*
X25626137Y-19528764D01*
X25622250Y-19530736D01*
X25599493Y-19540017D01*
X25596850Y-19540602D01*
X25577831Y-19546791D01*
X25546255Y-19559251D01*
X25536586Y-19563330D01*
X25505232Y-19576035D01*
X25485058Y-19582884D01*
X25482478Y-19583288D01*
X25467840Y-19588280D01*
X25440968Y-19600979D01*
X25438100Y-19602450D01*
X25409503Y-19616217D01*
X25391260Y-19623167D01*
X25390609Y-19623279D01*
X25371074Y-19628698D01*
X25338372Y-19640052D01*
X25302863Y-19653714D01*
X25298400Y-19655546D01*
X25273741Y-19664602D01*
X25266650Y-19666703D01*
X25247921Y-19673569D01*
X25216130Y-19686883D01*
X25203150Y-19692588D01*
X25170837Y-19706635D01*
X25149512Y-19715270D01*
X25146000Y-19716401D01*
X25132749Y-19723604D01*
X25105581Y-19740803D01*
X25083776Y-19755272D01*
X25047972Y-19779301D01*
X25018517Y-19798871D01*
X25008142Y-19805650D01*
X24978277Y-19828039D01*
X24944733Y-19857805D01*
X24913245Y-19889205D01*
X24889543Y-19916497D01*
X24879360Y-19933940D01*
X24879300Y-19934717D01*
X24872839Y-19950261D01*
X24868501Y-19951700D01*
X24858272Y-19962147D01*
X24841093Y-19989028D01*
X24820524Y-20025651D01*
X24800124Y-20065328D01*
X24783453Y-20101367D01*
X24774070Y-20127078D01*
X24773360Y-20130524D01*
X24765872Y-20155921D01*
X24763215Y-20161250D01*
X24759174Y-20179582D01*
X24755630Y-20215624D01*
X24753331Y-20261687D01*
X24753288Y-20263180D01*
X24750781Y-20352410D01*
X24871281Y-20351932D01*
X24923957Y-20351113D01*
X24966322Y-20349305D01*
X24992481Y-20346820D01*
X24997849Y-20345252D01*
X25002650Y-20330187D01*
X25008606Y-20297932D01*
X25012651Y-20269200D01*
X25019784Y-20227404D01*
X25028729Y-20195034D01*
X25034447Y-20183475D01*
X25041051Y-20169928D01*
X25038050Y-20167600D01*
X25037139Y-20159712D01*
X25045525Y-20147196D01*
X25065423Y-20118518D01*
X25075759Y-20100113D01*
X25094007Y-20076904D01*
X25124636Y-20049283D01*
X25139755Y-20037972D01*
X25179938Y-20011771D01*
X25226938Y-19983988D01*
X25275504Y-19957353D01*
X25320380Y-19934596D01*
X25356314Y-19918448D01*
X25378051Y-19911637D01*
X25381705Y-19912239D01*
X25397772Y-19920553D01*
X25397884Y-19920562D01*
X25412913Y-19925901D01*
X25443990Y-19939275D01*
X25482550Y-19956935D01*
X25523767Y-19975626D01*
X25556708Y-19989381D01*
X25573344Y-19994980D01*
X25595378Y-20004584D01*
X25605094Y-20011502D01*
X25624832Y-20024633D01*
X25631642Y-20027168D01*
X25661764Y-20036022D01*
X25712310Y-20056715D01*
X25742900Y-20070408D01*
X25777152Y-20085646D01*
X25800791Y-20095451D01*
X25806400Y-20097306D01*
X25821265Y-20104016D01*
X25831800Y-20110288D01*
X25855142Y-20121968D01*
X25863550Y-20124393D01*
X25881819Y-20130474D01*
X25913972Y-20143731D01*
X25933400Y-20152362D01*
X26017670Y-20190517D01*
X26090458Y-20223075D01*
X26148949Y-20248799D01*
X26190330Y-20266454D01*
X26211785Y-20274802D01*
X26212800Y-20275098D01*
X26226705Y-20280960D01*
X26256923Y-20294671D01*
X26295350Y-20312535D01*
X26336204Y-20331157D01*
X26368406Y-20344829D01*
X26384250Y-20350381D01*
X26405344Y-20358553D01*
X26416000Y-20364613D01*
X26435544Y-20375554D01*
X26441400Y-20377728D01*
X26455890Y-20383031D01*
X26484845Y-20395233D01*
X26498550Y-20401253D01*
X26556837Y-20426961D01*
X26594768Y-20443243D01*
X26615076Y-20451259D01*
X26619200Y-20452481D01*
X26634090Y-20459571D01*
X26644600Y-20465888D01*
X26667951Y-20477638D01*
X26676350Y-20480120D01*
X26693696Y-20486275D01*
X26726599Y-20500319D01*
X26765250Y-20517966D01*
X26805281Y-20536281D01*
X26835846Y-20549388D01*
X26849917Y-20554339D01*
X26865936Y-20562647D01*
X26867909Y-20564475D01*
X26880501Y-20572794D01*
X26889262Y-20566557D01*
X26894796Y-20543102D01*
X26897706Y-20499768D01*
X26898598Y-20433892D01*
X26898601Y-20429193D01*
X26898601Y-20284385D01*
X26863676Y-20272210D01*
X26863676Y-20272210D01*
G37*
X26863676Y-20272210D02*
X26833995Y-20262428D01*
X26816050Y-20257363D01*
X26796716Y-20247258D01*
X26784300Y-20237450D01*
X26765892Y-20223271D01*
X26758900Y-20220198D01*
X26740553Y-20215023D01*
X26703528Y-20200651D01*
X26652099Y-20178764D01*
X26638250Y-20172653D01*
X26605922Y-20158563D01*
X26584599Y-20149766D01*
X26581100Y-20148550D01*
X26566600Y-20142890D01*
X26537623Y-20130475D01*
X26523950Y-20124448D01*
X26462828Y-20097508D01*
X26422192Y-20080058D01*
X26403336Y-20072653D01*
X26403300Y-20072643D01*
X26388794Y-20066802D01*
X26359807Y-20054278D01*
X26346150Y-20048248D01*
X26283048Y-20020443D01*
X26242795Y-20003221D01*
X26225500Y-19996575D01*
X26211198Y-19990743D01*
X26181830Y-19977780D01*
X26162000Y-19968808D01*
X26107360Y-19944801D01*
X26072863Y-19931944D01*
X26056256Y-19929412D01*
X26055251Y-19929823D01*
X26043485Y-19924398D01*
X26023634Y-19908457D01*
X26004753Y-19894392D01*
X25996900Y-19894550D01*
X25989222Y-19895363D01*
X25974675Y-19884724D01*
X25953644Y-19868459D01*
X25943059Y-19863358D01*
X25914326Y-19855174D01*
X25865574Y-19835377D01*
X25831800Y-19820293D01*
X25797053Y-19805048D01*
X25772403Y-19795339D01*
X25766184Y-19793590D01*
X25750013Y-19787535D01*
X25753530Y-19775723D01*
X25772702Y-19761484D01*
X25803499Y-19748150D01*
X25829617Y-19741177D01*
X25855862Y-19733132D01*
X25867717Y-19728351D01*
X25888969Y-19719252D01*
X25895300Y-19716783D01*
X25912103Y-19710371D01*
X25941850Y-19698584D01*
X25973971Y-19685644D01*
X25996900Y-19676196D01*
X26017257Y-19667858D01*
X26022300Y-19665950D01*
X26038026Y-19659514D01*
X26049884Y-19654350D01*
X26077599Y-19644688D01*
X26087984Y-19642390D01*
X26113354Y-19633601D01*
X26123900Y-19627861D01*
X26153197Y-19615418D01*
X26167354Y-19612090D01*
X26195071Y-19603524D01*
X26205454Y-19597503D01*
X26225642Y-19587045D01*
X26259090Y-19574265D01*
X26269950Y-19570700D01*
X26304878Y-19558347D01*
X26329614Y-19547195D01*
X26333450Y-19544725D01*
X26349713Y-19535139D01*
X26352500Y-19534500D01*
X26359254Y-19533345D01*
X26372685Y-19529181D01*
X26397530Y-19520351D01*
X26438529Y-19505195D01*
X26473150Y-19492264D01*
X26513440Y-19477308D01*
X26543363Y-19466418D01*
X26555700Y-19462188D01*
X26571128Y-19456683D01*
X26600565Y-19445251D01*
X26634526Y-19431625D01*
X26657300Y-19422196D01*
X26677632Y-19414246D01*
X26682700Y-19412651D01*
X26696704Y-19407631D01*
X26728263Y-19395625D01*
X26771299Y-19378953D01*
X26784300Y-19373873D01*
X26829853Y-19356796D01*
X26866168Y-19344584D01*
X26886948Y-19339310D01*
X26889075Y-19339345D01*
X26892818Y-19328612D01*
X26895870Y-19297370D01*
X26897905Y-19250506D01*
X26898600Y-19196051D01*
X26897632Y-19137055D01*
X26894978Y-19089959D01*
X26891021Y-19059438D01*
X26886727Y-19050000D01*
X26866520Y-19054173D01*
X26845452Y-19061179D01*
X26819117Y-19070303D01*
X26806392Y-19073622D01*
X26789401Y-19079849D01*
X26761203Y-19093267D01*
X26758900Y-19094450D01*
X26730303Y-19108217D01*
X26712060Y-19115167D01*
X26711409Y-19115279D01*
X26693201Y-19120210D01*
X26670000Y-19128099D01*
X26635036Y-19140668D01*
X26615923Y-19146945D01*
X26604710Y-19149501D01*
X26603192Y-19149726D01*
X26586207Y-19156020D01*
X26557981Y-19169478D01*
X26555567Y-19170719D01*
X26530271Y-19181588D01*
X26517858Y-19182582D01*
X26517600Y-19181708D01*
X26509742Y-19182583D01*
X26492200Y-19196050D01*
X26473873Y-19209962D01*
X26466800Y-19210393D01*
X26457085Y-19209657D01*
X26433256Y-19219153D01*
X26428834Y-19221382D01*
X26402323Y-19234336D01*
X26388017Y-19239888D01*
X26387559Y-19239865D01*
X26374598Y-19243072D01*
X26347054Y-19252409D01*
X26313967Y-19264679D01*
X26289000Y-19274705D01*
X26268677Y-19282544D01*
X26263600Y-19284048D01*
X26248094Y-19290936D01*
X26244550Y-19292979D01*
X26226163Y-19300831D01*
X26192021Y-19313089D01*
X26162000Y-19323050D01*
X26121728Y-19336567D01*
X26090988Y-19347945D01*
X26079450Y-19353122D01*
X26062507Y-19361424D01*
X26060400Y-19362020D01*
X26045329Y-19367147D01*
X26017534Y-19377836D01*
X26015950Y-19378466D01*
X25978945Y-19392915D01*
X25958495Y-19399770D01*
X25947705Y-19401200D01*
X25944877Y-19400809D01*
X25929751Y-19406356D01*
X25919477Y-19413445D01*
X25897955Y-19425028D01*
X25861394Y-19439836D01*
X25831800Y-19450050D01*
X25791496Y-19463850D01*
X25760749Y-19475954D01*
X25749250Y-19481826D01*
X25729778Y-19491348D01*
X25696810Y-19503603D01*
X25685750Y-19507213D01*
X25650873Y-19519000D01*
X25626137Y-19528764D01*
X25622250Y-19530736D01*
X25599493Y-19540017D01*
X25596850Y-19540602D01*
X25577831Y-19546791D01*
X25546255Y-19559251D01*
X25536586Y-19563330D01*
X25505232Y-19576035D01*
X25485058Y-19582884D01*
X25482478Y-19583288D01*
X25467840Y-19588280D01*
X25440968Y-19600979D01*
X25438100Y-19602450D01*
X25409503Y-19616217D01*
X25391260Y-19623167D01*
X25390609Y-19623279D01*
X25371074Y-19628698D01*
X25338372Y-19640052D01*
X25302863Y-19653714D01*
X25298400Y-19655546D01*
X25273741Y-19664602D01*
X25266650Y-19666703D01*
X25247921Y-19673569D01*
X25216130Y-19686883D01*
X25203150Y-19692588D01*
X25170837Y-19706635D01*
X25149512Y-19715270D01*
X25146000Y-19716401D01*
X25132749Y-19723604D01*
X25105581Y-19740803D01*
X25083776Y-19755272D01*
X25047972Y-19779301D01*
X25018517Y-19798871D01*
X25008142Y-19805650D01*
X24978277Y-19828039D01*
X24944733Y-19857805D01*
X24913245Y-19889205D01*
X24889543Y-19916497D01*
X24879360Y-19933940D01*
X24879300Y-19934717D01*
X24872839Y-19950261D01*
X24868501Y-19951700D01*
X24858272Y-19962147D01*
X24841093Y-19989028D01*
X24820524Y-20025651D01*
X24800124Y-20065328D01*
X24783453Y-20101367D01*
X24774070Y-20127078D01*
X24773360Y-20130524D01*
X24765872Y-20155921D01*
X24763215Y-20161250D01*
X24759174Y-20179582D01*
X24755630Y-20215624D01*
X24753331Y-20261687D01*
X24753288Y-20263180D01*
X24750781Y-20352410D01*
X24871281Y-20351932D01*
X24923957Y-20351113D01*
X24966322Y-20349305D01*
X24992481Y-20346820D01*
X24997849Y-20345252D01*
X25002650Y-20330187D01*
X25008606Y-20297932D01*
X25012651Y-20269200D01*
X25019784Y-20227404D01*
X25028729Y-20195034D01*
X25034447Y-20183475D01*
X25041051Y-20169928D01*
X25038050Y-20167600D01*
X25037139Y-20159712D01*
X25045525Y-20147196D01*
X25065423Y-20118518D01*
X25075759Y-20100113D01*
X25094007Y-20076904D01*
X25124636Y-20049283D01*
X25139755Y-20037972D01*
X25179938Y-20011771D01*
X25226938Y-19983988D01*
X25275504Y-19957353D01*
X25320380Y-19934596D01*
X25356314Y-19918448D01*
X25378051Y-19911637D01*
X25381705Y-19912239D01*
X25397772Y-19920553D01*
X25397884Y-19920562D01*
X25412913Y-19925901D01*
X25443990Y-19939275D01*
X25482550Y-19956935D01*
X25523767Y-19975626D01*
X25556708Y-19989381D01*
X25573344Y-19994980D01*
X25595378Y-20004584D01*
X25605094Y-20011502D01*
X25624832Y-20024633D01*
X25631642Y-20027168D01*
X25661764Y-20036022D01*
X25712310Y-20056715D01*
X25742900Y-20070408D01*
X25777152Y-20085646D01*
X25800791Y-20095451D01*
X25806400Y-20097306D01*
X25821265Y-20104016D01*
X25831800Y-20110288D01*
X25855142Y-20121968D01*
X25863550Y-20124393D01*
X25881819Y-20130474D01*
X25913972Y-20143731D01*
X25933400Y-20152362D01*
X26017670Y-20190517D01*
X26090458Y-20223075D01*
X26148949Y-20248799D01*
X26190330Y-20266454D01*
X26211785Y-20274802D01*
X26212800Y-20275098D01*
X26226705Y-20280960D01*
X26256923Y-20294671D01*
X26295350Y-20312535D01*
X26336204Y-20331157D01*
X26368406Y-20344829D01*
X26384250Y-20350381D01*
X26405344Y-20358553D01*
X26416000Y-20364613D01*
X26435544Y-20375554D01*
X26441400Y-20377728D01*
X26455890Y-20383031D01*
X26484845Y-20395233D01*
X26498550Y-20401253D01*
X26556837Y-20426961D01*
X26594768Y-20443243D01*
X26615076Y-20451259D01*
X26619200Y-20452481D01*
X26634090Y-20459571D01*
X26644600Y-20465888D01*
X26667951Y-20477638D01*
X26676350Y-20480120D01*
X26693696Y-20486275D01*
X26726599Y-20500319D01*
X26765250Y-20517966D01*
X26805281Y-20536281D01*
X26835846Y-20549388D01*
X26849917Y-20554339D01*
X26865936Y-20562647D01*
X26867909Y-20564475D01*
X26880501Y-20572794D01*
X26889262Y-20566557D01*
X26894796Y-20543102D01*
X26897706Y-20499768D01*
X26898598Y-20433892D01*
X26898601Y-20429193D01*
X26898601Y-20284385D01*
X26863676Y-20272210D01*
G36*
X25088850Y-20091400D02*
X25082500Y-20097750D01*
X25088850Y-20104100D01*
X25095200Y-20097750D01*
X25088850Y-20091400D01*
X25088850Y-20091400D01*
G37*
X25088850Y-20091400D02*
X25082500Y-20097750D01*
X25088850Y-20104100D01*
X25095200Y-20097750D01*
X25088850Y-20091400D01*
G36*
X25709906Y-18868701D02*
X25703940Y-18839039D01*
X25689050Y-18814363D01*
X25661144Y-18784472D01*
X25658021Y-18781344D01*
X25624632Y-18750505D01*
X25596714Y-18734103D01*
X25563431Y-18727100D01*
X25537610Y-18725370D01*
X25475455Y-18728537D01*
X25425623Y-18747157D01*
X25378495Y-18785147D01*
X25370332Y-18793528D01*
X25342777Y-18838121D01*
X25327854Y-18894735D01*
X25326996Y-18953015D01*
X25341415Y-19002194D01*
X25362352Y-19038270D01*
X25381541Y-19066992D01*
X25395301Y-19083284D01*
X25400000Y-19083021D01*
X25407833Y-19081066D01*
X25420289Y-19089128D01*
X25458273Y-19108288D01*
X25507582Y-19117363D01*
X25558426Y-19116093D01*
X25601014Y-19104219D01*
X25616031Y-19094333D01*
X25634219Y-19081337D01*
X25641300Y-19082730D01*
X25647585Y-19080058D01*
X25663653Y-19060870D01*
X25676225Y-19043424D01*
X25697006Y-19008328D01*
X25707571Y-18973397D01*
X25710956Y-18927303D01*
X25711038Y-18913550D01*
X25709906Y-18868701D01*
X25709906Y-18868701D01*
G37*
X25709906Y-18868701D02*
X25703940Y-18839039D01*
X25689050Y-18814363D01*
X25661144Y-18784472D01*
X25658021Y-18781344D01*
X25624632Y-18750505D01*
X25596714Y-18734103D01*
X25563431Y-18727100D01*
X25537610Y-18725370D01*
X25475455Y-18728537D01*
X25425623Y-18747157D01*
X25378495Y-18785147D01*
X25370332Y-18793528D01*
X25342777Y-18838121D01*
X25327854Y-18894735D01*
X25326996Y-18953015D01*
X25341415Y-19002194D01*
X25362352Y-19038270D01*
X25381541Y-19066992D01*
X25395301Y-19083284D01*
X25400000Y-19083021D01*
X25407833Y-19081066D01*
X25420289Y-19089128D01*
X25458273Y-19108288D01*
X25507582Y-19117363D01*
X25558426Y-19116093D01*
X25601014Y-19104219D01*
X25616031Y-19094333D01*
X25634219Y-19081337D01*
X25641300Y-19082730D01*
X25647585Y-19080058D01*
X25663653Y-19060870D01*
X25676225Y-19043424D01*
X25697006Y-19008328D01*
X25707571Y-18973397D01*
X25710956Y-18927303D01*
X25711038Y-18913550D01*
X25709906Y-18868701D01*
G36*
X26930162Y-17676049D02*
X26923280Y-17595286D01*
X26907616Y-17523282D01*
X26881238Y-17451955D01*
X26842214Y-17373226D01*
X26828448Y-17348200D01*
X26812919Y-17326933D01*
X26785440Y-17295065D01*
X26750425Y-17257117D01*
X26712286Y-17217610D01*
X26675437Y-17181064D01*
X26644290Y-17151999D01*
X26623258Y-17134934D01*
X26617668Y-17132300D01*
X26601833Y-17125726D01*
X26573938Y-17109203D01*
X26561661Y-17101106D01*
X26518548Y-17076615D01*
X26462319Y-17050823D01*
X26403989Y-17028311D01*
X26354573Y-17013659D01*
X26348161Y-17012337D01*
X26326524Y-17007418D01*
X26320750Y-17004984D01*
X26309062Y-17000561D01*
X26278031Y-16996862D01*
X26233706Y-16994026D01*
X26182138Y-16992193D01*
X26129378Y-16991504D01*
X26081475Y-16992099D01*
X26044478Y-16994116D01*
X26024440Y-16997698D01*
X26023656Y-16998113D01*
X26020143Y-17009347D01*
X26017176Y-17039033D01*
X26014732Y-17088180D01*
X26012791Y-17157796D01*
X26011329Y-17248890D01*
X26010325Y-17362472D01*
X26009757Y-17499549D01*
X26009600Y-17641231D01*
X26009600Y-18275663D01*
X25968845Y-18268483D01*
X25935127Y-18259372D01*
X25911695Y-18247696D01*
X25897783Y-18239530D01*
X25895300Y-18241242D01*
X25886317Y-18243156D01*
X25862790Y-18232402D01*
X25829852Y-18212375D01*
X25792636Y-18186470D01*
X25756276Y-18158081D01*
X25725904Y-18130602D01*
X25722198Y-18126785D01*
X25698326Y-18096318D01*
X25670342Y-18053034D01*
X25642903Y-18005106D01*
X25620664Y-17960707D01*
X25608282Y-17928012D01*
X25607837Y-17926050D01*
X25603516Y-17903622D01*
X25600656Y-17887950D01*
X25592967Y-17860322D01*
X25587875Y-17849372D01*
X25584174Y-17830908D01*
X25581801Y-17794365D01*
X25580733Y-17747028D01*
X25580945Y-17696181D01*
X25582412Y-17649110D01*
X25585109Y-17613099D01*
X25588739Y-17595850D01*
X25596938Y-17573055D01*
X25599849Y-17559149D01*
X25611781Y-17518980D01*
X25633630Y-17470751D01*
X25659504Y-17426287D01*
X25677825Y-17402707D01*
X25696866Y-17380627D01*
X25704800Y-17366884D01*
X25704800Y-17366874D01*
X25712725Y-17352638D01*
X25723850Y-17340036D01*
X25738834Y-17327809D01*
X25742900Y-17328159D01*
X25751080Y-17325939D01*
X25770991Y-17310890D01*
X25773175Y-17309009D01*
X25793085Y-17288712D01*
X25795567Y-17270521D01*
X25785070Y-17245846D01*
X25769067Y-17218159D01*
X25755878Y-17202329D01*
X25755610Y-17202156D01*
X25744481Y-17187817D01*
X25726883Y-17157578D01*
X25710609Y-17125982D01*
X25690385Y-17087537D01*
X25673380Y-17069039D01*
X25653683Y-17069783D01*
X25625386Y-17089065D01*
X25598050Y-17112549D01*
X25571717Y-17133471D01*
X25552880Y-17144497D01*
X25550425Y-17145000D01*
X25541188Y-17155446D01*
X25539700Y-17166167D01*
X25536076Y-17180349D01*
X25531839Y-17179472D01*
X25518493Y-17180571D01*
X25501341Y-17194680D01*
X25489842Y-17213147D01*
X25488900Y-17218738D01*
X25480183Y-17236192D01*
X25470414Y-17246133D01*
X25455283Y-17265599D01*
X25434259Y-17300986D01*
X25410903Y-17345155D01*
X25388774Y-17390970D01*
X25371433Y-17431295D01*
X25362439Y-17458990D01*
X25361900Y-17463671D01*
X25356870Y-17486737D01*
X25353066Y-17492501D01*
X25346124Y-17502790D01*
X25340981Y-17520363D01*
X25337200Y-17549246D01*
X25334347Y-17593461D01*
X25331984Y-17657035D01*
X25330847Y-17697450D01*
X25330126Y-17763505D01*
X25331246Y-17826111D01*
X25333968Y-17877590D01*
X25337387Y-17907000D01*
X25348560Y-17965605D01*
X25357496Y-18005870D01*
X25366139Y-18034510D01*
X25376432Y-18058238D01*
X25386664Y-18077317D01*
X25400750Y-18106072D01*
X25405804Y-18124211D01*
X25405143Y-18126224D01*
X25408611Y-18137680D01*
X25418744Y-18148046D01*
X25434999Y-18168659D01*
X25438100Y-18179637D01*
X25446753Y-18199117D01*
X25463500Y-18218150D01*
X25482540Y-18240457D01*
X25488900Y-18256072D01*
X25497538Y-18271487D01*
X25520368Y-18298566D01*
X25552768Y-18331908D01*
X25558750Y-18337672D01*
X25591711Y-18367969D01*
X25616292Y-18388353D01*
X25628136Y-18395273D01*
X25628600Y-18394593D01*
X25636552Y-18396270D01*
X25656559Y-18411987D01*
X25666700Y-18421350D01*
X25689901Y-18441352D01*
X25703403Y-18448685D01*
X25704800Y-18447158D01*
X25712629Y-18445751D01*
X25727025Y-18455552D01*
X25757071Y-18475747D01*
X25785861Y-18486846D01*
X25793700Y-18487438D01*
X25808438Y-18492382D01*
X25829450Y-18502642D01*
X25860452Y-18516579D01*
X25880250Y-18522778D01*
X25905954Y-18528359D01*
X25943275Y-18536767D01*
X25953828Y-18539186D01*
X25991861Y-18544420D01*
X26046156Y-18547448D01*
X26110208Y-18548401D01*
X26177508Y-18547411D01*
X26238200Y-18544757D01*
X26238200Y-18276826D01*
X26238200Y-17767207D01*
X26238228Y-17640187D01*
X26238387Y-17536290D01*
X26238792Y-17453239D01*
X26239557Y-17388756D01*
X26240799Y-17340563D01*
X26242632Y-17306385D01*
X26245169Y-17283942D01*
X26248527Y-17270959D01*
X26252821Y-17265159D01*
X26258164Y-17264262D01*
X26263492Y-17265616D01*
X26295858Y-17274149D01*
X26323422Y-17279924D01*
X26355347Y-17289398D01*
X26374331Y-17299708D01*
X26388169Y-17307790D01*
X26390600Y-17306059D01*
X26399728Y-17305720D01*
X26423267Y-17317010D01*
X26455455Y-17336128D01*
X26490529Y-17359272D01*
X26522725Y-17382642D01*
X26546280Y-17402435D01*
X26555429Y-17414779D01*
X26563189Y-17430047D01*
X26581571Y-17453956D01*
X26582405Y-17454920D01*
X26599526Y-17477723D01*
X26604840Y-17491388D01*
X26604630Y-17491783D01*
X26608428Y-17504774D01*
X26620577Y-17521492D01*
X26635393Y-17544053D01*
X26649676Y-17573933D01*
X26660296Y-17603006D01*
X26664126Y-17623147D01*
X26661435Y-17627600D01*
X26661711Y-17635342D01*
X26667776Y-17643971D01*
X26673176Y-17663292D01*
X26676320Y-17700652D01*
X26677251Y-17748792D01*
X26676013Y-17800455D01*
X26672649Y-17848383D01*
X26667202Y-17885318D01*
X26666308Y-17889075D01*
X26645951Y-17960615D01*
X26626797Y-18009664D01*
X26607712Y-18039022D01*
X26604552Y-18042114D01*
X26586551Y-18062242D01*
X26581100Y-18073972D01*
X26571488Y-18094067D01*
X26546904Y-18122293D01*
X26513724Y-18153161D01*
X26478328Y-18181177D01*
X26447093Y-18200852D01*
X26426859Y-18206781D01*
X26412496Y-18213426D01*
X26391934Y-18229644D01*
X26373007Y-18244182D01*
X26365200Y-18245072D01*
X26355876Y-18243465D01*
X26338050Y-18250838D01*
X26304302Y-18263995D01*
X26274550Y-18271097D01*
X26238200Y-18276826D01*
X26238200Y-18544757D01*
X26241551Y-18544610D01*
X26295829Y-18540129D01*
X26333836Y-18534101D01*
X26342975Y-18531305D01*
X26367497Y-18523265D01*
X26377898Y-18523513D01*
X26377900Y-18523591D01*
X26387670Y-18522781D01*
X26411626Y-18512471D01*
X26416000Y-18510250D01*
X26441351Y-18499346D01*
X26453830Y-18498304D01*
X26454100Y-18499193D01*
X26461959Y-18498318D01*
X26479500Y-18484850D01*
X26497778Y-18471471D01*
X26504900Y-18472150D01*
X26512624Y-18472800D01*
X26528156Y-18461391D01*
X26547994Y-18447715D01*
X26557867Y-18446801D01*
X26569913Y-18443408D01*
X26587380Y-18427778D01*
X26608451Y-18408801D01*
X26622085Y-18402300D01*
X26639760Y-18393220D01*
X26668729Y-18369146D01*
X26704310Y-18334833D01*
X26741820Y-18295033D01*
X26776576Y-18254498D01*
X26803895Y-18217983D01*
X26804332Y-18217328D01*
X26841407Y-18156098D01*
X26873134Y-18093390D01*
X26895696Y-18037267D01*
X26903815Y-18007202D01*
X26908754Y-17984096D01*
X26911328Y-17976850D01*
X26917197Y-17964440D01*
X26922321Y-17928354D01*
X26926539Y-17870310D01*
X26929694Y-17792026D01*
X26930194Y-17773650D01*
X26930162Y-17676049D01*
X26930162Y-17676049D01*
G37*
X26930162Y-17676049D02*
X26923280Y-17595286D01*
X26907616Y-17523282D01*
X26881238Y-17451955D01*
X26842214Y-17373226D01*
X26828448Y-17348200D01*
X26812919Y-17326933D01*
X26785440Y-17295065D01*
X26750425Y-17257117D01*
X26712286Y-17217610D01*
X26675437Y-17181064D01*
X26644290Y-17151999D01*
X26623258Y-17134934D01*
X26617668Y-17132300D01*
X26601833Y-17125726D01*
X26573938Y-17109203D01*
X26561661Y-17101106D01*
X26518548Y-17076615D01*
X26462319Y-17050823D01*
X26403989Y-17028311D01*
X26354573Y-17013659D01*
X26348161Y-17012337D01*
X26326524Y-17007418D01*
X26320750Y-17004984D01*
X26309062Y-17000561D01*
X26278031Y-16996862D01*
X26233706Y-16994026D01*
X26182138Y-16992193D01*
X26129378Y-16991504D01*
X26081475Y-16992099D01*
X26044478Y-16994116D01*
X26024440Y-16997698D01*
X26023656Y-16998113D01*
X26020143Y-17009347D01*
X26017176Y-17039033D01*
X26014732Y-17088180D01*
X26012791Y-17157796D01*
X26011329Y-17248890D01*
X26010325Y-17362472D01*
X26009757Y-17499549D01*
X26009600Y-17641231D01*
X26009600Y-18275663D01*
X25968845Y-18268483D01*
X25935127Y-18259372D01*
X25911695Y-18247696D01*
X25897783Y-18239530D01*
X25895300Y-18241242D01*
X25886317Y-18243156D01*
X25862790Y-18232402D01*
X25829852Y-18212375D01*
X25792636Y-18186470D01*
X25756276Y-18158081D01*
X25725904Y-18130602D01*
X25722198Y-18126785D01*
X25698326Y-18096318D01*
X25670342Y-18053034D01*
X25642903Y-18005106D01*
X25620664Y-17960707D01*
X25608282Y-17928012D01*
X25607837Y-17926050D01*
X25603516Y-17903622D01*
X25600656Y-17887950D01*
X25592967Y-17860322D01*
X25587875Y-17849372D01*
X25584174Y-17830908D01*
X25581801Y-17794365D01*
X25580733Y-17747028D01*
X25580945Y-17696181D01*
X25582412Y-17649110D01*
X25585109Y-17613099D01*
X25588739Y-17595850D01*
X25596938Y-17573055D01*
X25599849Y-17559149D01*
X25611781Y-17518980D01*
X25633630Y-17470751D01*
X25659504Y-17426287D01*
X25677825Y-17402707D01*
X25696866Y-17380627D01*
X25704800Y-17366884D01*
X25704800Y-17366874D01*
X25712725Y-17352638D01*
X25723850Y-17340036D01*
X25738834Y-17327809D01*
X25742900Y-17328159D01*
X25751080Y-17325939D01*
X25770991Y-17310890D01*
X25773175Y-17309009D01*
X25793085Y-17288712D01*
X25795567Y-17270521D01*
X25785070Y-17245846D01*
X25769067Y-17218159D01*
X25755878Y-17202329D01*
X25755610Y-17202156D01*
X25744481Y-17187817D01*
X25726883Y-17157578D01*
X25710609Y-17125982D01*
X25690385Y-17087537D01*
X25673380Y-17069039D01*
X25653683Y-17069783D01*
X25625386Y-17089065D01*
X25598050Y-17112549D01*
X25571717Y-17133471D01*
X25552880Y-17144497D01*
X25550425Y-17145000D01*
X25541188Y-17155446D01*
X25539700Y-17166167D01*
X25536076Y-17180349D01*
X25531839Y-17179472D01*
X25518493Y-17180571D01*
X25501341Y-17194680D01*
X25489842Y-17213147D01*
X25488900Y-17218738D01*
X25480183Y-17236192D01*
X25470414Y-17246133D01*
X25455283Y-17265599D01*
X25434259Y-17300986D01*
X25410903Y-17345155D01*
X25388774Y-17390970D01*
X25371433Y-17431295D01*
X25362439Y-17458990D01*
X25361900Y-17463671D01*
X25356870Y-17486737D01*
X25353066Y-17492501D01*
X25346124Y-17502790D01*
X25340981Y-17520363D01*
X25337200Y-17549246D01*
X25334347Y-17593461D01*
X25331984Y-17657035D01*
X25330847Y-17697450D01*
X25330126Y-17763505D01*
X25331246Y-17826111D01*
X25333968Y-17877590D01*
X25337387Y-17907000D01*
X25348560Y-17965605D01*
X25357496Y-18005870D01*
X25366139Y-18034510D01*
X25376432Y-18058238D01*
X25386664Y-18077317D01*
X25400750Y-18106072D01*
X25405804Y-18124211D01*
X25405143Y-18126224D01*
X25408611Y-18137680D01*
X25418744Y-18148046D01*
X25434999Y-18168659D01*
X25438100Y-18179637D01*
X25446753Y-18199117D01*
X25463500Y-18218150D01*
X25482540Y-18240457D01*
X25488900Y-18256072D01*
X25497538Y-18271487D01*
X25520368Y-18298566D01*
X25552768Y-18331908D01*
X25558750Y-18337672D01*
X25591711Y-18367969D01*
X25616292Y-18388353D01*
X25628136Y-18395273D01*
X25628600Y-18394593D01*
X25636552Y-18396270D01*
X25656559Y-18411987D01*
X25666700Y-18421350D01*
X25689901Y-18441352D01*
X25703403Y-18448685D01*
X25704800Y-18447158D01*
X25712629Y-18445751D01*
X25727025Y-18455552D01*
X25757071Y-18475747D01*
X25785861Y-18486846D01*
X25793700Y-18487438D01*
X25808438Y-18492382D01*
X25829450Y-18502642D01*
X25860452Y-18516579D01*
X25880250Y-18522778D01*
X25905954Y-18528359D01*
X25943275Y-18536767D01*
X25953828Y-18539186D01*
X25991861Y-18544420D01*
X26046156Y-18547448D01*
X26110208Y-18548401D01*
X26177508Y-18547411D01*
X26238200Y-18544757D01*
X26238200Y-18276826D01*
X26238200Y-17767207D01*
X26238228Y-17640187D01*
X26238387Y-17536290D01*
X26238792Y-17453239D01*
X26239557Y-17388756D01*
X26240799Y-17340563D01*
X26242632Y-17306385D01*
X26245169Y-17283942D01*
X26248527Y-17270959D01*
X26252821Y-17265159D01*
X26258164Y-17264262D01*
X26263492Y-17265616D01*
X26295858Y-17274149D01*
X26323422Y-17279924D01*
X26355347Y-17289398D01*
X26374331Y-17299708D01*
X26388169Y-17307790D01*
X26390600Y-17306059D01*
X26399728Y-17305720D01*
X26423267Y-17317010D01*
X26455455Y-17336128D01*
X26490529Y-17359272D01*
X26522725Y-17382642D01*
X26546280Y-17402435D01*
X26555429Y-17414779D01*
X26563189Y-17430047D01*
X26581571Y-17453956D01*
X26582405Y-17454920D01*
X26599526Y-17477723D01*
X26604840Y-17491388D01*
X26604630Y-17491783D01*
X26608428Y-17504774D01*
X26620577Y-17521492D01*
X26635393Y-17544053D01*
X26649676Y-17573933D01*
X26660296Y-17603006D01*
X26664126Y-17623147D01*
X26661435Y-17627600D01*
X26661711Y-17635342D01*
X26667776Y-17643971D01*
X26673176Y-17663292D01*
X26676320Y-17700652D01*
X26677251Y-17748792D01*
X26676013Y-17800455D01*
X26672649Y-17848383D01*
X26667202Y-17885318D01*
X26666308Y-17889075D01*
X26645951Y-17960615D01*
X26626797Y-18009664D01*
X26607712Y-18039022D01*
X26604552Y-18042114D01*
X26586551Y-18062242D01*
X26581100Y-18073972D01*
X26571488Y-18094067D01*
X26546904Y-18122293D01*
X26513724Y-18153161D01*
X26478328Y-18181177D01*
X26447093Y-18200852D01*
X26426859Y-18206781D01*
X26412496Y-18213426D01*
X26391934Y-18229644D01*
X26373007Y-18244182D01*
X26365200Y-18245072D01*
X26355876Y-18243465D01*
X26338050Y-18250838D01*
X26304302Y-18263995D01*
X26274550Y-18271097D01*
X26238200Y-18276826D01*
X26238200Y-18544757D01*
X26241551Y-18544610D01*
X26295829Y-18540129D01*
X26333836Y-18534101D01*
X26342975Y-18531305D01*
X26367497Y-18523265D01*
X26377898Y-18523513D01*
X26377900Y-18523591D01*
X26387670Y-18522781D01*
X26411626Y-18512471D01*
X26416000Y-18510250D01*
X26441351Y-18499346D01*
X26453830Y-18498304D01*
X26454100Y-18499193D01*
X26461959Y-18498318D01*
X26479500Y-18484850D01*
X26497778Y-18471471D01*
X26504900Y-18472150D01*
X26512624Y-18472800D01*
X26528156Y-18461391D01*
X26547994Y-18447715D01*
X26557867Y-18446801D01*
X26569913Y-18443408D01*
X26587380Y-18427778D01*
X26608451Y-18408801D01*
X26622085Y-18402300D01*
X26639760Y-18393220D01*
X26668729Y-18369146D01*
X26704310Y-18334833D01*
X26741820Y-18295033D01*
X26776576Y-18254498D01*
X26803895Y-18217983D01*
X26804332Y-18217328D01*
X26841407Y-18156098D01*
X26873134Y-18093390D01*
X26895696Y-18037267D01*
X26903815Y-18007202D01*
X26908754Y-17984096D01*
X26911328Y-17976850D01*
X26917197Y-17964440D01*
X26922321Y-17928354D01*
X26926539Y-17870310D01*
X26929694Y-17792026D01*
X26930194Y-17773650D01*
X26930162Y-17676049D01*
G36*
X26925119Y-16141263D02*
X26899342Y-16022078D01*
X26852688Y-15916997D01*
X26784933Y-15825524D01*
X26695850Y-15747163D01*
X26688088Y-15741650D01*
X26644008Y-15714065D01*
X26616718Y-15704651D01*
X26606563Y-15713519D01*
X26606500Y-15715105D01*
X26597558Y-15736980D01*
X26587407Y-15748037D01*
X26572282Y-15767255D01*
X26551502Y-15801916D01*
X26531111Y-15841395D01*
X26509646Y-15894239D01*
X26504978Y-15929222D01*
X26517159Y-15947580D01*
X26535714Y-15951200D01*
X26557626Y-15961550D01*
X26585709Y-15988287D01*
X26615051Y-16024947D01*
X26640740Y-16065064D01*
X26657862Y-16102172D01*
X26661570Y-16116844D01*
X26668850Y-16142340D01*
X26671596Y-16148050D01*
X26678710Y-16175736D01*
X26681212Y-16219406D01*
X26679394Y-16270121D01*
X26673546Y-16318945D01*
X26664885Y-16354425D01*
X26654834Y-16386481D01*
X26651329Y-16405820D01*
X26652469Y-16408400D01*
X26648208Y-16416641D01*
X26630300Y-16438031D01*
X26608189Y-16462023D01*
X26577203Y-16492607D01*
X26552246Y-16508619D01*
X26522774Y-16514735D01*
X26487232Y-16515645D01*
X26441064Y-16513155D01*
X26409805Y-16503630D01*
X26383551Y-16484248D01*
X26357215Y-16455708D01*
X26339020Y-16428979D01*
X26338295Y-16427450D01*
X26323901Y-16399356D01*
X26304073Y-16364555D01*
X26301800Y-16360775D01*
X26287684Y-16334560D01*
X26283437Y-16320343D01*
X26284464Y-16319500D01*
X26284453Y-16311744D01*
X26278108Y-16302629D01*
X26264540Y-16276242D01*
X26259947Y-16258506D01*
X26252857Y-16232613D01*
X26246994Y-16222461D01*
X26239857Y-16203833D01*
X26238200Y-16186150D01*
X26234202Y-16159775D01*
X26228675Y-16149109D01*
X26219085Y-16132938D01*
X26218845Y-16131117D01*
X26214815Y-16108631D01*
X26205458Y-16071819D01*
X26193562Y-16030420D01*
X26181917Y-15994176D01*
X26173739Y-15973598D01*
X26163625Y-15945015D01*
X26162000Y-15932150D01*
X26152464Y-15899982D01*
X26126966Y-15858338D01*
X26090175Y-15812561D01*
X26046762Y-15767994D01*
X26001393Y-15729978D01*
X25965295Y-15707070D01*
X25884722Y-15678334D01*
X25793505Y-15667302D01*
X25699231Y-15673991D01*
X25609487Y-15698419D01*
X25591071Y-15706190D01*
X25561358Y-15723645D01*
X25525599Y-15750147D01*
X25489703Y-15780525D01*
X25459577Y-15809608D01*
X25441129Y-15832227D01*
X25438100Y-15840076D01*
X25430254Y-15856267D01*
X25413762Y-15876787D01*
X25392305Y-15907761D01*
X25381911Y-15932845D01*
X25371220Y-15967677D01*
X25359848Y-15998265D01*
X25347476Y-16030457D01*
X25340052Y-16052800D01*
X25337322Y-16074743D01*
X25334904Y-16115613D01*
X25332933Y-16168940D01*
X25331540Y-16228254D01*
X25330860Y-16287082D01*
X25331025Y-16338953D01*
X25332169Y-16377398D01*
X25333124Y-16389350D01*
X25338897Y-16423471D01*
X25345315Y-16446500D01*
X25354533Y-16474359D01*
X25356502Y-16482496D01*
X25365953Y-16509737D01*
X25383680Y-16548217D01*
X25405309Y-16589638D01*
X25426465Y-16625699D01*
X25442775Y-16648098D01*
X25444742Y-16649943D01*
X25460663Y-16670463D01*
X25463500Y-16680965D01*
X25472553Y-16698027D01*
X25495835Y-16723459D01*
X25527533Y-16752425D01*
X25561834Y-16780088D01*
X25592924Y-16801612D01*
X25614991Y-16812158D01*
X25620783Y-16811830D01*
X25632798Y-16816733D01*
X25650606Y-16830778D01*
X25669942Y-16845471D01*
X25684197Y-16841979D01*
X25698357Y-16827603D01*
X25711712Y-16809286D01*
X25710905Y-16802100D01*
X25710651Y-16794102D01*
X25724456Y-16774731D01*
X25725507Y-16773525D01*
X25748625Y-16741951D01*
X25771069Y-16702820D01*
X25789456Y-16663364D01*
X25800404Y-16630814D01*
X25800731Y-16612702D01*
X25782212Y-16599612D01*
X25776946Y-16598900D01*
X25758091Y-16590884D01*
X25731961Y-16571251D01*
X25728261Y-16567902D01*
X25704468Y-16549497D01*
X25688622Y-16543819D01*
X25687115Y-16544619D01*
X25680479Y-16541615D01*
X25679400Y-16532722D01*
X25670351Y-16508610D01*
X25660116Y-16497106D01*
X25640878Y-16473337D01*
X25620068Y-16437020D01*
X25603841Y-16399806D01*
X25598689Y-16380812D01*
X25591075Y-16355638D01*
X25588867Y-16351250D01*
X25584345Y-16331137D01*
X25581653Y-16294721D01*
X25580710Y-16249259D01*
X25581438Y-16202008D01*
X25583758Y-16160226D01*
X25587590Y-16131167D01*
X25591363Y-16122118D01*
X25601273Y-16104856D01*
X25604129Y-16086976D01*
X25615908Y-16043366D01*
X25644128Y-15999326D01*
X25682119Y-15964961D01*
X25686415Y-15962319D01*
X25719876Y-15949080D01*
X25760662Y-15941328D01*
X25800029Y-15939689D01*
X25829235Y-15944792D01*
X25838279Y-15951408D01*
X25853002Y-15959050D01*
X25857288Y-15957496D01*
X25869504Y-15963513D01*
X25889638Y-15986528D01*
X25914122Y-16020885D01*
X25939389Y-16060927D01*
X25961870Y-16100999D01*
X25977997Y-16135444D01*
X25984200Y-16158607D01*
X25984200Y-16158668D01*
X25988586Y-16174056D01*
X25999011Y-16201199D01*
X26009915Y-16228421D01*
X26015192Y-16243300D01*
X26021224Y-16267743D01*
X26031139Y-16304948D01*
X26042280Y-16345274D01*
X26051989Y-16379077D01*
X26057210Y-16395700D01*
X26065835Y-16423720D01*
X26067691Y-16431617D01*
X26075695Y-16457920D01*
X26080380Y-16469717D01*
X26090854Y-16499722D01*
X26093632Y-16510901D01*
X26112253Y-16560044D01*
X26146614Y-16614320D01*
X26191451Y-16668112D01*
X26241502Y-16715802D01*
X26291502Y-16751772D01*
X26336190Y-16770404D01*
X26336880Y-16770540D01*
X26355540Y-16775042D01*
X26358850Y-16776700D01*
X26370160Y-16781428D01*
X26398715Y-16786948D01*
X26436452Y-16791885D01*
X26460450Y-16794018D01*
X26542899Y-16789580D01*
X26628068Y-16766835D01*
X26639816Y-16762187D01*
X26668549Y-16751183D01*
X26686117Y-16746015D01*
X26701417Y-16736483D01*
X26728157Y-16713152D01*
X26761078Y-16681359D01*
X26794921Y-16646444D01*
X26824426Y-16613745D01*
X26844334Y-16588600D01*
X26848952Y-16580743D01*
X26864233Y-16550300D01*
X26873178Y-16535400D01*
X26888074Y-16507057D01*
X26904988Y-16466720D01*
X26918801Y-16426773D01*
X26920421Y-16421100D01*
X26923087Y-16400790D01*
X26926029Y-16361591D01*
X26928809Y-16310007D01*
X26930245Y-16275050D01*
X26925119Y-16141263D01*
X26925119Y-16141263D01*
G37*
X26925119Y-16141263D02*
X26899342Y-16022078D01*
X26852688Y-15916997D01*
X26784933Y-15825524D01*
X26695850Y-15747163D01*
X26688088Y-15741650D01*
X26644008Y-15714065D01*
X26616718Y-15704651D01*
X26606563Y-15713519D01*
X26606500Y-15715105D01*
X26597558Y-15736980D01*
X26587407Y-15748037D01*
X26572282Y-15767255D01*
X26551502Y-15801916D01*
X26531111Y-15841395D01*
X26509646Y-15894239D01*
X26504978Y-15929222D01*
X26517159Y-15947580D01*
X26535714Y-15951200D01*
X26557626Y-15961550D01*
X26585709Y-15988287D01*
X26615051Y-16024947D01*
X26640740Y-16065064D01*
X26657862Y-16102172D01*
X26661570Y-16116844D01*
X26668850Y-16142340D01*
X26671596Y-16148050D01*
X26678710Y-16175736D01*
X26681212Y-16219406D01*
X26679394Y-16270121D01*
X26673546Y-16318945D01*
X26664885Y-16354425D01*
X26654834Y-16386481D01*
X26651329Y-16405820D01*
X26652469Y-16408400D01*
X26648208Y-16416641D01*
X26630300Y-16438031D01*
X26608189Y-16462023D01*
X26577203Y-16492607D01*
X26552246Y-16508619D01*
X26522774Y-16514735D01*
X26487232Y-16515645D01*
X26441064Y-16513155D01*
X26409805Y-16503630D01*
X26383551Y-16484248D01*
X26357215Y-16455708D01*
X26339020Y-16428979D01*
X26338295Y-16427450D01*
X26323901Y-16399356D01*
X26304073Y-16364555D01*
X26301800Y-16360775D01*
X26287684Y-16334560D01*
X26283437Y-16320343D01*
X26284464Y-16319500D01*
X26284453Y-16311744D01*
X26278108Y-16302629D01*
X26264540Y-16276242D01*
X26259947Y-16258506D01*
X26252857Y-16232613D01*
X26246994Y-16222461D01*
X26239857Y-16203833D01*
X26238200Y-16186150D01*
X26234202Y-16159775D01*
X26228675Y-16149109D01*
X26219085Y-16132938D01*
X26218845Y-16131117D01*
X26214815Y-16108631D01*
X26205458Y-16071819D01*
X26193562Y-16030420D01*
X26181917Y-15994176D01*
X26173739Y-15973598D01*
X26163625Y-15945015D01*
X26162000Y-15932150D01*
X26152464Y-15899982D01*
X26126966Y-15858338D01*
X26090175Y-15812561D01*
X26046762Y-15767994D01*
X26001393Y-15729978D01*
X25965295Y-15707070D01*
X25884722Y-15678334D01*
X25793505Y-15667302D01*
X25699231Y-15673991D01*
X25609487Y-15698419D01*
X25591071Y-15706190D01*
X25561358Y-15723645D01*
X25525599Y-15750147D01*
X25489703Y-15780525D01*
X25459577Y-15809608D01*
X25441129Y-15832227D01*
X25438100Y-15840076D01*
X25430254Y-15856267D01*
X25413762Y-15876787D01*
X25392305Y-15907761D01*
X25381911Y-15932845D01*
X25371220Y-15967677D01*
X25359848Y-15998265D01*
X25347476Y-16030457D01*
X25340052Y-16052800D01*
X25337322Y-16074743D01*
X25334904Y-16115613D01*
X25332933Y-16168940D01*
X25331540Y-16228254D01*
X25330860Y-16287082D01*
X25331025Y-16338953D01*
X25332169Y-16377398D01*
X25333124Y-16389350D01*
X25338897Y-16423471D01*
X25345315Y-16446500D01*
X25354533Y-16474359D01*
X25356502Y-16482496D01*
X25365953Y-16509737D01*
X25383680Y-16548217D01*
X25405309Y-16589638D01*
X25426465Y-16625699D01*
X25442775Y-16648098D01*
X25444742Y-16649943D01*
X25460663Y-16670463D01*
X25463500Y-16680965D01*
X25472553Y-16698027D01*
X25495835Y-16723459D01*
X25527533Y-16752425D01*
X25561834Y-16780088D01*
X25592924Y-16801612D01*
X25614991Y-16812158D01*
X25620783Y-16811830D01*
X25632798Y-16816733D01*
X25650606Y-16830778D01*
X25669942Y-16845471D01*
X25684197Y-16841979D01*
X25698357Y-16827603D01*
X25711712Y-16809286D01*
X25710905Y-16802100D01*
X25710651Y-16794102D01*
X25724456Y-16774731D01*
X25725507Y-16773525D01*
X25748625Y-16741951D01*
X25771069Y-16702820D01*
X25789456Y-16663364D01*
X25800404Y-16630814D01*
X25800731Y-16612702D01*
X25782212Y-16599612D01*
X25776946Y-16598900D01*
X25758091Y-16590884D01*
X25731961Y-16571251D01*
X25728261Y-16567902D01*
X25704468Y-16549497D01*
X25688622Y-16543819D01*
X25687115Y-16544619D01*
X25680479Y-16541615D01*
X25679400Y-16532722D01*
X25670351Y-16508610D01*
X25660116Y-16497106D01*
X25640878Y-16473337D01*
X25620068Y-16437020D01*
X25603841Y-16399806D01*
X25598689Y-16380812D01*
X25591075Y-16355638D01*
X25588867Y-16351250D01*
X25584345Y-16331137D01*
X25581653Y-16294721D01*
X25580710Y-16249259D01*
X25581438Y-16202008D01*
X25583758Y-16160226D01*
X25587590Y-16131167D01*
X25591363Y-16122118D01*
X25601273Y-16104856D01*
X25604129Y-16086976D01*
X25615908Y-16043366D01*
X25644128Y-15999326D01*
X25682119Y-15964961D01*
X25686415Y-15962319D01*
X25719876Y-15949080D01*
X25760662Y-15941328D01*
X25800029Y-15939689D01*
X25829235Y-15944792D01*
X25838279Y-15951408D01*
X25853002Y-15959050D01*
X25857288Y-15957496D01*
X25869504Y-15963513D01*
X25889638Y-15986528D01*
X25914122Y-16020885D01*
X25939389Y-16060927D01*
X25961870Y-16100999D01*
X25977997Y-16135444D01*
X25984200Y-16158607D01*
X25984200Y-16158668D01*
X25988586Y-16174056D01*
X25999011Y-16201199D01*
X26009915Y-16228421D01*
X26015192Y-16243300D01*
X26021224Y-16267743D01*
X26031139Y-16304948D01*
X26042280Y-16345274D01*
X26051989Y-16379077D01*
X26057210Y-16395700D01*
X26065835Y-16423720D01*
X26067691Y-16431617D01*
X26075695Y-16457920D01*
X26080380Y-16469717D01*
X26090854Y-16499722D01*
X26093632Y-16510901D01*
X26112253Y-16560044D01*
X26146614Y-16614320D01*
X26191451Y-16668112D01*
X26241502Y-16715802D01*
X26291502Y-16751772D01*
X26336190Y-16770404D01*
X26336880Y-16770540D01*
X26355540Y-16775042D01*
X26358850Y-16776700D01*
X26370160Y-16781428D01*
X26398715Y-16786948D01*
X26436452Y-16791885D01*
X26460450Y-16794018D01*
X26542899Y-16789580D01*
X26628068Y-16766835D01*
X26639816Y-16762187D01*
X26668549Y-16751183D01*
X26686117Y-16746015D01*
X26701417Y-16736483D01*
X26728157Y-16713152D01*
X26761078Y-16681359D01*
X26794921Y-16646444D01*
X26824426Y-16613745D01*
X26844334Y-16588600D01*
X26848952Y-16580743D01*
X26864233Y-16550300D01*
X26873178Y-16535400D01*
X26888074Y-16507057D01*
X26904988Y-16466720D01*
X26918801Y-16426773D01*
X26920421Y-16421100D01*
X26923087Y-16400790D01*
X26926029Y-16361591D01*
X26928809Y-16310007D01*
X26930245Y-16275050D01*
X26925119Y-16141263D01*
G36*
X27292300Y-25132412D02*
X27290713Y-25209056D01*
X27289146Y-25259824D01*
X27286591Y-25291607D01*
X27282392Y-25310816D01*
X27279600Y-25317450D01*
X27273792Y-25334413D01*
X27273250Y-25336500D01*
X27267442Y-25354387D01*
X27266900Y-25355550D01*
X27262436Y-25372709D01*
X27262138Y-25374890D01*
X27252952Y-25390264D01*
X27230730Y-25416940D01*
X27206464Y-25442763D01*
X27150432Y-25488398D01*
X27086507Y-25516999D01*
X27008516Y-25530937D01*
X26971625Y-25532947D01*
X26898600Y-25534948D01*
X26898600Y-25133300D01*
X26645245Y-25133300D01*
X26641748Y-25333325D01*
X26638250Y-25533350D01*
X25361900Y-25533224D01*
X25361900Y-25806400D01*
X26644600Y-25806400D01*
X26644600Y-26047700D01*
X26898600Y-26047700D01*
X26898600Y-25809981D01*
X27003375Y-25802523D01*
X27073802Y-25796769D01*
X27126417Y-25790030D01*
X27168799Y-25780614D01*
X27208527Y-25766829D01*
X27253178Y-25746980D01*
X27254200Y-25746497D01*
X27291989Y-25724831D01*
X27334993Y-25694441D01*
X27378110Y-25659728D01*
X27416235Y-25625094D01*
X27444266Y-25594941D01*
X27457098Y-25573669D01*
X27457400Y-25571249D01*
X27465543Y-25551094D01*
X27473275Y-25541605D01*
X27487557Y-25523400D01*
X27490215Y-25516840D01*
X27495633Y-25500049D01*
X27507304Y-25471531D01*
X27508041Y-25469850D01*
X27521040Y-25437258D01*
X27528647Y-25412700D01*
X27538326Y-25353052D01*
X27546306Y-25283120D01*
X27550945Y-25218021D01*
X27551413Y-25203150D01*
X27552650Y-25139650D01*
X27292300Y-25132412D01*
X27292300Y-25132412D01*
G37*
X27292300Y-25132412D02*
X27290713Y-25209056D01*
X27289146Y-25259824D01*
X27286591Y-25291607D01*
X27282392Y-25310816D01*
X27279600Y-25317450D01*
X27273792Y-25334413D01*
X27273250Y-25336500D01*
X27267442Y-25354387D01*
X27266900Y-25355550D01*
X27262436Y-25372709D01*
X27262138Y-25374890D01*
X27252952Y-25390264D01*
X27230730Y-25416940D01*
X27206464Y-25442763D01*
X27150432Y-25488398D01*
X27086507Y-25516999D01*
X27008516Y-25530937D01*
X26971625Y-25532947D01*
X26898600Y-25534948D01*
X26898600Y-25133300D01*
X26645245Y-25133300D01*
X26641748Y-25333325D01*
X26638250Y-25533350D01*
X25361900Y-25533224D01*
X25361900Y-25806400D01*
X26644600Y-25806400D01*
X26644600Y-26047700D01*
X26898600Y-26047700D01*
X26898600Y-25809981D01*
X27003375Y-25802523D01*
X27073802Y-25796769D01*
X27126417Y-25790030D01*
X27168799Y-25780614D01*
X27208527Y-25766829D01*
X27253178Y-25746980D01*
X27254200Y-25746497D01*
X27291989Y-25724831D01*
X27334993Y-25694441D01*
X27378110Y-25659728D01*
X27416235Y-25625094D01*
X27444266Y-25594941D01*
X27457098Y-25573669D01*
X27457400Y-25571249D01*
X27465543Y-25551094D01*
X27473275Y-25541605D01*
X27487557Y-25523400D01*
X27490215Y-25516840D01*
X27495633Y-25500049D01*
X27507304Y-25471531D01*
X27508041Y-25469850D01*
X27521040Y-25437258D01*
X27528647Y-25412700D01*
X27538326Y-25353052D01*
X27546306Y-25283120D01*
X27550945Y-25218021D01*
X27551413Y-25203150D01*
X27552650Y-25139650D01*
X27292300Y-25132412D01*
G36*
X26792362Y-24186987D02*
X26736797Y-24187746D01*
X26691286Y-24189455D01*
X26661425Y-24191839D01*
X26652684Y-24193883D01*
X26647673Y-24209243D01*
X26642052Y-24241262D01*
X26639222Y-24263598D01*
X26633273Y-24312442D01*
X26627154Y-24346093D01*
X26618593Y-24374671D01*
X26608452Y-24400702D01*
X26598099Y-24427480D01*
X26593800Y-24441606D01*
X26587091Y-24453947D01*
X26569787Y-24480369D01*
X26553029Y-24504601D01*
X26524554Y-24538411D01*
X26489250Y-24571471D01*
X26453829Y-24598358D01*
X26425008Y-24613647D01*
X26416000Y-24615298D01*
X26400942Y-24620428D01*
X26386312Y-24627596D01*
X26355456Y-24639769D01*
X26329162Y-24646603D01*
X26296339Y-24653108D01*
X26276300Y-24657288D01*
X26259527Y-24658286D01*
X26220382Y-24659253D01*
X26161894Y-24660155D01*
X26087092Y-24660961D01*
X25999004Y-24661635D01*
X25900658Y-24662145D01*
X25809575Y-24662429D01*
X25361900Y-24663400D01*
X25361900Y-24930100D01*
X26898600Y-24930100D01*
X26898600Y-24663400D01*
X26777201Y-24663400D01*
X26715769Y-24662145D01*
X26677518Y-24658451D01*
X26663388Y-24652425D01*
X26663779Y-24650493D01*
X26677536Y-24642236D01*
X26681266Y-24643464D01*
X26695805Y-24639583D01*
X26719539Y-24622499D01*
X26724838Y-24617757D01*
X26746749Y-24599273D01*
X26758347Y-24593062D01*
X26758901Y-24593944D01*
X26764908Y-24593718D01*
X26783451Y-24574544D01*
X26815312Y-24535573D01*
X26829802Y-24517037D01*
X26866152Y-24456819D01*
X26896216Y-24381902D01*
X26916321Y-24302851D01*
X26922520Y-24250352D01*
X26925578Y-24186553D01*
X26792362Y-24186987D01*
X26792362Y-24186987D01*
G37*
X26792362Y-24186987D02*
X26736797Y-24187746D01*
X26691286Y-24189455D01*
X26661425Y-24191839D01*
X26652684Y-24193883D01*
X26647673Y-24209243D01*
X26642052Y-24241262D01*
X26639222Y-24263598D01*
X26633273Y-24312442D01*
X26627154Y-24346093D01*
X26618593Y-24374671D01*
X26608452Y-24400702D01*
X26598099Y-24427480D01*
X26593800Y-24441606D01*
X26587091Y-24453947D01*
X26569787Y-24480369D01*
X26553029Y-24504601D01*
X26524554Y-24538411D01*
X26489250Y-24571471D01*
X26453829Y-24598358D01*
X26425008Y-24613647D01*
X26416000Y-24615298D01*
X26400942Y-24620428D01*
X26386312Y-24627596D01*
X26355456Y-24639769D01*
X26329162Y-24646603D01*
X26296339Y-24653108D01*
X26276300Y-24657288D01*
X26259527Y-24658286D01*
X26220382Y-24659253D01*
X26161894Y-24660155D01*
X26087092Y-24660961D01*
X25999004Y-24661635D01*
X25900658Y-24662145D01*
X25809575Y-24662429D01*
X25361900Y-24663400D01*
X25361900Y-24930100D01*
X26898600Y-24930100D01*
X26898600Y-24663400D01*
X26777201Y-24663400D01*
X26715769Y-24662145D01*
X26677518Y-24658451D01*
X26663388Y-24652425D01*
X26663779Y-24650493D01*
X26677536Y-24642236D01*
X26681266Y-24643464D01*
X26695805Y-24639583D01*
X26719539Y-24622499D01*
X26724838Y-24617757D01*
X26746749Y-24599273D01*
X26758347Y-24593062D01*
X26758901Y-24593944D01*
X26764908Y-24593718D01*
X26783451Y-24574544D01*
X26815312Y-24535573D01*
X26829802Y-24517037D01*
X26866152Y-24456819D01*
X26896216Y-24381902D01*
X26916321Y-24302851D01*
X26922520Y-24250352D01*
X26925578Y-24186553D01*
X26792362Y-24186987D01*
G36*
X25361900Y-23660100D02*
X25361900Y-23933203D01*
X26898600Y-23933203D01*
X26898600Y-23660100D01*
X25361900Y-23660100D01*
X25361900Y-23660100D01*
G37*
X25361900Y-23660100D02*
X25361900Y-23933203D01*
X26898600Y-23933203D01*
X26898600Y-23660100D01*
X25361900Y-23660100D01*
G36*
X26809528Y-22148800D02*
X26748094Y-22151610D01*
X26702377Y-22161947D01*
X26663125Y-22182670D01*
X26638250Y-22201764D01*
X26614044Y-22220488D01*
X26574707Y-22249343D01*
X26526096Y-22284155D01*
X26474068Y-22320750D01*
X26424481Y-22354952D01*
X26402154Y-22370038D01*
X26368108Y-22394446D01*
X26340320Y-22417071D01*
X26335479Y-22421637D01*
X26319507Y-22434615D01*
X26314400Y-22434142D01*
X26306008Y-22436535D01*
X26284634Y-22452209D01*
X26269509Y-22464985D01*
X26241129Y-22488321D01*
X26220464Y-22502460D01*
X26215404Y-22504400D01*
X26200906Y-22512268D01*
X26176870Y-22531690D01*
X26171396Y-22536664D01*
X26149245Y-22555076D01*
X26137283Y-22560876D01*
X26136600Y-22559688D01*
X26128638Y-22561681D01*
X26108607Y-22577600D01*
X26098500Y-22586950D01*
X26075263Y-22607256D01*
X26061772Y-22615256D01*
X26060400Y-22614083D01*
X26052308Y-22616112D01*
X26031804Y-22631970D01*
X26019125Y-22643398D01*
X25990973Y-22666995D01*
X25968836Y-22680726D01*
X25963531Y-22682142D01*
X25944385Y-22691036D01*
X25932361Y-22702503D01*
X25914044Y-22719145D01*
X25881004Y-22744599D01*
X25839818Y-22773842D01*
X25832381Y-22778895D01*
X25782583Y-22813162D01*
X25732110Y-22848966D01*
X25692100Y-22878399D01*
X25659253Y-22902302D01*
X25634459Y-22918429D01*
X25625425Y-22922657D01*
X25623105Y-22910671D01*
X25620989Y-22876293D01*
X25619148Y-22822531D01*
X25617654Y-22752393D01*
X25616577Y-22668887D01*
X25615990Y-22575020D01*
X25615900Y-22519949D01*
X25615900Y-22116397D01*
X25492075Y-22116886D01*
X25368250Y-22117376D01*
X25364952Y-22708176D01*
X25361653Y-23298977D01*
X25453852Y-23298135D01*
X25516599Y-23294432D01*
X25565138Y-23282033D01*
X25609382Y-23256995D01*
X25657175Y-23217261D01*
X25679397Y-23199574D01*
X25691409Y-23194983D01*
X25692100Y-23196550D01*
X25700148Y-23196320D01*
X25720159Y-23181986D01*
X25727025Y-23175974D01*
X25761205Y-23147893D01*
X25801352Y-23118700D01*
X25809489Y-23113273D01*
X25838196Y-23092608D01*
X25855161Y-23076665D01*
X25857114Y-23072725D01*
X25867098Y-23063600D01*
X25871067Y-23063200D01*
X25887291Y-23057488D01*
X25915524Y-23039231D01*
X25958150Y-23006752D01*
X26003717Y-22969810D01*
X26029746Y-22950116D01*
X26045525Y-22941559D01*
X26047700Y-22942550D01*
X26056287Y-22940791D01*
X26078052Y-22926079D01*
X26091684Y-22915291D01*
X26147404Y-22870352D01*
X26186845Y-22840965D01*
X26212388Y-22825451D01*
X26224334Y-22821900D01*
X26237681Y-22815100D01*
X26238287Y-22812375D01*
X26248037Y-22800299D01*
X26272530Y-22780945D01*
X26285912Y-22771828D01*
X26325243Y-22744015D01*
X26362110Y-22714651D01*
X26368375Y-22709127D01*
X26390614Y-22691513D01*
X26402618Y-22686987D01*
X26403300Y-22688550D01*
X26411348Y-22688320D01*
X26431359Y-22673986D01*
X26438225Y-22667974D01*
X26472405Y-22639893D01*
X26512552Y-22610700D01*
X26520689Y-22605273D01*
X26549396Y-22584608D01*
X26566361Y-22568665D01*
X26568314Y-22564725D01*
X26578401Y-22555728D01*
X26583275Y-22555200D01*
X26603532Y-22547345D01*
X26621375Y-22534182D01*
X26628005Y-22529082D01*
X26633237Y-22528832D01*
X26637237Y-22535964D01*
X26640169Y-22553007D01*
X26642198Y-22582492D01*
X26643491Y-22626949D01*
X26644212Y-22688908D01*
X26644527Y-22770900D01*
X26644600Y-22875455D01*
X26644600Y-23266400D01*
X26898600Y-23266400D01*
X26898600Y-22148800D01*
X26809528Y-22148800D01*
X26809528Y-22148800D01*
G37*
X26809528Y-22148800D02*
X26748094Y-22151610D01*
X26702377Y-22161947D01*
X26663125Y-22182670D01*
X26638250Y-22201764D01*
X26614044Y-22220488D01*
X26574707Y-22249343D01*
X26526096Y-22284155D01*
X26474068Y-22320750D01*
X26424481Y-22354952D01*
X26402154Y-22370038D01*
X26368108Y-22394446D01*
X26340320Y-22417071D01*
X26335479Y-22421637D01*
X26319507Y-22434615D01*
X26314400Y-22434142D01*
X26306008Y-22436535D01*
X26284634Y-22452209D01*
X26269509Y-22464985D01*
X26241129Y-22488321D01*
X26220464Y-22502460D01*
X26215404Y-22504400D01*
X26200906Y-22512268D01*
X26176870Y-22531690D01*
X26171396Y-22536664D01*
X26149245Y-22555076D01*
X26137283Y-22560876D01*
X26136600Y-22559688D01*
X26128638Y-22561681D01*
X26108607Y-22577600D01*
X26098500Y-22586950D01*
X26075263Y-22607256D01*
X26061772Y-22615256D01*
X26060400Y-22614083D01*
X26052308Y-22616112D01*
X26031804Y-22631970D01*
X26019125Y-22643398D01*
X25990973Y-22666995D01*
X25968836Y-22680726D01*
X25963531Y-22682142D01*
X25944385Y-22691036D01*
X25932361Y-22702503D01*
X25914044Y-22719145D01*
X25881004Y-22744599D01*
X25839818Y-22773842D01*
X25832381Y-22778895D01*
X25782583Y-22813162D01*
X25732110Y-22848966D01*
X25692100Y-22878399D01*
X25659253Y-22902302D01*
X25634459Y-22918429D01*
X25625425Y-22922657D01*
X25623105Y-22910671D01*
X25620989Y-22876293D01*
X25619148Y-22822531D01*
X25617654Y-22752393D01*
X25616577Y-22668887D01*
X25615990Y-22575020D01*
X25615900Y-22519949D01*
X25615900Y-22116397D01*
X25492075Y-22116886D01*
X25368250Y-22117376D01*
X25364952Y-22708176D01*
X25361653Y-23298977D01*
X25453852Y-23298135D01*
X25516599Y-23294432D01*
X25565138Y-23282033D01*
X25609382Y-23256995D01*
X25657175Y-23217261D01*
X25679397Y-23199574D01*
X25691409Y-23194983D01*
X25692100Y-23196550D01*
X25700148Y-23196320D01*
X25720159Y-23181986D01*
X25727025Y-23175974D01*
X25761205Y-23147893D01*
X25801352Y-23118700D01*
X25809489Y-23113273D01*
X25838196Y-23092608D01*
X25855161Y-23076665D01*
X25857114Y-23072725D01*
X25867098Y-23063600D01*
X25871067Y-23063200D01*
X25887291Y-23057488D01*
X25915524Y-23039231D01*
X25958150Y-23006752D01*
X26003717Y-22969810D01*
X26029746Y-22950116D01*
X26045525Y-22941559D01*
X26047700Y-22942550D01*
X26056287Y-22940791D01*
X26078052Y-22926079D01*
X26091684Y-22915291D01*
X26147404Y-22870352D01*
X26186845Y-22840965D01*
X26212388Y-22825451D01*
X26224334Y-22821900D01*
X26237681Y-22815100D01*
X26238287Y-22812375D01*
X26248037Y-22800299D01*
X26272530Y-22780945D01*
X26285912Y-22771828D01*
X26325243Y-22744015D01*
X26362110Y-22714651D01*
X26368375Y-22709127D01*
X26390614Y-22691513D01*
X26402618Y-22686987D01*
X26403300Y-22688550D01*
X26411348Y-22688320D01*
X26431359Y-22673986D01*
X26438225Y-22667974D01*
X26472405Y-22639893D01*
X26512552Y-22610700D01*
X26520689Y-22605273D01*
X26549396Y-22584608D01*
X26566361Y-22568665D01*
X26568314Y-22564725D01*
X26578401Y-22555728D01*
X26583275Y-22555200D01*
X26603532Y-22547345D01*
X26621375Y-22534182D01*
X26628005Y-22529082D01*
X26633237Y-22528832D01*
X26637237Y-22535964D01*
X26640169Y-22553007D01*
X26642198Y-22582492D01*
X26643491Y-22626949D01*
X26644212Y-22688908D01*
X26644527Y-22770900D01*
X26644600Y-22875455D01*
X26644600Y-23266400D01*
X26898600Y-23266400D01*
X26898600Y-22148800D01*
X26809528Y-22148800D01*
G36*
X26807840Y-20739100D02*
X26757023Y-20740367D01*
X26720995Y-20746130D01*
X26689189Y-20759336D01*
X26651298Y-20782764D01*
X26613463Y-20809274D01*
X26582901Y-20833179D01*
X26569053Y-20846264D01*
X26548990Y-20862777D01*
X26538270Y-20866159D01*
X26520926Y-20874269D01*
X26494180Y-20894604D01*
X26482675Y-20904903D01*
X26458202Y-20926004D01*
X26443405Y-20935218D01*
X26441400Y-20934218D01*
X26433441Y-20936129D01*
X26413416Y-20951997D01*
X26403300Y-20961350D01*
X26380059Y-20981686D01*
X26366570Y-20989752D01*
X26365200Y-20988613D01*
X26357187Y-20990161D01*
X26337260Y-21005462D01*
X26330405Y-21011637D01*
X26305451Y-21032692D01*
X26288233Y-21043515D01*
X26286397Y-21043900D01*
X26272170Y-21051603D01*
X26246631Y-21071125D01*
X26232292Y-21083316D01*
X26206208Y-21104798D01*
X26190015Y-21115398D01*
X26187400Y-21115150D01*
X26179250Y-21116885D01*
X26159565Y-21131558D01*
X26158825Y-21132193D01*
X26140870Y-21147067D01*
X26118188Y-21164463D01*
X26087054Y-21187066D01*
X26043743Y-21217562D01*
X25984530Y-21258635D01*
X25957626Y-21277202D01*
X25915819Y-21307042D01*
X25881047Y-21333706D01*
X25859723Y-21352233D01*
X25857646Y-21354514D01*
X25837616Y-21370891D01*
X25827070Y-21374159D01*
X25809726Y-21382269D01*
X25782980Y-21402604D01*
X25771475Y-21412903D01*
X25747002Y-21434004D01*
X25732205Y-21443218D01*
X25730200Y-21442218D01*
X25722241Y-21444129D01*
X25702216Y-21459997D01*
X25692100Y-21469350D01*
X25668888Y-21489447D01*
X25655390Y-21496987D01*
X25654000Y-21495572D01*
X25646232Y-21493719D01*
X25635131Y-21500951D01*
X25629853Y-21502917D01*
X25625583Y-21497549D01*
X25622184Y-21482454D01*
X25619521Y-21455240D01*
X25617455Y-21413516D01*
X25615850Y-21354889D01*
X25614571Y-21276968D01*
X25613479Y-21177360D01*
X25612906Y-21112142D01*
X25609550Y-20707672D01*
X25485725Y-20707184D01*
X25361900Y-20706697D01*
X25361900Y-21897490D01*
X25461383Y-21892970D01*
X25513427Y-21889705D01*
X25548258Y-21883963D01*
X25574064Y-21873183D01*
X25599034Y-21854806D01*
X25607875Y-21847175D01*
X25636879Y-21823221D01*
X25658226Y-21808328D01*
X25664097Y-21805900D01*
X25678595Y-21798033D01*
X25702631Y-21778611D01*
X25708105Y-21773637D01*
X25730256Y-21755225D01*
X25742218Y-21749425D01*
X25742900Y-21750613D01*
X25750999Y-21749180D01*
X25771121Y-21734131D01*
X25777825Y-21728233D01*
X25809860Y-21702185D01*
X25850909Y-21672501D01*
X25869900Y-21659850D01*
X25910764Y-21631759D01*
X25948675Y-21602801D01*
X25961975Y-21591468D01*
X25984293Y-21573270D01*
X25996259Y-21567423D01*
X25996900Y-21568490D01*
X26005020Y-21567512D01*
X26024641Y-21553223D01*
X26025475Y-21552508D01*
X26056982Y-21526978D01*
X26100249Y-21494871D01*
X26158631Y-21453762D01*
X26226081Y-21407601D01*
X26267971Y-21378092D01*
X26302866Y-21351534D01*
X26324208Y-21332959D01*
X26326061Y-21330903D01*
X26346190Y-21314141D01*
X26357231Y-21310542D01*
X26374575Y-21302432D01*
X26401321Y-21282097D01*
X26412825Y-21271798D01*
X26437299Y-21250697D01*
X26452096Y-21241483D01*
X26454100Y-21242483D01*
X26462196Y-21241135D01*
X26482311Y-21226137D01*
X26489025Y-21220233D01*
X26518951Y-21195469D01*
X26555366Y-21168490D01*
X26591545Y-21143885D01*
X26620766Y-21126241D01*
X26635758Y-21120100D01*
X26638010Y-21132274D01*
X26640050Y-21166690D01*
X26641802Y-21220191D01*
X26643193Y-21289620D01*
X26644144Y-21371819D01*
X26644581Y-21463632D01*
X26644600Y-21488400D01*
X26644600Y-21856700D01*
X26898600Y-21856700D01*
X26898600Y-20739100D01*
X26807840Y-20739100D01*
X26807840Y-20739100D01*
G37*
X26807840Y-20739100D02*
X26757023Y-20740367D01*
X26720995Y-20746130D01*
X26689189Y-20759336D01*
X26651298Y-20782764D01*
X26613463Y-20809274D01*
X26582901Y-20833179D01*
X26569053Y-20846264D01*
X26548990Y-20862777D01*
X26538270Y-20866159D01*
X26520926Y-20874269D01*
X26494180Y-20894604D01*
X26482675Y-20904903D01*
X26458202Y-20926004D01*
X26443405Y-20935218D01*
X26441400Y-20934218D01*
X26433441Y-20936129D01*
X26413416Y-20951997D01*
X26403300Y-20961350D01*
X26380059Y-20981686D01*
X26366570Y-20989752D01*
X26365200Y-20988613D01*
X26357187Y-20990161D01*
X26337260Y-21005462D01*
X26330405Y-21011637D01*
X26305451Y-21032692D01*
X26288233Y-21043515D01*
X26286397Y-21043900D01*
X26272170Y-21051603D01*
X26246631Y-21071125D01*
X26232292Y-21083316D01*
X26206208Y-21104798D01*
X26190015Y-21115398D01*
X26187400Y-21115150D01*
X26179250Y-21116885D01*
X26159565Y-21131558D01*
X26158825Y-21132193D01*
X26140870Y-21147067D01*
X26118188Y-21164463D01*
X26087054Y-21187066D01*
X26043743Y-21217562D01*
X25984530Y-21258635D01*
X25957626Y-21277202D01*
X25915819Y-21307042D01*
X25881047Y-21333706D01*
X25859723Y-21352233D01*
X25857646Y-21354514D01*
X25837616Y-21370891D01*
X25827070Y-21374159D01*
X25809726Y-21382269D01*
X25782980Y-21402604D01*
X25771475Y-21412903D01*
X25747002Y-21434004D01*
X25732205Y-21443218D01*
X25730200Y-21442218D01*
X25722241Y-21444129D01*
X25702216Y-21459997D01*
X25692100Y-21469350D01*
X25668888Y-21489447D01*
X25655390Y-21496987D01*
X25654000Y-21495572D01*
X25646232Y-21493719D01*
X25635131Y-21500951D01*
X25629853Y-21502917D01*
X25625583Y-21497549D01*
X25622184Y-21482454D01*
X25619521Y-21455240D01*
X25617455Y-21413516D01*
X25615850Y-21354889D01*
X25614571Y-21276968D01*
X25613479Y-21177360D01*
X25612906Y-21112142D01*
X25609550Y-20707672D01*
X25485725Y-20707184D01*
X25361900Y-20706697D01*
X25361900Y-21897490D01*
X25461383Y-21892970D01*
X25513427Y-21889705D01*
X25548258Y-21883963D01*
X25574064Y-21873183D01*
X25599034Y-21854806D01*
X25607875Y-21847175D01*
X25636879Y-21823221D01*
X25658226Y-21808328D01*
X25664097Y-21805900D01*
X25678595Y-21798033D01*
X25702631Y-21778611D01*
X25708105Y-21773637D01*
X25730256Y-21755225D01*
X25742218Y-21749425D01*
X25742900Y-21750613D01*
X25750999Y-21749180D01*
X25771121Y-21734131D01*
X25777825Y-21728233D01*
X25809860Y-21702185D01*
X25850909Y-21672501D01*
X25869900Y-21659850D01*
X25910764Y-21631759D01*
X25948675Y-21602801D01*
X25961975Y-21591468D01*
X25984293Y-21573270D01*
X25996259Y-21567423D01*
X25996900Y-21568490D01*
X26005020Y-21567512D01*
X26024641Y-21553223D01*
X26025475Y-21552508D01*
X26056982Y-21526978D01*
X26100249Y-21494871D01*
X26158631Y-21453762D01*
X26226081Y-21407601D01*
X26267971Y-21378092D01*
X26302866Y-21351534D01*
X26324208Y-21332959D01*
X26326061Y-21330903D01*
X26346190Y-21314141D01*
X26357231Y-21310542D01*
X26374575Y-21302432D01*
X26401321Y-21282097D01*
X26412825Y-21271798D01*
X26437299Y-21250697D01*
X26452096Y-21241483D01*
X26454100Y-21242483D01*
X26462196Y-21241135D01*
X26482311Y-21226137D01*
X26489025Y-21220233D01*
X26518951Y-21195469D01*
X26555366Y-21168490D01*
X26591545Y-21143885D01*
X26620766Y-21126241D01*
X26635758Y-21120100D01*
X26638010Y-21132274D01*
X26640050Y-21166690D01*
X26641802Y-21220191D01*
X26643193Y-21289620D01*
X26644144Y-21371819D01*
X26644581Y-21463632D01*
X26644600Y-21488400D01*
X26644600Y-21856700D01*
X26898600Y-21856700D01*
X26898600Y-20739100D01*
X26807840Y-20739100D01*
G36*
X25444450Y-16662400D02*
X25438100Y-16668750D01*
X25444450Y-16675100D01*
X25450800Y-16668750D01*
X25444450Y-16662400D01*
X25444450Y-16662400D01*
G37*
X25444450Y-16662400D02*
X25438100Y-16668750D01*
X25444450Y-16675100D01*
X25450800Y-16668750D01*
X25444450Y-16662400D01*
G36*
X25749250Y-17170400D02*
X25742900Y-17176750D01*
X25749250Y-17183100D01*
X25755600Y-17176750D01*
X25749250Y-17170400D01*
X25749250Y-17170400D01*
G37*
X25749250Y-17170400D02*
X25742900Y-17176750D01*
X25749250Y-17183100D01*
X25755600Y-17176750D01*
X25749250Y-17170400D01*
G36*
X26866850Y-16560800D02*
X26860500Y-16567150D01*
X26866850Y-16573500D01*
X26873200Y-16567150D01*
X26866850Y-16560800D01*
X26866850Y-16560800D01*
G37*
X26866850Y-16560800D02*
X26860500Y-16567150D01*
X26866850Y-16573500D01*
X26873200Y-16567150D01*
X26866850Y-16560800D01*
G36*
X27528758Y-23751536D02*
X27520465Y-23723403D01*
X27500727Y-23696241D01*
X27479396Y-23673867D01*
X27445933Y-23642300D01*
X27419109Y-23625658D01*
X27389033Y-23619579D01*
X27355800Y-23619398D01*
X27305452Y-23623220D01*
X27270286Y-23633927D01*
X27240265Y-23655390D01*
X27225821Y-23669524D01*
X27200120Y-23700442D01*
X27187492Y-23731490D01*
X27183126Y-23774858D01*
X27183027Y-23777936D01*
X27183054Y-23819621D01*
X27185329Y-23852516D01*
X27187427Y-23863300D01*
X27208130Y-23897369D01*
X27243281Y-23932411D01*
X27283567Y-23960430D01*
X27314939Y-23972762D01*
X27351022Y-23974534D01*
X27391156Y-23969407D01*
X27427374Y-23959388D01*
X27451706Y-23946485D01*
X27457400Y-23936874D01*
X27462360Y-23928543D01*
X27465262Y-23930429D01*
X27479013Y-23929486D01*
X27487487Y-23922530D01*
X27514397Y-23882950D01*
X27527605Y-23834513D01*
X27530237Y-23791342D01*
X27528758Y-23751536D01*
X27528758Y-23751536D01*
G37*
X27528758Y-23751536D02*
X27520465Y-23723403D01*
X27500727Y-23696241D01*
X27479396Y-23673867D01*
X27445933Y-23642300D01*
X27419109Y-23625658D01*
X27389033Y-23619579D01*
X27355800Y-23619398D01*
X27305452Y-23623220D01*
X27270286Y-23633927D01*
X27240265Y-23655390D01*
X27225821Y-23669524D01*
X27200120Y-23700442D01*
X27187492Y-23731490D01*
X27183126Y-23774858D01*
X27183027Y-23777936D01*
X27183054Y-23819621D01*
X27185329Y-23852516D01*
X27187427Y-23863300D01*
X27208130Y-23897369D01*
X27243281Y-23932411D01*
X27283567Y-23960430D01*
X27314939Y-23972762D01*
X27351022Y-23974534D01*
X27391156Y-23969407D01*
X27427374Y-23959388D01*
X27451706Y-23946485D01*
X27457400Y-23936874D01*
X27462360Y-23928543D01*
X27465262Y-23930429D01*
X27479013Y-23929486D01*
X27487487Y-23922530D01*
X27514397Y-23882950D01*
X27527605Y-23834513D01*
X27530237Y-23791342D01*
X27528758Y-23751536D01*
D14*
X2454000Y-18426000D02*
X2454000Y-16626000D01*
X5674000Y-16626000D02*
X5674000Y-19076000D01*
D15*
X9805000Y-13309000D02*
X9805000Y-13184000D01*
X13055000Y-13309000D02*
X13055000Y-13084000D01*
X13055000Y-10059000D02*
X13055000Y-10284000D01*
X9805000Y-10059000D02*
X9805000Y-10284000D01*
X9805000Y-13309000D02*
X13055000Y-13309000D01*
X9805000Y-10059000D02*
X13055000Y-10059000D01*
X9805000Y-13184000D02*
X8730000Y-13184000D01*
D14*
X16418000Y-13112000D02*
X16418000Y-13812000D01*
X17618000Y-13812000D02*
X17618000Y-13112000D01*
X2702000Y-13239000D02*
X2702000Y-13939000D01*
X3902000Y-13939000D02*
X3902000Y-13239000D01*
X4988000Y-13239000D02*
X4988000Y-13939000D01*
X6188000Y-13939000D02*
X6188000Y-13239000D01*
X24349000Y-19781000D02*
X24349000Y-19081000D01*
X23149000Y-19081000D02*
X23149000Y-19781000D01*
X22698000Y-13812000D02*
X22698000Y-13112000D01*
X21498000Y-13112000D02*
X21498000Y-13812000D01*
X24349000Y-13812000D02*
X24349000Y-13112000D01*
X23149000Y-13112000D02*
X23149000Y-13812000D01*
X26000000Y-13812000D02*
X26000000Y-13112000D01*
X24800000Y-13112000D02*
X24800000Y-13812000D01*
X24480000Y-10322000D02*
X23780000Y-10322000D01*
X23780000Y-11522000D02*
X24480000Y-11522000D01*
X21432000Y-10322000D02*
X20732000Y-10322000D01*
X20732000Y-11522000D02*
X21432000Y-11522000D01*
X6508000Y-11522000D02*
X7208000Y-11522000D01*
X7208000Y-10322000D02*
X6508000Y-10322000D01*
D15*
X12581000Y-15280000D02*
X13581000Y-15280000D01*
X13581000Y-13930000D02*
X12581000Y-13930000D01*
X17994000Y-12962000D02*
X17994000Y-13962000D01*
X19344000Y-13962000D02*
X19344000Y-12962000D01*
X14692000Y-12962000D02*
X14692000Y-13962000D01*
X16042000Y-13962000D02*
X16042000Y-12962000D01*
X23074000Y-16010000D02*
X23074000Y-17010000D01*
X24424000Y-17010000D02*
X24424000Y-16010000D01*
X10787000Y-13930000D02*
X9787000Y-13930000D01*
X9787000Y-15280000D02*
X10787000Y-15280000D01*
X22646000Y-17010000D02*
X22646000Y-16010000D01*
X21296000Y-16010000D02*
X21296000Y-17010000D01*
X19772000Y-12962000D02*
X19772000Y-13962000D01*
X21122000Y-13962000D02*
X21122000Y-12962000D01*
X3437000Y-11597000D02*
X4437000Y-11597000D01*
X4437000Y-10247000D02*
X3437000Y-10247000D01*
D13*
G36*
X3773424Y-20698688D02*
X3743287Y-20699477D01*
X3719681Y-20701186D01*
X3699523Y-20704155D01*
X3679729Y-20708725D01*
X3657216Y-20715236D01*
X3654817Y-20715970D01*
X3571040Y-20748226D01*
X3489319Y-20792848D01*
X3409785Y-20849652D01*
X3332569Y-20918452D01*
X3257801Y-20999061D01*
X3185612Y-21091294D01*
X3116132Y-21194966D01*
X3049493Y-21309889D01*
X2985824Y-21435879D01*
X2925257Y-21572749D01*
X2867922Y-21720313D01*
X2813950Y-21878386D01*
X2794935Y-21939250D01*
X2784233Y-21973363D01*
X2774454Y-22002719D01*
X2766293Y-22025375D01*
X2760443Y-22039388D01*
X2757852Y-22043065D01*
X2750291Y-22041390D01*
X2732423Y-22037327D01*
X2706312Y-22031347D01*
X2674025Y-22023923D01*
X2640568Y-22016208D01*
X2456134Y-21977631D01*
X2276710Y-21948143D01*
X2201869Y-21938383D01*
X2151564Y-21933377D01*
X2093885Y-21929351D01*
X2031310Y-21926337D01*
X1966315Y-21924368D01*
X1901378Y-21923476D01*
X1838975Y-21923693D01*
X1781585Y-21925052D01*
X1731685Y-21927585D01*
X1691751Y-21931325D01*
X1689100Y-21931672D01*
X1576537Y-21950498D01*
X1474716Y-21975387D01*
X1383106Y-22006560D01*
X1301172Y-22044241D01*
X1228380Y-22088649D01*
X1164198Y-22140009D01*
X1145475Y-22157864D01*
X1090392Y-22221139D01*
X1046482Y-22290045D01*
X1013667Y-22364322D01*
X991868Y-22443711D01*
X981009Y-22527952D01*
X981010Y-22616786D01*
X991793Y-22709953D01*
X1013280Y-22807193D01*
X1045394Y-22908247D01*
X1088055Y-23012856D01*
X1141185Y-23120760D01*
X1204707Y-23231700D01*
X1278542Y-23345415D01*
X1362611Y-23461647D01*
X1456838Y-23580136D01*
X1561143Y-23700622D01*
X1634117Y-23779683D01*
X1658511Y-23805743D01*
X1679520Y-23828677D01*
X1695712Y-23846883D01*
X1705655Y-23858756D01*
X1708150Y-23862574D01*
X1703929Y-23869248D01*
X1693162Y-23881185D01*
X1685231Y-23889041D01*
X1672504Y-23901757D01*
X1653518Y-23921434D01*
X1630575Y-23945655D01*
X1605979Y-23972000D01*
X1599030Y-23979516D01*
X1535748Y-24048107D01*
X1572737Y-24072316D01*
X1595036Y-24088080D01*
X1615797Y-24104708D01*
X1628509Y-24116576D01*
X1647292Y-24136627D01*
X1730717Y-24049202D01*
X1814143Y-23961778D01*
X1886559Y-24028895D01*
X2046506Y-24171337D01*
X2218325Y-24313153D01*
X2402418Y-24454676D01*
X2413148Y-24462636D01*
X2457529Y-24495478D01*
X2492790Y-24521621D01*
X2519975Y-24541979D01*
X2540127Y-24557468D01*
X2554289Y-24569003D01*
X2563506Y-24577501D01*
X2568821Y-24583875D01*
X2571278Y-24589042D01*
X2571919Y-24593917D01*
X2571789Y-24599415D01*
X2571754Y-24601758D01*
X2572759Y-24624846D01*
X2575616Y-24658764D01*
X2580095Y-24701813D01*
X2585971Y-24752293D01*
X2593013Y-24808506D01*
X2600995Y-24868753D01*
X2609689Y-24931334D01*
X2618866Y-24994551D01*
X2628299Y-25056705D01*
X2637759Y-25116097D01*
X2647020Y-25171028D01*
X2651596Y-25196800D01*
X2658986Y-25236450D01*
X2667532Y-25280434D01*
X2676783Y-25326606D01*
X2686287Y-25372823D01*
X2695593Y-25416937D01*
X2704249Y-25456805D01*
X2711803Y-25490280D01*
X2717804Y-25515218D01*
X2721300Y-25527953D01*
X2720856Y-25532724D01*
X2715151Y-25537279D01*
X2702454Y-25542275D01*
X2681032Y-25548372D01*
X2649152Y-25556230D01*
X2643415Y-25557589D01*
X2509392Y-25587402D01*
X2384359Y-25611310D01*
X2266197Y-25629569D01*
X2152791Y-25642434D01*
X2042024Y-25650161D01*
X1931778Y-25653007D01*
X1859322Y-25652358D01*
X1785468Y-25649923D01*
X1721488Y-25645886D01*
X1664619Y-25639886D01*
X1612095Y-25631565D01*
X1561153Y-25620562D01*
X1510847Y-25607049D01*
X1427898Y-25577885D01*
X1353965Y-25541470D01*
X1289517Y-25498221D01*
X1235025Y-25448552D01*
X1190959Y-25392878D01*
X1157788Y-25331614D01*
X1139546Y-25279350D01*
X1128502Y-25219631D01*
X1125168Y-25152056D01*
X1129459Y-25078790D01*
X1141286Y-25001999D01*
X1152821Y-24951804D01*
X1159482Y-24925704D01*
X1164717Y-24904315D01*
X1167824Y-24890548D01*
X1168377Y-24887158D01*
X1163026Y-24882222D01*
X1149453Y-24874958D01*
X1140343Y-24870957D01*
X1118914Y-24861023D01*
X1093626Y-24847737D01*
X1077639Y-24838548D01*
X1042946Y-24817657D01*
X1023257Y-24881816D01*
X1007071Y-24937631D01*
X995470Y-24986010D01*
X987811Y-25031089D01*
X983449Y-25077006D01*
X981741Y-25127898D01*
X981653Y-25149175D01*
X982556Y-25200151D01*
X985504Y-25242432D01*
X991189Y-25279948D01*
X1000302Y-25316630D01*
X1013535Y-25356410D01*
X1022142Y-25379281D01*
X1056202Y-25449953D01*
X1101362Y-25515260D01*
X1157016Y-25574765D01*
X1222558Y-25628033D01*
X1297385Y-25674628D01*
X1380890Y-25714114D01*
X1472469Y-25746056D01*
X1562100Y-25768156D01*
X1605537Y-25776597D01*
X1644395Y-25783238D01*
X1681178Y-25788282D01*
X1718390Y-25791930D01*
X1758535Y-25794386D01*
X1804118Y-25795851D01*
X1857641Y-25796528D01*
X1914525Y-25796631D01*
X2016505Y-25795003D01*
X2114246Y-25790188D01*
X2210444Y-25781854D01*
X2307794Y-25769669D01*
X2408990Y-25753303D01*
X2516728Y-25732424D01*
X2619375Y-25709989D01*
X2656572Y-25701509D01*
X2690154Y-25693875D01*
X2717893Y-25687592D01*
X2737556Y-25683166D01*
X2746638Y-25681160D01*
X2753332Y-25681199D01*
X2758803Y-25686038D01*
X2764275Y-25697878D01*
X2770971Y-25718921D01*
X2774519Y-25731300D01*
X2815672Y-25867293D01*
X2861477Y-26000622D01*
X2911282Y-26129856D01*
X2964439Y-26253562D01*
X3020298Y-26370308D01*
X3078209Y-26478663D01*
X3137524Y-26577194D01*
X3197592Y-26664469D01*
X3198106Y-26665161D01*
X3271636Y-26756400D01*
X3347571Y-26835466D01*
X3425810Y-26902279D01*
X3506252Y-26956763D01*
X3588797Y-26998839D01*
X3663950Y-27025789D01*
X3698426Y-27033265D01*
X3740881Y-27038689D01*
X3787451Y-27041916D01*
X3834275Y-27042802D01*
X3877488Y-27041204D01*
X3913226Y-27036978D01*
X3921125Y-27035360D01*
X4005620Y-27009932D01*
X4087265Y-26973197D01*
X4166324Y-26924943D01*
X4243064Y-26864955D01*
X4317748Y-26793021D01*
X4390642Y-26708928D01*
X4462010Y-26612461D01*
X4481055Y-26584262D01*
X4538752Y-26490852D01*
X4595533Y-26386450D01*
X4650654Y-26272764D01*
X4703374Y-26151499D01*
X4752948Y-26024363D01*
X4798635Y-25893063D01*
X4838932Y-25761950D01*
X4847484Y-25733035D01*
X4855185Y-25708571D01*
X4861181Y-25691171D01*
X4864581Y-25683488D01*
X4872068Y-25683005D01*
X4889615Y-25685264D01*
X4914978Y-25689878D01*
X4945908Y-25696459D01*
X4963517Y-25700548D01*
X5054562Y-25721193D01*
X5146452Y-25740006D01*
X5234420Y-25756045D01*
X5289550Y-25764885D01*
X5319086Y-25769333D01*
X5345509Y-25773357D01*
X5365291Y-25776415D01*
X5373129Y-25777665D01*
X5390032Y-25780458D01*
X5389004Y-25707734D01*
X5388054Y-25640557D01*
X4724400Y-25640557D01*
X4722496Y-25649842D01*
X4717199Y-25669204D01*
X4709129Y-25696671D01*
X4698910Y-25730272D01*
X4687162Y-25768034D01*
X4674507Y-25807987D01*
X4661568Y-25848158D01*
X4648966Y-25886577D01*
X4637322Y-25921270D01*
X4627259Y-25950267D01*
X4623107Y-25961763D01*
X4568161Y-26102352D01*
X4510743Y-26232344D01*
X4451014Y-26351523D01*
X4389134Y-26459672D01*
X4325263Y-26556573D01*
X4259563Y-26642010D01*
X4192195Y-26715765D01*
X4123319Y-26777623D01*
X4053095Y-26827365D01*
X3981685Y-26864775D01*
X3942982Y-26879674D01*
X3875264Y-26896590D01*
X3807476Y-26901384D01*
X3737845Y-26894123D01*
X3711575Y-26888471D01*
X3644334Y-26865909D01*
X3576789Y-26830998D01*
X3509329Y-26784073D01*
X3442338Y-26725468D01*
X3376203Y-26655516D01*
X3311312Y-26574550D01*
X3256145Y-26495375D01*
X3229664Y-26452537D01*
X3200022Y-26400460D01*
X3168546Y-26341782D01*
X3136565Y-26279144D01*
X3105407Y-26215186D01*
X3076401Y-26152546D01*
X3050874Y-26093866D01*
X3037286Y-26060400D01*
X3021882Y-26020066D01*
X3005623Y-25975596D01*
X2989000Y-25928520D01*
X2972503Y-25880370D01*
X2956624Y-25832676D01*
X2941853Y-25786969D01*
X2928681Y-25744780D01*
X2917598Y-25707640D01*
X2909096Y-25677079D01*
X2903665Y-25654630D01*
X2901796Y-25641822D01*
X2902367Y-25639500D01*
X2908846Y-25637094D01*
X2925950Y-25631205D01*
X2952238Y-25622317D01*
X2986270Y-25610913D01*
X3026606Y-25597477D01*
X3071805Y-25582492D01*
X3101975Y-25572525D01*
X3227523Y-25529566D01*
X3355828Y-25482770D01*
X3482998Y-25433640D01*
X3605139Y-25383676D01*
X3710509Y-25337909D01*
X3811042Y-25292813D01*
X3904184Y-25334292D01*
X3975134Y-25365220D01*
X4051155Y-25397148D01*
X4130600Y-25429462D01*
X4211820Y-25461549D01*
X4293165Y-25492793D01*
X4372988Y-25522581D01*
X4449641Y-25550299D01*
X4521473Y-25575331D01*
X4586838Y-25597065D01*
X4644086Y-25614885D01*
X4691568Y-25628178D01*
X4695856Y-25629270D01*
X4712727Y-25634316D01*
X4722972Y-25638920D01*
X4724400Y-25640557D01*
X5388054Y-25640557D01*
X5387975Y-25635009D01*
X5368925Y-25631789D01*
X5352822Y-25629208D01*
X5329400Y-25625618D01*
X5305425Y-25622045D01*
X5253824Y-25613746D01*
X5193976Y-25602919D01*
X5129895Y-25590359D01*
X5065592Y-25576854D01*
X5005081Y-25563198D01*
X4995207Y-25560857D01*
X4900888Y-25538323D01*
X4904414Y-25521549D01*
X4906842Y-25510192D01*
X4911475Y-25488696D01*
X4917821Y-25459335D01*
X4925389Y-25424379D01*
X4933688Y-25386102D01*
X4933726Y-25385924D01*
X4955215Y-25281399D01*
X4976157Y-25168978D01*
X4995691Y-25053462D01*
X5009782Y-24961670D01*
X5013270Y-24936588D01*
X5017582Y-24903692D01*
X5022483Y-24864974D01*
X5027735Y-24822428D01*
X5033105Y-24778044D01*
X5038354Y-24733818D01*
X5043249Y-24691740D01*
X5044309Y-24682388D01*
X4900065Y-24682388D01*
X4891655Y-24753856D01*
X4874374Y-24888854D01*
X4854305Y-25024773D01*
X4832025Y-25158155D01*
X4808107Y-25285543D01*
X4784746Y-25396290D01*
X4777222Y-25430025D01*
X4770786Y-25459163D01*
X4765906Y-25481561D01*
X4763050Y-25495080D01*
X4762500Y-25498082D01*
X4756680Y-25497658D01*
X4739936Y-25493409D01*
X4713348Y-25485665D01*
X4677995Y-25474755D01*
X4634954Y-25461010D01*
X4585305Y-25444759D01*
X4553279Y-25434105D01*
X4403157Y-25381556D01*
X4250226Y-25323604D01*
X4104616Y-25264226D01*
X3989084Y-25215317D01*
X3632577Y-25215317D01*
X3631804Y-25215945D01*
X3620903Y-25221136D01*
X3600093Y-25230239D01*
X3571267Y-25242479D01*
X3536316Y-25257079D01*
X3497135Y-25273260D01*
X3455616Y-25290246D01*
X3413652Y-25307261D01*
X3373135Y-25323526D01*
X3335958Y-25338265D01*
X3304015Y-25350700D01*
X3297582Y-25353162D01*
X3263496Y-25365867D01*
X3223583Y-25380267D01*
X3179514Y-25395806D01*
X3132962Y-25411924D01*
X3085597Y-25428064D01*
X3039093Y-25443667D01*
X2995121Y-25458176D01*
X2955353Y-25471032D01*
X2921462Y-25481678D01*
X2895119Y-25489554D01*
X2877996Y-25494104D01*
X2872629Y-25495012D01*
X2863790Y-25492823D01*
X2857845Y-25483903D01*
X2852839Y-25465302D01*
X2852793Y-25465087D01*
X2832448Y-25367963D01*
X2814776Y-25281049D01*
X2799405Y-25202228D01*
X2785962Y-25129380D01*
X2774074Y-25060388D01*
X2763369Y-24993132D01*
X2753472Y-24925495D01*
X2744011Y-24855359D01*
X2740182Y-24825473D01*
X2735294Y-24786416D01*
X2731006Y-24751441D01*
X2727563Y-24722588D01*
X2725205Y-24701893D01*
X2724176Y-24691395D01*
X2724150Y-24690749D01*
X2729121Y-24691273D01*
X2742833Y-24697883D01*
X2763484Y-24709585D01*
X2789276Y-24725383D01*
X2805113Y-24735530D01*
X2932518Y-24816464D01*
X3066090Y-24897731D01*
X3202542Y-24977437D01*
X3338587Y-25053691D01*
X3470937Y-25124599D01*
X3561975Y-25171221D01*
X3595706Y-25188628D01*
X3618317Y-25201524D01*
X3630408Y-25210293D01*
X3632577Y-25215317D01*
X3989084Y-25215317D01*
X3982673Y-25212603D01*
X4110649Y-25145964D01*
X4315057Y-25036413D01*
X4511281Y-24924704D01*
X4703826Y-24808197D01*
X4883670Y-24693141D01*
X4900065Y-24682388D01*
X5044309Y-24682388D01*
X5047551Y-24653804D01*
X5051027Y-24622002D01*
X5053438Y-24598327D01*
X5054551Y-24584772D01*
X5054598Y-24583224D01*
X5059515Y-24577359D01*
X5073152Y-24565519D01*
X5093844Y-24549036D01*
X5119926Y-24529244D01*
X5145088Y-24510815D01*
X5262482Y-24423962D01*
X5380349Y-24332568D01*
X5495404Y-24239277D01*
X5604361Y-24146735D01*
X5672626Y-24086186D01*
X5701891Y-24059777D01*
X5730208Y-24034330D01*
X5755252Y-24011924D01*
X5774701Y-23994641D01*
X5783136Y-23987230D01*
X5812196Y-23961936D01*
X5868695Y-24022155D01*
X5982914Y-24148286D01*
X6086036Y-24271337D01*
X6177955Y-24391138D01*
X6258566Y-24507520D01*
X6327763Y-24620314D01*
X6385440Y-24729349D01*
X6431492Y-24834457D01*
X6465813Y-24935469D01*
X6483811Y-25008536D01*
X6493869Y-25075727D01*
X6497231Y-25143409D01*
X6494094Y-25209004D01*
X6484658Y-25269935D01*
X6469121Y-25323624D01*
X6457473Y-25350273D01*
X6420015Y-25410863D01*
X6373194Y-25464624D01*
X6319035Y-25509267D01*
X6313777Y-25512821D01*
X6296362Y-25525132D01*
X6284211Y-25535151D01*
X6280150Y-25540289D01*
X6281646Y-25548788D01*
X6285521Y-25565531D01*
X6289675Y-25581999D01*
X6295195Y-25609449D01*
X6298633Y-25638590D01*
X6299200Y-25652159D01*
X6300030Y-25670868D01*
X6302163Y-25683062D01*
X6304064Y-25685750D01*
X6313716Y-25682291D01*
X6331103Y-25672991D01*
X6353674Y-25659459D01*
X6378882Y-25643307D01*
X6404177Y-25626145D01*
X6427010Y-25609586D01*
X6437417Y-25601462D01*
X6488492Y-25553294D01*
X6535137Y-25495953D01*
X6575044Y-25432788D01*
X6605902Y-25367149D01*
X6613537Y-25346025D01*
X6629002Y-25286007D01*
X6638617Y-25218194D01*
X6642185Y-25146159D01*
X6639511Y-25073479D01*
X6631898Y-25012181D01*
X6608100Y-24906326D01*
X6572191Y-24796979D01*
X6524164Y-24684127D01*
X6464008Y-24567754D01*
X6391717Y-24447847D01*
X6307282Y-24324391D01*
X6210693Y-24197373D01*
X6101943Y-24066778D01*
X5990762Y-23943046D01*
X5914993Y-23861484D01*
X5707993Y-23861484D01*
X5627359Y-23934677D01*
X5569376Y-23986866D01*
X5515894Y-24033957D01*
X5463313Y-24079033D01*
X5408031Y-24125178D01*
X5346447Y-24175475D01*
X5340350Y-24180409D01*
X5303624Y-24209854D01*
X5265445Y-24240002D01*
X5227183Y-24269816D01*
X5190209Y-24298258D01*
X5155893Y-24324293D01*
X5125604Y-24346882D01*
X5100712Y-24364989D01*
X5082589Y-24377577D01*
X5072603Y-24383610D01*
X5071375Y-24383986D01*
X5068436Y-24378836D01*
X5069376Y-24369712D01*
X5070463Y-24360000D01*
X5071907Y-24339256D01*
X5073622Y-24309141D01*
X5075521Y-24271317D01*
X5077519Y-24227444D01*
X5079531Y-24179183D01*
X5080458Y-24155400D01*
X5082686Y-24081481D01*
X5084110Y-23999784D01*
X5084752Y-23912893D01*
X5084720Y-23887737D01*
X4937284Y-23887737D01*
X4937143Y-23972134D01*
X4936526Y-24054637D01*
X4935434Y-24133963D01*
X4933867Y-24208828D01*
X4931825Y-24277947D01*
X4929307Y-24340038D01*
X4926314Y-24393815D01*
X4922846Y-24437996D01*
X4918903Y-24471296D01*
X4917149Y-24481509D01*
X4914654Y-24488066D01*
X4908859Y-24495692D01*
X4898581Y-24505298D01*
X4882636Y-24517798D01*
X4859841Y-24534104D01*
X4829010Y-24555129D01*
X4788962Y-24581787D01*
X4776136Y-24590252D01*
X4649389Y-24671862D01*
X4515419Y-24754526D01*
X4379057Y-24835310D01*
X4273550Y-24895460D01*
X4247205Y-24909968D01*
X4214118Y-24927814D01*
X4175725Y-24948256D01*
X4133461Y-24970555D01*
X4088759Y-24993969D01*
X4043055Y-25017757D01*
X3997783Y-25041178D01*
X3954378Y-25063492D01*
X3914274Y-25083956D01*
X3878907Y-25101831D01*
X3849709Y-25116374D01*
X3828118Y-25126846D01*
X3815565Y-25132505D01*
X3813081Y-25133300D01*
X3806720Y-25130552D01*
X3790451Y-25122778D01*
X3765699Y-25110679D01*
X3733892Y-25094960D01*
X3696456Y-25076322D01*
X3654816Y-25055468D01*
X3639887Y-25047964D01*
X3472884Y-24961816D01*
X3314570Y-24875601D01*
X3161114Y-24787109D01*
X3008687Y-24694131D01*
X2853461Y-24594457D01*
X2850367Y-24592423D01*
X2706709Y-24497944D01*
X2702762Y-24448909D01*
X2697035Y-24370213D01*
X2696599Y-24362550D01*
X2551674Y-24362550D01*
X2551592Y-24377916D01*
X2550070Y-24383995D01*
X2550006Y-24384000D01*
X2543742Y-24380371D01*
X2529228Y-24370369D01*
X2508317Y-24355316D01*
X2482860Y-24336535D01*
X2468304Y-24325632D01*
X2391290Y-24266632D01*
X2312078Y-24204054D01*
X2232879Y-24139735D01*
X2155903Y-24075516D01*
X2083361Y-24013233D01*
X2017462Y-23954726D01*
X1972313Y-23913099D01*
X1915800Y-23859923D01*
X2007238Y-23777170D01*
X2090335Y-23702894D01*
X2168411Y-23635201D01*
X2244930Y-23571222D01*
X2323355Y-23508090D01*
X2407150Y-23442937D01*
X2453621Y-23407590D01*
X2483483Y-23385266D01*
X2509768Y-23366080D01*
X2530858Y-23351175D01*
X2545138Y-23341693D01*
X2550990Y-23338776D01*
X2551010Y-23338792D01*
X2551463Y-23345622D01*
X2551301Y-23363399D01*
X2550579Y-23390389D01*
X2549350Y-23424856D01*
X2547667Y-23465064D01*
X2546018Y-23500434D01*
X2544650Y-23536707D01*
X2543549Y-23582589D01*
X2542709Y-23636505D01*
X2542120Y-23696883D01*
X2541775Y-23762149D01*
X2541667Y-23830730D01*
X2541786Y-23901052D01*
X2542125Y-23971541D01*
X2542676Y-24040624D01*
X2543431Y-24106729D01*
X2544382Y-24168280D01*
X2545521Y-24223706D01*
X2546840Y-24271432D01*
X2548330Y-24309885D01*
X2549985Y-24337491D01*
X2550295Y-24341137D01*
X2551674Y-24362550D01*
X2696599Y-24362550D01*
X2692453Y-24289800D01*
X2688949Y-24205621D01*
X2686459Y-24115628D01*
X2684916Y-24017772D01*
X2684255Y-23910005D01*
X2684220Y-23869650D01*
X2684409Y-23784721D01*
X2684974Y-23709647D01*
X2686004Y-23641588D01*
X2687591Y-23577702D01*
X2689824Y-23515147D01*
X2692794Y-23451083D01*
X2696591Y-23382668D01*
X2701304Y-23307060D01*
X2702799Y-23284239D01*
X2706864Y-23222703D01*
X2831395Y-23140819D01*
X3023226Y-23018133D01*
X3213542Y-22903577D01*
X3406574Y-22794712D01*
X3606552Y-22689102D01*
X3680930Y-22651475D01*
X3809034Y-22587373D01*
X3884130Y-22623026D01*
X3994184Y-22677057D01*
X4111718Y-22738064D01*
X4234538Y-22804794D01*
X4360449Y-22875993D01*
X4487258Y-22950408D01*
X4612771Y-23026788D01*
X4734792Y-23103879D01*
X4795045Y-23143113D01*
X4913314Y-23220961D01*
X4917167Y-23254793D01*
X4921304Y-23298458D01*
X4924965Y-23351784D01*
X4928151Y-23413487D01*
X4930862Y-23482284D01*
X4933097Y-23556891D01*
X4934857Y-23636023D01*
X4936141Y-23718398D01*
X4936951Y-23802730D01*
X4937284Y-23887737D01*
X5084720Y-23887737D01*
X5084636Y-23823391D01*
X5083787Y-23733861D01*
X5082227Y-23646887D01*
X5079981Y-23565053D01*
X5077072Y-23490940D01*
X5073827Y-23431741D01*
X5071894Y-23398993D01*
X5070602Y-23371016D01*
X5070030Y-23350126D01*
X5070256Y-23338639D01*
X5070598Y-23337185D01*
X5076828Y-23339569D01*
X5091768Y-23349176D01*
X5114319Y-23365158D01*
X5143385Y-23386670D01*
X5177867Y-23412864D01*
X5216669Y-23442894D01*
X5258692Y-23475914D01*
X5302838Y-23511077D01*
X5348011Y-23547535D01*
X5393113Y-23584443D01*
X5419725Y-23606487D01*
X5468362Y-23647161D01*
X5509891Y-23682383D01*
X5547131Y-23714620D01*
X5582902Y-23746344D01*
X5620021Y-23780023D01*
X5661307Y-23818127D01*
X5662284Y-23819035D01*
X5707993Y-23861484D01*
X5914993Y-23861484D01*
X5913705Y-23860098D01*
X5976943Y-23793436D01*
X6095279Y-23663763D01*
X6202574Y-23535922D01*
X6298678Y-23410152D01*
X6383441Y-23286694D01*
X6456713Y-23165786D01*
X6518344Y-23047670D01*
X6568183Y-22932585D01*
X6606080Y-22820771D01*
X6620840Y-22764750D01*
X6630005Y-22716527D01*
X6636657Y-22661898D01*
X6640595Y-22604801D01*
X6641535Y-22553668D01*
X6496865Y-22553668D01*
X6495947Y-22610020D01*
X6491120Y-22666227D01*
X6483781Y-22711839D01*
X6459248Y-22806519D01*
X6423454Y-22905768D01*
X6376737Y-23008984D01*
X6319437Y-23115568D01*
X6251893Y-23224919D01*
X6174444Y-23336438D01*
X6087429Y-23449523D01*
X6023192Y-23526750D01*
X5993091Y-23561459D01*
X5961760Y-23596853D01*
X5930406Y-23631640D01*
X5900235Y-23664530D01*
X5872456Y-23694231D01*
X5848273Y-23719453D01*
X5828894Y-23738905D01*
X5815526Y-23751295D01*
X5809517Y-23755350D01*
X5802739Y-23751230D01*
X5788914Y-23740046D01*
X5770128Y-23723559D01*
X5750772Y-23705710D01*
X5669710Y-23631475D01*
X5579872Y-23553022D01*
X5483599Y-23472266D01*
X5383236Y-23391124D01*
X5281126Y-23311513D01*
X5179611Y-23235349D01*
X5143965Y-23209362D01*
X5110998Y-23185278D01*
X5087039Y-23167030D01*
X5070623Y-23153273D01*
X5060284Y-23142660D01*
X5054558Y-23133846D01*
X5051977Y-23125484D01*
X5051859Y-23124767D01*
X5050066Y-23111321D01*
X5047296Y-23088083D01*
X5043874Y-23057894D01*
X5040391Y-23026012D01*
X4895850Y-23026012D01*
X4893348Y-23028695D01*
X4885116Y-23026465D01*
X4870069Y-23018746D01*
X4847123Y-23004966D01*
X4815191Y-22984548D01*
X4805363Y-22978134D01*
X4770994Y-22955949D01*
X4729171Y-22929447D01*
X4683362Y-22900795D01*
X4637032Y-22872161D01*
X4593648Y-22845711D01*
X4591078Y-22844158D01*
X4504749Y-22792861D01*
X4414536Y-22740764D01*
X4323493Y-22689569D01*
X4234671Y-22640975D01*
X4151124Y-22596684D01*
X4097361Y-22569124D01*
X4063467Y-22551845D01*
X4033836Y-22536366D01*
X4010203Y-22523626D01*
X3994305Y-22514560D01*
X3987878Y-22510109D01*
X3987824Y-22509957D01*
X3988960Y-22509183D01*
X3639596Y-22509183D01*
X3520011Y-22571217D01*
X3379409Y-22645812D01*
X3239142Y-22723437D01*
X3102002Y-22802477D01*
X2970782Y-22881313D01*
X2848274Y-22958330D01*
X2822694Y-22974918D01*
X2792135Y-22994740D01*
X2765506Y-23011799D01*
X2744514Y-23025017D01*
X2730868Y-23033317D01*
X2726273Y-23035688D01*
X2726637Y-23029299D01*
X2728408Y-23012242D01*
X2731366Y-22986449D01*
X2735286Y-22953847D01*
X2739948Y-22916365D01*
X2740667Y-22910686D01*
X2758444Y-22779716D01*
X2777875Y-22655311D01*
X2799942Y-22531354D01*
X2810456Y-22476821D01*
X2819557Y-22431482D01*
X2828879Y-22386606D01*
X2838022Y-22343964D01*
X2846591Y-22305324D01*
X2854185Y-22272458D01*
X2860407Y-22247135D01*
X2864858Y-22231124D01*
X2866839Y-22226244D01*
X2873683Y-22227033D01*
X2890671Y-22231293D01*
X2915911Y-22238440D01*
X2947512Y-22247890D01*
X2983583Y-22259057D01*
X3022232Y-22271358D01*
X3061568Y-22284209D01*
X3099700Y-22297024D01*
X3130550Y-22307735D01*
X3214117Y-22337863D01*
X3298970Y-22369527D01*
X3382536Y-22401715D01*
X3462239Y-22433417D01*
X3535505Y-22463621D01*
X3599758Y-22491316D01*
X3612086Y-22496818D01*
X3639596Y-22509183D01*
X3988960Y-22509183D01*
X3993483Y-22506104D01*
X4009476Y-22498283D01*
X4034295Y-22487117D01*
X4066433Y-22473230D01*
X4104383Y-22457246D01*
X4146638Y-22439790D01*
X4191691Y-22421485D01*
X4238034Y-22402955D01*
X4284161Y-22384824D01*
X4328565Y-22367717D01*
X4359696Y-22355983D01*
X4410959Y-22337185D01*
X4463352Y-22318528D01*
X4515471Y-22300464D01*
X4565909Y-22283443D01*
X4613263Y-22267916D01*
X4656127Y-22254334D01*
X4693096Y-22243149D01*
X4722765Y-22234811D01*
X4743729Y-22229771D01*
X4754583Y-22228480D01*
X4755658Y-22228892D01*
X4758412Y-22236528D01*
X4763275Y-22254692D01*
X4769816Y-22281468D01*
X4777607Y-22314941D01*
X4786219Y-22353195D01*
X4795222Y-22394314D01*
X4804187Y-22436382D01*
X4812684Y-22477484D01*
X4820284Y-22515703D01*
X4822383Y-22526625D01*
X4829469Y-22565415D01*
X4837254Y-22610712D01*
X4845475Y-22660730D01*
X4853869Y-22713684D01*
X4862173Y-22767788D01*
X4870124Y-22821257D01*
X4877461Y-22872305D01*
X4883920Y-22919149D01*
X4889239Y-22960002D01*
X4893155Y-22993078D01*
X4895405Y-23016594D01*
X4895850Y-23026012D01*
X5040391Y-23026012D01*
X5040126Y-23023595D01*
X5038594Y-23009225D01*
X5021574Y-22866378D01*
X5000320Y-22717852D01*
X4975626Y-22568534D01*
X4948288Y-22423309D01*
X4926577Y-22320250D01*
X4918362Y-22282875D01*
X4911130Y-22249444D01*
X4905328Y-22222060D01*
X4901402Y-22202827D01*
X4899797Y-22193850D01*
X4899792Y-22193802D01*
X4903476Y-22188718D01*
X4915751Y-22182668D01*
X4937264Y-22175478D01*
X4968659Y-22166977D01*
X5010580Y-22156990D01*
X5063672Y-22145345D01*
X5128581Y-22131870D01*
X5137150Y-22130130D01*
X5290914Y-22102299D01*
X5438203Y-22082339D01*
X5578489Y-22070259D01*
X5711245Y-22066068D01*
X5835943Y-22069774D01*
X5952054Y-22081385D01*
X6059051Y-22100910D01*
X6111875Y-22114468D01*
X6193942Y-22142956D01*
X6267360Y-22178924D01*
X6331598Y-22221889D01*
X6386125Y-22271365D01*
X6430410Y-22326867D01*
X6463923Y-22387911D01*
X6486133Y-22454012D01*
X6486783Y-22456775D01*
X6493826Y-22501233D01*
X6496865Y-22553668D01*
X6641535Y-22553668D01*
X6641618Y-22549175D01*
X6639527Y-22498958D01*
X6635926Y-22468020D01*
X6623249Y-22411300D01*
X6603867Y-22352022D01*
X6579865Y-22296043D01*
X6564266Y-22266737D01*
X6531226Y-22218942D01*
X6488337Y-22170631D01*
X6438137Y-22124073D01*
X6383167Y-22081535D01*
X6325969Y-22045287D01*
X6302041Y-22032559D01*
X6254589Y-22011733D01*
X6197279Y-21991384D01*
X6132948Y-21972295D01*
X6064434Y-21955248D01*
X5994573Y-21941026D01*
X5937250Y-21931881D01*
X5907856Y-21928981D01*
X5868205Y-21926728D01*
X5820725Y-21925124D01*
X5767841Y-21924168D01*
X5711980Y-21923859D01*
X5655570Y-21924197D01*
X5601037Y-21925183D01*
X5550807Y-21926815D01*
X5507308Y-21929094D01*
X5473700Y-21931937D01*
X5409525Y-21939783D01*
X5337784Y-21949834D01*
X5263122Y-21961360D01*
X5190180Y-21973634D01*
X5123601Y-21985927D01*
X5102266Y-21990180D01*
X5061838Y-21998618D01*
X5020159Y-22007643D01*
X4979452Y-22016741D01*
X4941939Y-22025398D01*
X4909844Y-22033100D01*
X4885390Y-22039331D01*
X4870800Y-22043577D01*
X4869555Y-22044029D01*
X4863749Y-22043311D01*
X4857995Y-22035203D01*
X4851315Y-22017860D01*
X4845283Y-21998278D01*
X4836702Y-21969741D01*
X4826115Y-21935725D01*
X4814193Y-21898267D01*
X4801613Y-21859409D01*
X4789046Y-21821190D01*
X4777168Y-21785648D01*
X4766652Y-21754824D01*
X4758172Y-21730757D01*
X4752401Y-21715486D01*
X4750465Y-21711306D01*
X4745476Y-21707329D01*
X4736377Y-21707547D01*
X4720466Y-21712408D01*
X4703014Y-21719137D01*
X4677641Y-21728406D01*
X4652929Y-21735984D01*
X4636113Y-21739863D01*
X4610924Y-21743891D01*
X4638206Y-21820933D01*
X4649134Y-21852634D01*
X4660924Y-21888259D01*
X4672979Y-21925835D01*
X4684698Y-21963383D01*
X4695483Y-21998930D01*
X4704736Y-22030500D01*
X4711859Y-22056116D01*
X4716252Y-22073803D01*
X4717317Y-22081586D01*
X4717228Y-22081735D01*
X4710858Y-22084197D01*
X4693857Y-22090178D01*
X4667649Y-22099191D01*
X4633655Y-22110753D01*
X4593298Y-22124378D01*
X4548001Y-22139583D01*
X4514850Y-22150662D01*
X4349994Y-22208045D01*
X4185564Y-22269902D01*
X4026042Y-22334501D01*
X3913871Y-22383014D01*
X3811366Y-22428675D01*
X3717021Y-22386404D01*
X3602993Y-22336870D01*
X3482060Y-22287191D01*
X3357887Y-22238766D01*
X3234136Y-22192992D01*
X3222860Y-22189060D01*
X2724150Y-22189060D01*
X2722811Y-22197231D01*
X2719091Y-22215664D01*
X2713442Y-22242239D01*
X2706312Y-22274836D01*
X2699055Y-22307329D01*
X2673592Y-22427635D01*
X2649292Y-22556686D01*
X2626795Y-22690536D01*
X2606739Y-22825241D01*
X2589763Y-22956856D01*
X2580744Y-23038282D01*
X2569918Y-23143539D01*
X2464472Y-23220749D01*
X2332349Y-23319483D01*
X2209240Y-23415750D01*
X2092371Y-23511801D01*
X1978965Y-23609891D01*
X1920875Y-23662056D01*
X1883682Y-23695537D01*
X1854748Y-23720781D01*
X1833257Y-23738432D01*
X1818393Y-23749138D01*
X1809338Y-23753543D01*
X1805771Y-23753008D01*
X1799114Y-23746063D01*
X1785456Y-23731630D01*
X1766478Y-23711492D01*
X1743861Y-23687430D01*
X1730566Y-23673261D01*
X1632942Y-23565265D01*
X1542082Y-23456862D01*
X1458878Y-23349261D01*
X1384225Y-23243675D01*
X1319015Y-23141316D01*
X1264142Y-23043394D01*
X1259446Y-23034261D01*
X1225729Y-22965602D01*
X1198335Y-22903748D01*
X1175939Y-22845363D01*
X1157218Y-22787114D01*
X1147725Y-22752850D01*
X1140176Y-22723052D01*
X1134863Y-22698251D01*
X1131390Y-22674927D01*
X1129365Y-22649557D01*
X1128392Y-22618623D01*
X1128077Y-22578602D01*
X1128074Y-22577425D01*
X1128139Y-22538057D01*
X1128766Y-22508460D01*
X1130277Y-22485703D01*
X1132993Y-22466860D01*
X1137237Y-22449002D01*
X1143329Y-22429200D01*
X1144872Y-22424527D01*
X1173439Y-22358031D01*
X1212472Y-22297913D01*
X1260965Y-22245543D01*
X1298252Y-22215469D01*
X1364586Y-22174073D01*
X1438071Y-22139659D01*
X1519334Y-22112091D01*
X1609008Y-22091232D01*
X1707723Y-22076944D01*
X1816107Y-22069090D01*
X1934793Y-22067533D01*
X1974463Y-22068327D01*
X2088543Y-22073766D01*
X2202505Y-22084047D01*
X2319027Y-22099532D01*
X2440787Y-22120586D01*
X2570463Y-22147574D01*
X2590800Y-22152165D01*
X2625845Y-22160138D01*
X2657712Y-22167365D01*
X2683802Y-22173257D01*
X2701516Y-22177227D01*
X2706688Y-22178366D01*
X2719338Y-22183260D01*
X2724150Y-22189060D01*
X3222860Y-22189060D01*
X3114470Y-22151266D01*
X3019471Y-22120268D01*
X2983633Y-22108944D01*
X2952239Y-22098924D01*
X2927190Y-22090824D01*
X2910387Y-22085259D01*
X2903734Y-22082844D01*
X2903707Y-22082823D01*
X2904717Y-22076199D01*
X2909176Y-22059356D01*
X2916515Y-22034120D01*
X2926166Y-22002319D01*
X2937559Y-21965781D01*
X2950126Y-21926333D01*
X2963298Y-21885803D01*
X2976505Y-21846019D01*
X2987353Y-21814102D01*
X3024083Y-21712756D01*
X3062960Y-21616674D01*
X3106146Y-21520763D01*
X3150526Y-21430308D01*
X3213530Y-21314184D01*
X3278335Y-21210627D01*
X3344942Y-21119637D01*
X3413348Y-21041216D01*
X3483553Y-20975364D01*
X3555557Y-20922083D01*
X3602081Y-20894845D01*
X3644985Y-20873580D01*
X3682270Y-20858561D01*
X3718391Y-20848298D01*
X3757801Y-20841300D01*
X3765050Y-20840340D01*
X3830916Y-20837632D01*
X3896695Y-20846458D01*
X3962958Y-20867023D01*
X4030276Y-20899529D01*
X4099220Y-20944179D01*
X4135761Y-20972149D01*
X4178947Y-21006869D01*
X4205611Y-20979037D01*
X4225523Y-20959383D01*
X4246972Y-20939879D01*
X4257675Y-20930900D01*
X4283075Y-20910594D01*
X4248150Y-20878680D01*
X4221306Y-20856077D01*
X4188013Y-20830918D01*
X4151536Y-20805412D01*
X4115137Y-20781765D01*
X4082078Y-20762183D01*
X4057395Y-20749646D01*
X4034416Y-20740197D01*
X4004955Y-20729055D01*
X3974645Y-20718337D01*
X3968716Y-20716343D01*
X3947286Y-20709499D01*
X3928875Y-20704655D01*
X3910519Y-20701472D01*
X3889249Y-20699609D01*
X3862102Y-20698725D01*
X3826109Y-20698479D01*
X3813175Y-20698478D01*
X3773424Y-20698688D01*
X3773424Y-20698688D01*
G37*
X3773424Y-20698688D02*
X3743287Y-20699477D01*
X3719681Y-20701186D01*
X3699523Y-20704155D01*
X3679729Y-20708725D01*
X3657216Y-20715236D01*
X3654817Y-20715970D01*
X3571040Y-20748226D01*
X3489319Y-20792848D01*
X3409785Y-20849652D01*
X3332569Y-20918452D01*
X3257801Y-20999061D01*
X3185612Y-21091294D01*
X3116132Y-21194966D01*
X3049493Y-21309889D01*
X2985824Y-21435879D01*
X2925257Y-21572749D01*
X2867922Y-21720313D01*
X2813950Y-21878386D01*
X2794935Y-21939250D01*
X2784233Y-21973363D01*
X2774454Y-22002719D01*
X2766293Y-22025375D01*
X2760443Y-22039388D01*
X2757852Y-22043065D01*
X2750291Y-22041390D01*
X2732423Y-22037327D01*
X2706312Y-22031347D01*
X2674025Y-22023923D01*
X2640568Y-22016208D01*
X2456134Y-21977631D01*
X2276710Y-21948143D01*
X2201869Y-21938383D01*
X2151564Y-21933377D01*
X2093885Y-21929351D01*
X2031310Y-21926337D01*
X1966315Y-21924368D01*
X1901378Y-21923476D01*
X1838975Y-21923693D01*
X1781585Y-21925052D01*
X1731685Y-21927585D01*
X1691751Y-21931325D01*
X1689100Y-21931672D01*
X1576537Y-21950498D01*
X1474716Y-21975387D01*
X1383106Y-22006560D01*
X1301172Y-22044241D01*
X1228380Y-22088649D01*
X1164198Y-22140009D01*
X1145475Y-22157864D01*
X1090392Y-22221139D01*
X1046482Y-22290045D01*
X1013667Y-22364322D01*
X991868Y-22443711D01*
X981009Y-22527952D01*
X981010Y-22616786D01*
X991793Y-22709953D01*
X1013280Y-22807193D01*
X1045394Y-22908247D01*
X1088055Y-23012856D01*
X1141185Y-23120760D01*
X1204707Y-23231700D01*
X1278542Y-23345415D01*
X1362611Y-23461647D01*
X1456838Y-23580136D01*
X1561143Y-23700622D01*
X1634117Y-23779683D01*
X1658511Y-23805743D01*
X1679520Y-23828677D01*
X1695712Y-23846883D01*
X1705655Y-23858756D01*
X1708150Y-23862574D01*
X1703929Y-23869248D01*
X1693162Y-23881185D01*
X1685231Y-23889041D01*
X1672504Y-23901757D01*
X1653518Y-23921434D01*
X1630575Y-23945655D01*
X1605979Y-23972000D01*
X1599030Y-23979516D01*
X1535748Y-24048107D01*
X1572737Y-24072316D01*
X1595036Y-24088080D01*
X1615797Y-24104708D01*
X1628509Y-24116576D01*
X1647292Y-24136627D01*
X1730717Y-24049202D01*
X1814143Y-23961778D01*
X1886559Y-24028895D01*
X2046506Y-24171337D01*
X2218325Y-24313153D01*
X2402418Y-24454676D01*
X2413148Y-24462636D01*
X2457529Y-24495478D01*
X2492790Y-24521621D01*
X2519975Y-24541979D01*
X2540127Y-24557468D01*
X2554289Y-24569003D01*
X2563506Y-24577501D01*
X2568821Y-24583875D01*
X2571278Y-24589042D01*
X2571919Y-24593917D01*
X2571789Y-24599415D01*
X2571754Y-24601758D01*
X2572759Y-24624846D01*
X2575616Y-24658764D01*
X2580095Y-24701813D01*
X2585971Y-24752293D01*
X2593013Y-24808506D01*
X2600995Y-24868753D01*
X2609689Y-24931334D01*
X2618866Y-24994551D01*
X2628299Y-25056705D01*
X2637759Y-25116097D01*
X2647020Y-25171028D01*
X2651596Y-25196800D01*
X2658986Y-25236450D01*
X2667532Y-25280434D01*
X2676783Y-25326606D01*
X2686287Y-25372823D01*
X2695593Y-25416937D01*
X2704249Y-25456805D01*
X2711803Y-25490280D01*
X2717804Y-25515218D01*
X2721300Y-25527953D01*
X2720856Y-25532724D01*
X2715151Y-25537279D01*
X2702454Y-25542275D01*
X2681032Y-25548372D01*
X2649152Y-25556230D01*
X2643415Y-25557589D01*
X2509392Y-25587402D01*
X2384359Y-25611310D01*
X2266197Y-25629569D01*
X2152791Y-25642434D01*
X2042024Y-25650161D01*
X1931778Y-25653007D01*
X1859322Y-25652358D01*
X1785468Y-25649923D01*
X1721488Y-25645886D01*
X1664619Y-25639886D01*
X1612095Y-25631565D01*
X1561153Y-25620562D01*
X1510847Y-25607049D01*
X1427898Y-25577885D01*
X1353965Y-25541470D01*
X1289517Y-25498221D01*
X1235025Y-25448552D01*
X1190959Y-25392878D01*
X1157788Y-25331614D01*
X1139546Y-25279350D01*
X1128502Y-25219631D01*
X1125168Y-25152056D01*
X1129459Y-25078790D01*
X1141286Y-25001999D01*
X1152821Y-24951804D01*
X1159482Y-24925704D01*
X1164717Y-24904315D01*
X1167824Y-24890548D01*
X1168377Y-24887158D01*
X1163026Y-24882222D01*
X1149453Y-24874958D01*
X1140343Y-24870957D01*
X1118914Y-24861023D01*
X1093626Y-24847737D01*
X1077639Y-24838548D01*
X1042946Y-24817657D01*
X1023257Y-24881816D01*
X1007071Y-24937631D01*
X995470Y-24986010D01*
X987811Y-25031089D01*
X983449Y-25077006D01*
X981741Y-25127898D01*
X981653Y-25149175D01*
X982556Y-25200151D01*
X985504Y-25242432D01*
X991189Y-25279948D01*
X1000302Y-25316630D01*
X1013535Y-25356410D01*
X1022142Y-25379281D01*
X1056202Y-25449953D01*
X1101362Y-25515260D01*
X1157016Y-25574765D01*
X1222558Y-25628033D01*
X1297385Y-25674628D01*
X1380890Y-25714114D01*
X1472469Y-25746056D01*
X1562100Y-25768156D01*
X1605537Y-25776597D01*
X1644395Y-25783238D01*
X1681178Y-25788282D01*
X1718390Y-25791930D01*
X1758535Y-25794386D01*
X1804118Y-25795851D01*
X1857641Y-25796528D01*
X1914525Y-25796631D01*
X2016505Y-25795003D01*
X2114246Y-25790188D01*
X2210444Y-25781854D01*
X2307794Y-25769669D01*
X2408990Y-25753303D01*
X2516728Y-25732424D01*
X2619375Y-25709989D01*
X2656572Y-25701509D01*
X2690154Y-25693875D01*
X2717893Y-25687592D01*
X2737556Y-25683166D01*
X2746638Y-25681160D01*
X2753332Y-25681199D01*
X2758803Y-25686038D01*
X2764275Y-25697878D01*
X2770971Y-25718921D01*
X2774519Y-25731300D01*
X2815672Y-25867293D01*
X2861477Y-26000622D01*
X2911282Y-26129856D01*
X2964439Y-26253562D01*
X3020298Y-26370308D01*
X3078209Y-26478663D01*
X3137524Y-26577194D01*
X3197592Y-26664469D01*
X3198106Y-26665161D01*
X3271636Y-26756400D01*
X3347571Y-26835466D01*
X3425810Y-26902279D01*
X3506252Y-26956763D01*
X3588797Y-26998839D01*
X3663950Y-27025789D01*
X3698426Y-27033265D01*
X3740881Y-27038689D01*
X3787451Y-27041916D01*
X3834275Y-27042802D01*
X3877488Y-27041204D01*
X3913226Y-27036978D01*
X3921125Y-27035360D01*
X4005620Y-27009932D01*
X4087265Y-26973197D01*
X4166324Y-26924943D01*
X4243064Y-26864955D01*
X4317748Y-26793021D01*
X4390642Y-26708928D01*
X4462010Y-26612461D01*
X4481055Y-26584262D01*
X4538752Y-26490852D01*
X4595533Y-26386450D01*
X4650654Y-26272764D01*
X4703374Y-26151499D01*
X4752948Y-26024363D01*
X4798635Y-25893063D01*
X4838932Y-25761950D01*
X4847484Y-25733035D01*
X4855185Y-25708571D01*
X4861181Y-25691171D01*
X4864581Y-25683488D01*
X4872068Y-25683005D01*
X4889615Y-25685264D01*
X4914978Y-25689878D01*
X4945908Y-25696459D01*
X4963517Y-25700548D01*
X5054562Y-25721193D01*
X5146452Y-25740006D01*
X5234420Y-25756045D01*
X5289550Y-25764885D01*
X5319086Y-25769333D01*
X5345509Y-25773357D01*
X5365291Y-25776415D01*
X5373129Y-25777665D01*
X5390032Y-25780458D01*
X5389004Y-25707734D01*
X5388054Y-25640557D01*
X4724400Y-25640557D01*
X4722496Y-25649842D01*
X4717199Y-25669204D01*
X4709129Y-25696671D01*
X4698910Y-25730272D01*
X4687162Y-25768034D01*
X4674507Y-25807987D01*
X4661568Y-25848158D01*
X4648966Y-25886577D01*
X4637322Y-25921270D01*
X4627259Y-25950267D01*
X4623107Y-25961763D01*
X4568161Y-26102352D01*
X4510743Y-26232344D01*
X4451014Y-26351523D01*
X4389134Y-26459672D01*
X4325263Y-26556573D01*
X4259563Y-26642010D01*
X4192195Y-26715765D01*
X4123319Y-26777623D01*
X4053095Y-26827365D01*
X3981685Y-26864775D01*
X3942982Y-26879674D01*
X3875264Y-26896590D01*
X3807476Y-26901384D01*
X3737845Y-26894123D01*
X3711575Y-26888471D01*
X3644334Y-26865909D01*
X3576789Y-26830998D01*
X3509329Y-26784073D01*
X3442338Y-26725468D01*
X3376203Y-26655516D01*
X3311312Y-26574550D01*
X3256145Y-26495375D01*
X3229664Y-26452537D01*
X3200022Y-26400460D01*
X3168546Y-26341782D01*
X3136565Y-26279144D01*
X3105407Y-26215186D01*
X3076401Y-26152546D01*
X3050874Y-26093866D01*
X3037286Y-26060400D01*
X3021882Y-26020066D01*
X3005623Y-25975596D01*
X2989000Y-25928520D01*
X2972503Y-25880370D01*
X2956624Y-25832676D01*
X2941853Y-25786969D01*
X2928681Y-25744780D01*
X2917598Y-25707640D01*
X2909096Y-25677079D01*
X2903665Y-25654630D01*
X2901796Y-25641822D01*
X2902367Y-25639500D01*
X2908846Y-25637094D01*
X2925950Y-25631205D01*
X2952238Y-25622317D01*
X2986270Y-25610913D01*
X3026606Y-25597477D01*
X3071805Y-25582492D01*
X3101975Y-25572525D01*
X3227523Y-25529566D01*
X3355828Y-25482770D01*
X3482998Y-25433640D01*
X3605139Y-25383676D01*
X3710509Y-25337909D01*
X3811042Y-25292813D01*
X3904184Y-25334292D01*
X3975134Y-25365220D01*
X4051155Y-25397148D01*
X4130600Y-25429462D01*
X4211820Y-25461549D01*
X4293165Y-25492793D01*
X4372988Y-25522581D01*
X4449641Y-25550299D01*
X4521473Y-25575331D01*
X4586838Y-25597065D01*
X4644086Y-25614885D01*
X4691568Y-25628178D01*
X4695856Y-25629270D01*
X4712727Y-25634316D01*
X4722972Y-25638920D01*
X4724400Y-25640557D01*
X5388054Y-25640557D01*
X5387975Y-25635009D01*
X5368925Y-25631789D01*
X5352822Y-25629208D01*
X5329400Y-25625618D01*
X5305425Y-25622045D01*
X5253824Y-25613746D01*
X5193976Y-25602919D01*
X5129895Y-25590359D01*
X5065592Y-25576854D01*
X5005081Y-25563198D01*
X4995207Y-25560857D01*
X4900888Y-25538323D01*
X4904414Y-25521549D01*
X4906842Y-25510192D01*
X4911475Y-25488696D01*
X4917821Y-25459335D01*
X4925389Y-25424379D01*
X4933688Y-25386102D01*
X4933726Y-25385924D01*
X4955215Y-25281399D01*
X4976157Y-25168978D01*
X4995691Y-25053462D01*
X5009782Y-24961670D01*
X5013270Y-24936588D01*
X5017582Y-24903692D01*
X5022483Y-24864974D01*
X5027735Y-24822428D01*
X5033105Y-24778044D01*
X5038354Y-24733818D01*
X5043249Y-24691740D01*
X5044309Y-24682388D01*
X4900065Y-24682388D01*
X4891655Y-24753856D01*
X4874374Y-24888854D01*
X4854305Y-25024773D01*
X4832025Y-25158155D01*
X4808107Y-25285543D01*
X4784746Y-25396290D01*
X4777222Y-25430025D01*
X4770786Y-25459163D01*
X4765906Y-25481561D01*
X4763050Y-25495080D01*
X4762500Y-25498082D01*
X4756680Y-25497658D01*
X4739936Y-25493409D01*
X4713348Y-25485665D01*
X4677995Y-25474755D01*
X4634954Y-25461010D01*
X4585305Y-25444759D01*
X4553279Y-25434105D01*
X4403157Y-25381556D01*
X4250226Y-25323604D01*
X4104616Y-25264226D01*
X3989084Y-25215317D01*
X3632577Y-25215317D01*
X3631804Y-25215945D01*
X3620903Y-25221136D01*
X3600093Y-25230239D01*
X3571267Y-25242479D01*
X3536316Y-25257079D01*
X3497135Y-25273260D01*
X3455616Y-25290246D01*
X3413652Y-25307261D01*
X3373135Y-25323526D01*
X3335958Y-25338265D01*
X3304015Y-25350700D01*
X3297582Y-25353162D01*
X3263496Y-25365867D01*
X3223583Y-25380267D01*
X3179514Y-25395806D01*
X3132962Y-25411924D01*
X3085597Y-25428064D01*
X3039093Y-25443667D01*
X2995121Y-25458176D01*
X2955353Y-25471032D01*
X2921462Y-25481678D01*
X2895119Y-25489554D01*
X2877996Y-25494104D01*
X2872629Y-25495012D01*
X2863790Y-25492823D01*
X2857845Y-25483903D01*
X2852839Y-25465302D01*
X2852793Y-25465087D01*
X2832448Y-25367963D01*
X2814776Y-25281049D01*
X2799405Y-25202228D01*
X2785962Y-25129380D01*
X2774074Y-25060388D01*
X2763369Y-24993132D01*
X2753472Y-24925495D01*
X2744011Y-24855359D01*
X2740182Y-24825473D01*
X2735294Y-24786416D01*
X2731006Y-24751441D01*
X2727563Y-24722588D01*
X2725205Y-24701893D01*
X2724176Y-24691395D01*
X2724150Y-24690749D01*
X2729121Y-24691273D01*
X2742833Y-24697883D01*
X2763484Y-24709585D01*
X2789276Y-24725383D01*
X2805113Y-24735530D01*
X2932518Y-24816464D01*
X3066090Y-24897731D01*
X3202542Y-24977437D01*
X3338587Y-25053691D01*
X3470937Y-25124599D01*
X3561975Y-25171221D01*
X3595706Y-25188628D01*
X3618317Y-25201524D01*
X3630408Y-25210293D01*
X3632577Y-25215317D01*
X3989084Y-25215317D01*
X3982673Y-25212603D01*
X4110649Y-25145964D01*
X4315057Y-25036413D01*
X4511281Y-24924704D01*
X4703826Y-24808197D01*
X4883670Y-24693141D01*
X4900065Y-24682388D01*
X5044309Y-24682388D01*
X5047551Y-24653804D01*
X5051027Y-24622002D01*
X5053438Y-24598327D01*
X5054551Y-24584772D01*
X5054598Y-24583224D01*
X5059515Y-24577359D01*
X5073152Y-24565519D01*
X5093844Y-24549036D01*
X5119926Y-24529244D01*
X5145088Y-24510815D01*
X5262482Y-24423962D01*
X5380349Y-24332568D01*
X5495404Y-24239277D01*
X5604361Y-24146735D01*
X5672626Y-24086186D01*
X5701891Y-24059777D01*
X5730208Y-24034330D01*
X5755252Y-24011924D01*
X5774701Y-23994641D01*
X5783136Y-23987230D01*
X5812196Y-23961936D01*
X5868695Y-24022155D01*
X5982914Y-24148286D01*
X6086036Y-24271337D01*
X6177955Y-24391138D01*
X6258566Y-24507520D01*
X6327763Y-24620314D01*
X6385440Y-24729349D01*
X6431492Y-24834457D01*
X6465813Y-24935469D01*
X6483811Y-25008536D01*
X6493869Y-25075727D01*
X6497231Y-25143409D01*
X6494094Y-25209004D01*
X6484658Y-25269935D01*
X6469121Y-25323624D01*
X6457473Y-25350273D01*
X6420015Y-25410863D01*
X6373194Y-25464624D01*
X6319035Y-25509267D01*
X6313777Y-25512821D01*
X6296362Y-25525132D01*
X6284211Y-25535151D01*
X6280150Y-25540289D01*
X6281646Y-25548788D01*
X6285521Y-25565531D01*
X6289675Y-25581999D01*
X6295195Y-25609449D01*
X6298633Y-25638590D01*
X6299200Y-25652159D01*
X6300030Y-25670868D01*
X6302163Y-25683062D01*
X6304064Y-25685750D01*
X6313716Y-25682291D01*
X6331103Y-25672991D01*
X6353674Y-25659459D01*
X6378882Y-25643307D01*
X6404177Y-25626145D01*
X6427010Y-25609586D01*
X6437417Y-25601462D01*
X6488492Y-25553294D01*
X6535137Y-25495953D01*
X6575044Y-25432788D01*
X6605902Y-25367149D01*
X6613537Y-25346025D01*
X6629002Y-25286007D01*
X6638617Y-25218194D01*
X6642185Y-25146159D01*
X6639511Y-25073479D01*
X6631898Y-25012181D01*
X6608100Y-24906326D01*
X6572191Y-24796979D01*
X6524164Y-24684127D01*
X6464008Y-24567754D01*
X6391717Y-24447847D01*
X6307282Y-24324391D01*
X6210693Y-24197373D01*
X6101943Y-24066778D01*
X5990762Y-23943046D01*
X5914993Y-23861484D01*
X5707993Y-23861484D01*
X5627359Y-23934677D01*
X5569376Y-23986866D01*
X5515894Y-24033957D01*
X5463313Y-24079033D01*
X5408031Y-24125178D01*
X5346447Y-24175475D01*
X5340350Y-24180409D01*
X5303624Y-24209854D01*
X5265445Y-24240002D01*
X5227183Y-24269816D01*
X5190209Y-24298258D01*
X5155893Y-24324293D01*
X5125604Y-24346882D01*
X5100712Y-24364989D01*
X5082589Y-24377577D01*
X5072603Y-24383610D01*
X5071375Y-24383986D01*
X5068436Y-24378836D01*
X5069376Y-24369712D01*
X5070463Y-24360000D01*
X5071907Y-24339256D01*
X5073622Y-24309141D01*
X5075521Y-24271317D01*
X5077519Y-24227444D01*
X5079531Y-24179183D01*
X5080458Y-24155400D01*
X5082686Y-24081481D01*
X5084110Y-23999784D01*
X5084752Y-23912893D01*
X5084720Y-23887737D01*
X4937284Y-23887737D01*
X4937143Y-23972134D01*
X4936526Y-24054637D01*
X4935434Y-24133963D01*
X4933867Y-24208828D01*
X4931825Y-24277947D01*
X4929307Y-24340038D01*
X4926314Y-24393815D01*
X4922846Y-24437996D01*
X4918903Y-24471296D01*
X4917149Y-24481509D01*
X4914654Y-24488066D01*
X4908859Y-24495692D01*
X4898581Y-24505298D01*
X4882636Y-24517798D01*
X4859841Y-24534104D01*
X4829010Y-24555129D01*
X4788962Y-24581787D01*
X4776136Y-24590252D01*
X4649389Y-24671862D01*
X4515419Y-24754526D01*
X4379057Y-24835310D01*
X4273550Y-24895460D01*
X4247205Y-24909968D01*
X4214118Y-24927814D01*
X4175725Y-24948256D01*
X4133461Y-24970555D01*
X4088759Y-24993969D01*
X4043055Y-25017757D01*
X3997783Y-25041178D01*
X3954378Y-25063492D01*
X3914274Y-25083956D01*
X3878907Y-25101831D01*
X3849709Y-25116374D01*
X3828118Y-25126846D01*
X3815565Y-25132505D01*
X3813081Y-25133300D01*
X3806720Y-25130552D01*
X3790451Y-25122778D01*
X3765699Y-25110679D01*
X3733892Y-25094960D01*
X3696456Y-25076322D01*
X3654816Y-25055468D01*
X3639887Y-25047964D01*
X3472884Y-24961816D01*
X3314570Y-24875601D01*
X3161114Y-24787109D01*
X3008687Y-24694131D01*
X2853461Y-24594457D01*
X2850367Y-24592423D01*
X2706709Y-24497944D01*
X2702762Y-24448909D01*
X2697035Y-24370213D01*
X2696599Y-24362550D01*
X2551674Y-24362550D01*
X2551592Y-24377916D01*
X2550070Y-24383995D01*
X2550006Y-24384000D01*
X2543742Y-24380371D01*
X2529228Y-24370369D01*
X2508317Y-24355316D01*
X2482860Y-24336535D01*
X2468304Y-24325632D01*
X2391290Y-24266632D01*
X2312078Y-24204054D01*
X2232879Y-24139735D01*
X2155903Y-24075516D01*
X2083361Y-24013233D01*
X2017462Y-23954726D01*
X1972313Y-23913099D01*
X1915800Y-23859923D01*
X2007238Y-23777170D01*
X2090335Y-23702894D01*
X2168411Y-23635201D01*
X2244930Y-23571222D01*
X2323355Y-23508090D01*
X2407150Y-23442937D01*
X2453621Y-23407590D01*
X2483483Y-23385266D01*
X2509768Y-23366080D01*
X2530858Y-23351175D01*
X2545138Y-23341693D01*
X2550990Y-23338776D01*
X2551010Y-23338792D01*
X2551463Y-23345622D01*
X2551301Y-23363399D01*
X2550579Y-23390389D01*
X2549350Y-23424856D01*
X2547667Y-23465064D01*
X2546018Y-23500434D01*
X2544650Y-23536707D01*
X2543549Y-23582589D01*
X2542709Y-23636505D01*
X2542120Y-23696883D01*
X2541775Y-23762149D01*
X2541667Y-23830730D01*
X2541786Y-23901052D01*
X2542125Y-23971541D01*
X2542676Y-24040624D01*
X2543431Y-24106729D01*
X2544382Y-24168280D01*
X2545521Y-24223706D01*
X2546840Y-24271432D01*
X2548330Y-24309885D01*
X2549985Y-24337491D01*
X2550295Y-24341137D01*
X2551674Y-24362550D01*
X2696599Y-24362550D01*
X2692453Y-24289800D01*
X2688949Y-24205621D01*
X2686459Y-24115628D01*
X2684916Y-24017772D01*
X2684255Y-23910005D01*
X2684220Y-23869650D01*
X2684409Y-23784721D01*
X2684974Y-23709647D01*
X2686004Y-23641588D01*
X2687591Y-23577702D01*
X2689824Y-23515147D01*
X2692794Y-23451083D01*
X2696591Y-23382668D01*
X2701304Y-23307060D01*
X2702799Y-23284239D01*
X2706864Y-23222703D01*
X2831395Y-23140819D01*
X3023226Y-23018133D01*
X3213542Y-22903577D01*
X3406574Y-22794712D01*
X3606552Y-22689102D01*
X3680930Y-22651475D01*
X3809034Y-22587373D01*
X3884130Y-22623026D01*
X3994184Y-22677057D01*
X4111718Y-22738064D01*
X4234538Y-22804794D01*
X4360449Y-22875993D01*
X4487258Y-22950408D01*
X4612771Y-23026788D01*
X4734792Y-23103879D01*
X4795045Y-23143113D01*
X4913314Y-23220961D01*
X4917167Y-23254793D01*
X4921304Y-23298458D01*
X4924965Y-23351784D01*
X4928151Y-23413487D01*
X4930862Y-23482284D01*
X4933097Y-23556891D01*
X4934857Y-23636023D01*
X4936141Y-23718398D01*
X4936951Y-23802730D01*
X4937284Y-23887737D01*
X5084720Y-23887737D01*
X5084636Y-23823391D01*
X5083787Y-23733861D01*
X5082227Y-23646887D01*
X5079981Y-23565053D01*
X5077072Y-23490940D01*
X5073827Y-23431741D01*
X5071894Y-23398993D01*
X5070602Y-23371016D01*
X5070030Y-23350126D01*
X5070256Y-23338639D01*
X5070598Y-23337185D01*
X5076828Y-23339569D01*
X5091768Y-23349176D01*
X5114319Y-23365158D01*
X5143385Y-23386670D01*
X5177867Y-23412864D01*
X5216669Y-23442894D01*
X5258692Y-23475914D01*
X5302838Y-23511077D01*
X5348011Y-23547535D01*
X5393113Y-23584443D01*
X5419725Y-23606487D01*
X5468362Y-23647161D01*
X5509891Y-23682383D01*
X5547131Y-23714620D01*
X5582902Y-23746344D01*
X5620021Y-23780023D01*
X5661307Y-23818127D01*
X5662284Y-23819035D01*
X5707993Y-23861484D01*
X5914993Y-23861484D01*
X5913705Y-23860098D01*
X5976943Y-23793436D01*
X6095279Y-23663763D01*
X6202574Y-23535922D01*
X6298678Y-23410152D01*
X6383441Y-23286694D01*
X6456713Y-23165786D01*
X6518344Y-23047670D01*
X6568183Y-22932585D01*
X6606080Y-22820771D01*
X6620840Y-22764750D01*
X6630005Y-22716527D01*
X6636657Y-22661898D01*
X6640595Y-22604801D01*
X6641535Y-22553668D01*
X6496865Y-22553668D01*
X6495947Y-22610020D01*
X6491120Y-22666227D01*
X6483781Y-22711839D01*
X6459248Y-22806519D01*
X6423454Y-22905768D01*
X6376737Y-23008984D01*
X6319437Y-23115568D01*
X6251893Y-23224919D01*
X6174444Y-23336438D01*
X6087429Y-23449523D01*
X6023192Y-23526750D01*
X5993091Y-23561459D01*
X5961760Y-23596853D01*
X5930406Y-23631640D01*
X5900235Y-23664530D01*
X5872456Y-23694231D01*
X5848273Y-23719453D01*
X5828894Y-23738905D01*
X5815526Y-23751295D01*
X5809517Y-23755350D01*
X5802739Y-23751230D01*
X5788914Y-23740046D01*
X5770128Y-23723559D01*
X5750772Y-23705710D01*
X5669710Y-23631475D01*
X5579872Y-23553022D01*
X5483599Y-23472266D01*
X5383236Y-23391124D01*
X5281126Y-23311513D01*
X5179611Y-23235349D01*
X5143965Y-23209362D01*
X5110998Y-23185278D01*
X5087039Y-23167030D01*
X5070623Y-23153273D01*
X5060284Y-23142660D01*
X5054558Y-23133846D01*
X5051977Y-23125484D01*
X5051859Y-23124767D01*
X5050066Y-23111321D01*
X5047296Y-23088083D01*
X5043874Y-23057894D01*
X5040391Y-23026012D01*
X4895850Y-23026012D01*
X4893348Y-23028695D01*
X4885116Y-23026465D01*
X4870069Y-23018746D01*
X4847123Y-23004966D01*
X4815191Y-22984548D01*
X4805363Y-22978134D01*
X4770994Y-22955949D01*
X4729171Y-22929447D01*
X4683362Y-22900795D01*
X4637032Y-22872161D01*
X4593648Y-22845711D01*
X4591078Y-22844158D01*
X4504749Y-22792861D01*
X4414536Y-22740764D01*
X4323493Y-22689569D01*
X4234671Y-22640975D01*
X4151124Y-22596684D01*
X4097361Y-22569124D01*
X4063467Y-22551845D01*
X4033836Y-22536366D01*
X4010203Y-22523626D01*
X3994305Y-22514560D01*
X3987878Y-22510109D01*
X3987824Y-22509957D01*
X3988960Y-22509183D01*
X3639596Y-22509183D01*
X3520011Y-22571217D01*
X3379409Y-22645812D01*
X3239142Y-22723437D01*
X3102002Y-22802477D01*
X2970782Y-22881313D01*
X2848274Y-22958330D01*
X2822694Y-22974918D01*
X2792135Y-22994740D01*
X2765506Y-23011799D01*
X2744514Y-23025017D01*
X2730868Y-23033317D01*
X2726273Y-23035688D01*
X2726637Y-23029299D01*
X2728408Y-23012242D01*
X2731366Y-22986449D01*
X2735286Y-22953847D01*
X2739948Y-22916365D01*
X2740667Y-22910686D01*
X2758444Y-22779716D01*
X2777875Y-22655311D01*
X2799942Y-22531354D01*
X2810456Y-22476821D01*
X2819557Y-22431482D01*
X2828879Y-22386606D01*
X2838022Y-22343964D01*
X2846591Y-22305324D01*
X2854185Y-22272458D01*
X2860407Y-22247135D01*
X2864858Y-22231124D01*
X2866839Y-22226244D01*
X2873683Y-22227033D01*
X2890671Y-22231293D01*
X2915911Y-22238440D01*
X2947512Y-22247890D01*
X2983583Y-22259057D01*
X3022232Y-22271358D01*
X3061568Y-22284209D01*
X3099700Y-22297024D01*
X3130550Y-22307735D01*
X3214117Y-22337863D01*
X3298970Y-22369527D01*
X3382536Y-22401715D01*
X3462239Y-22433417D01*
X3535505Y-22463621D01*
X3599758Y-22491316D01*
X3612086Y-22496818D01*
X3639596Y-22509183D01*
X3988960Y-22509183D01*
X3993483Y-22506104D01*
X4009476Y-22498283D01*
X4034295Y-22487117D01*
X4066433Y-22473230D01*
X4104383Y-22457246D01*
X4146638Y-22439790D01*
X4191691Y-22421485D01*
X4238034Y-22402955D01*
X4284161Y-22384824D01*
X4328565Y-22367717D01*
X4359696Y-22355983D01*
X4410959Y-22337185D01*
X4463352Y-22318528D01*
X4515471Y-22300464D01*
X4565909Y-22283443D01*
X4613263Y-22267916D01*
X4656127Y-22254334D01*
X4693096Y-22243149D01*
X4722765Y-22234811D01*
X4743729Y-22229771D01*
X4754583Y-22228480D01*
X4755658Y-22228892D01*
X4758412Y-22236528D01*
X4763275Y-22254692D01*
X4769816Y-22281468D01*
X4777607Y-22314941D01*
X4786219Y-22353195D01*
X4795222Y-22394314D01*
X4804187Y-22436382D01*
X4812684Y-22477484D01*
X4820284Y-22515703D01*
X4822383Y-22526625D01*
X4829469Y-22565415D01*
X4837254Y-22610712D01*
X4845475Y-22660730D01*
X4853869Y-22713684D01*
X4862173Y-22767788D01*
X4870124Y-22821257D01*
X4877461Y-22872305D01*
X4883920Y-22919149D01*
X4889239Y-22960002D01*
X4893155Y-22993078D01*
X4895405Y-23016594D01*
X4895850Y-23026012D01*
X5040391Y-23026012D01*
X5040126Y-23023595D01*
X5038594Y-23009225D01*
X5021574Y-22866378D01*
X5000320Y-22717852D01*
X4975626Y-22568534D01*
X4948288Y-22423309D01*
X4926577Y-22320250D01*
X4918362Y-22282875D01*
X4911130Y-22249444D01*
X4905328Y-22222060D01*
X4901402Y-22202827D01*
X4899797Y-22193850D01*
X4899792Y-22193802D01*
X4903476Y-22188718D01*
X4915751Y-22182668D01*
X4937264Y-22175478D01*
X4968659Y-22166977D01*
X5010580Y-22156990D01*
X5063672Y-22145345D01*
X5128581Y-22131870D01*
X5137150Y-22130130D01*
X5290914Y-22102299D01*
X5438203Y-22082339D01*
X5578489Y-22070259D01*
X5711245Y-22066068D01*
X5835943Y-22069774D01*
X5952054Y-22081385D01*
X6059051Y-22100910D01*
X6111875Y-22114468D01*
X6193942Y-22142956D01*
X6267360Y-22178924D01*
X6331598Y-22221889D01*
X6386125Y-22271365D01*
X6430410Y-22326867D01*
X6463923Y-22387911D01*
X6486133Y-22454012D01*
X6486783Y-22456775D01*
X6493826Y-22501233D01*
X6496865Y-22553668D01*
X6641535Y-22553668D01*
X6641618Y-22549175D01*
X6639527Y-22498958D01*
X6635926Y-22468020D01*
X6623249Y-22411300D01*
X6603867Y-22352022D01*
X6579865Y-22296043D01*
X6564266Y-22266737D01*
X6531226Y-22218942D01*
X6488337Y-22170631D01*
X6438137Y-22124073D01*
X6383167Y-22081535D01*
X6325969Y-22045287D01*
X6302041Y-22032559D01*
X6254589Y-22011733D01*
X6197279Y-21991384D01*
X6132948Y-21972295D01*
X6064434Y-21955248D01*
X5994573Y-21941026D01*
X5937250Y-21931881D01*
X5907856Y-21928981D01*
X5868205Y-21926728D01*
X5820725Y-21925124D01*
X5767841Y-21924168D01*
X5711980Y-21923859D01*
X5655570Y-21924197D01*
X5601037Y-21925183D01*
X5550807Y-21926815D01*
X5507308Y-21929094D01*
X5473700Y-21931937D01*
X5409525Y-21939783D01*
X5337784Y-21949834D01*
X5263122Y-21961360D01*
X5190180Y-21973634D01*
X5123601Y-21985927D01*
X5102266Y-21990180D01*
X5061838Y-21998618D01*
X5020159Y-22007643D01*
X4979452Y-22016741D01*
X4941939Y-22025398D01*
X4909844Y-22033100D01*
X4885390Y-22039331D01*
X4870800Y-22043577D01*
X4869555Y-22044029D01*
X4863749Y-22043311D01*
X4857995Y-22035203D01*
X4851315Y-22017860D01*
X4845283Y-21998278D01*
X4836702Y-21969741D01*
X4826115Y-21935725D01*
X4814193Y-21898267D01*
X4801613Y-21859409D01*
X4789046Y-21821190D01*
X4777168Y-21785648D01*
X4766652Y-21754824D01*
X4758172Y-21730757D01*
X4752401Y-21715486D01*
X4750465Y-21711306D01*
X4745476Y-21707329D01*
X4736377Y-21707547D01*
X4720466Y-21712408D01*
X4703014Y-21719137D01*
X4677641Y-21728406D01*
X4652929Y-21735984D01*
X4636113Y-21739863D01*
X4610924Y-21743891D01*
X4638206Y-21820933D01*
X4649134Y-21852634D01*
X4660924Y-21888259D01*
X4672979Y-21925835D01*
X4684698Y-21963383D01*
X4695483Y-21998930D01*
X4704736Y-22030500D01*
X4711859Y-22056116D01*
X4716252Y-22073803D01*
X4717317Y-22081586D01*
X4717228Y-22081735D01*
X4710858Y-22084197D01*
X4693857Y-22090178D01*
X4667649Y-22099191D01*
X4633655Y-22110753D01*
X4593298Y-22124378D01*
X4548001Y-22139583D01*
X4514850Y-22150662D01*
X4349994Y-22208045D01*
X4185564Y-22269902D01*
X4026042Y-22334501D01*
X3913871Y-22383014D01*
X3811366Y-22428675D01*
X3717021Y-22386404D01*
X3602993Y-22336870D01*
X3482060Y-22287191D01*
X3357887Y-22238766D01*
X3234136Y-22192992D01*
X3222860Y-22189060D01*
X2724150Y-22189060D01*
X2722811Y-22197231D01*
X2719091Y-22215664D01*
X2713442Y-22242239D01*
X2706312Y-22274836D01*
X2699055Y-22307329D01*
X2673592Y-22427635D01*
X2649292Y-22556686D01*
X2626795Y-22690536D01*
X2606739Y-22825241D01*
X2589763Y-22956856D01*
X2580744Y-23038282D01*
X2569918Y-23143539D01*
X2464472Y-23220749D01*
X2332349Y-23319483D01*
X2209240Y-23415750D01*
X2092371Y-23511801D01*
X1978965Y-23609891D01*
X1920875Y-23662056D01*
X1883682Y-23695537D01*
X1854748Y-23720781D01*
X1833257Y-23738432D01*
X1818393Y-23749138D01*
X1809338Y-23753543D01*
X1805771Y-23753008D01*
X1799114Y-23746063D01*
X1785456Y-23731630D01*
X1766478Y-23711492D01*
X1743861Y-23687430D01*
X1730566Y-23673261D01*
X1632942Y-23565265D01*
X1542082Y-23456862D01*
X1458878Y-23349261D01*
X1384225Y-23243675D01*
X1319015Y-23141316D01*
X1264142Y-23043394D01*
X1259446Y-23034261D01*
X1225729Y-22965602D01*
X1198335Y-22903748D01*
X1175939Y-22845363D01*
X1157218Y-22787114D01*
X1147725Y-22752850D01*
X1140176Y-22723052D01*
X1134863Y-22698251D01*
X1131390Y-22674927D01*
X1129365Y-22649557D01*
X1128392Y-22618623D01*
X1128077Y-22578602D01*
X1128074Y-22577425D01*
X1128139Y-22538057D01*
X1128766Y-22508460D01*
X1130277Y-22485703D01*
X1132993Y-22466860D01*
X1137237Y-22449002D01*
X1143329Y-22429200D01*
X1144872Y-22424527D01*
X1173439Y-22358031D01*
X1212472Y-22297913D01*
X1260965Y-22245543D01*
X1298252Y-22215469D01*
X1364586Y-22174073D01*
X1438071Y-22139659D01*
X1519334Y-22112091D01*
X1609008Y-22091232D01*
X1707723Y-22076944D01*
X1816107Y-22069090D01*
X1934793Y-22067533D01*
X1974463Y-22068327D01*
X2088543Y-22073766D01*
X2202505Y-22084047D01*
X2319027Y-22099532D01*
X2440787Y-22120586D01*
X2570463Y-22147574D01*
X2590800Y-22152165D01*
X2625845Y-22160138D01*
X2657712Y-22167365D01*
X2683802Y-22173257D01*
X2701516Y-22177227D01*
X2706688Y-22178366D01*
X2719338Y-22183260D01*
X2724150Y-22189060D01*
X3222860Y-22189060D01*
X3114470Y-22151266D01*
X3019471Y-22120268D01*
X2983633Y-22108944D01*
X2952239Y-22098924D01*
X2927190Y-22090824D01*
X2910387Y-22085259D01*
X2903734Y-22082844D01*
X2903707Y-22082823D01*
X2904717Y-22076199D01*
X2909176Y-22059356D01*
X2916515Y-22034120D01*
X2926166Y-22002319D01*
X2937559Y-21965781D01*
X2950126Y-21926333D01*
X2963298Y-21885803D01*
X2976505Y-21846019D01*
X2987353Y-21814102D01*
X3024083Y-21712756D01*
X3062960Y-21616674D01*
X3106146Y-21520763D01*
X3150526Y-21430308D01*
X3213530Y-21314184D01*
X3278335Y-21210627D01*
X3344942Y-21119637D01*
X3413348Y-21041216D01*
X3483553Y-20975364D01*
X3555557Y-20922083D01*
X3602081Y-20894845D01*
X3644985Y-20873580D01*
X3682270Y-20858561D01*
X3718391Y-20848298D01*
X3757801Y-20841300D01*
X3765050Y-20840340D01*
X3830916Y-20837632D01*
X3896695Y-20846458D01*
X3962958Y-20867023D01*
X4030276Y-20899529D01*
X4099220Y-20944179D01*
X4135761Y-20972149D01*
X4178947Y-21006869D01*
X4205611Y-20979037D01*
X4225523Y-20959383D01*
X4246972Y-20939879D01*
X4257675Y-20930900D01*
X4283075Y-20910594D01*
X4248150Y-20878680D01*
X4221306Y-20856077D01*
X4188013Y-20830918D01*
X4151536Y-20805412D01*
X4115137Y-20781765D01*
X4082078Y-20762183D01*
X4057395Y-20749646D01*
X4034416Y-20740197D01*
X4004955Y-20729055D01*
X3974645Y-20718337D01*
X3968716Y-20716343D01*
X3947286Y-20709499D01*
X3928875Y-20704655D01*
X3910519Y-20701472D01*
X3889249Y-20699609D01*
X3862102Y-20698725D01*
X3826109Y-20698479D01*
X3813175Y-20698478D01*
X3773424Y-20698688D01*
M02*
