%TF.GenerationSoftware,KiCad,Pcbnew,4.0.7*%
%TF.CreationDate,2018-05-06T16:02:13+02:00*%
%TF.ProjectId,RGBModule,5247424D6F64756C652E6B696361645F,rev?*%
%TF.FileFunction,Copper,L2,Bot,Signal*%
%FSLAX46Y46*%
G04 Gerber Fmt 4.6, Leading zero omitted, Abs format (unit mm)*
G04 Created by KiCad (PCBNEW 4.0.7) date 05/06/18 16:02:13*
%MOMM*%
%LPD*%
G01*
G04 APERTURE LIST*
%ADD10C,0.100000*%
%ADD11R,1.700000X1.700000*%
%ADD12O,1.700000X1.700000*%
%ADD13C,0.685800*%
%ADD14C,0.400000*%
G04 APERTURE END LIST*
D10*
D11*
X12827000Y-21793200D03*
D12*
X10287000Y-21793200D03*
X7747000Y-21793200D03*
X5207000Y-21793200D03*
D13*
X9017000Y-19050000D03*
D14*
X12827000Y-21793200D02*
X12827000Y-21463000D01*
X12827000Y-21463000D02*
X10668000Y-19304000D01*
X9271000Y-19304000D02*
X9017000Y-19050000D01*
X10668000Y-19304000D02*
X9271000Y-19304000D01*
D10*
G36*
X16451892Y-713654D02*
X17048623Y-1112377D01*
X17447346Y-1709108D01*
X17593500Y-2443875D01*
X17593500Y-22439314D01*
X17396318Y-23205633D01*
X16934509Y-23820038D01*
X16272728Y-24210949D01*
X15471888Y-24324500D01*
X2325686Y-24324500D01*
X1559367Y-24127318D01*
X944962Y-23665509D01*
X554051Y-23003728D01*
X441881Y-22212627D01*
X3862905Y-22212627D01*
X4125726Y-22695063D01*
X4553161Y-23040198D01*
X4787576Y-23137278D01*
X5003000Y-23045189D01*
X5003000Y-21997200D01*
X3953340Y-21997200D01*
X3862905Y-22212627D01*
X441881Y-22212627D01*
X440500Y-22202888D01*
X440500Y-21373773D01*
X3862905Y-21373773D01*
X3953340Y-21589200D01*
X5003000Y-21589200D01*
X5003000Y-20541211D01*
X5411000Y-20541211D01*
X5411000Y-21589200D01*
X5431000Y-21589200D01*
X5431000Y-21997200D01*
X5411000Y-21997200D01*
X5411000Y-23045189D01*
X5626424Y-23137278D01*
X5860839Y-23040198D01*
X6288274Y-22695063D01*
X6551095Y-22212627D01*
X6460661Y-21997202D01*
X6615000Y-21997202D01*
X6615000Y-21926410D01*
X6680843Y-22257425D01*
X6930999Y-22631809D01*
X7305383Y-22881965D01*
X7747000Y-22969808D01*
X8188617Y-22881965D01*
X8563001Y-22631809D01*
X8813157Y-22257425D01*
X8901000Y-21815808D01*
X8901000Y-21770592D01*
X9133000Y-21770592D01*
X9133000Y-21815808D01*
X9220843Y-22257425D01*
X9470999Y-22631809D01*
X9845383Y-22881965D01*
X10287000Y-22969808D01*
X10728617Y-22881965D01*
X11103001Y-22631809D01*
X11353157Y-22257425D01*
X11441000Y-21815808D01*
X11441000Y-21770592D01*
X11353157Y-21328975D01*
X11103001Y-20954591D01*
X11085954Y-20943200D01*
X11667045Y-20943200D01*
X11667045Y-22643200D01*
X11688243Y-22755855D01*
X11754822Y-22859323D01*
X11856410Y-22928735D01*
X11977000Y-22953155D01*
X13677000Y-22953155D01*
X13789655Y-22931957D01*
X13893123Y-22865378D01*
X13962535Y-22763790D01*
X13986955Y-22643200D01*
X13986955Y-20943200D01*
X13965757Y-20830545D01*
X13899178Y-20727077D01*
X13797590Y-20657665D01*
X13677000Y-20633245D01*
X11977000Y-20633245D01*
X11864345Y-20654443D01*
X11760877Y-20721022D01*
X11691465Y-20822610D01*
X11667045Y-20943200D01*
X11085954Y-20943200D01*
X10728617Y-20704435D01*
X10287000Y-20616592D01*
X9845383Y-20704435D01*
X9470999Y-20954591D01*
X9220843Y-21328975D01*
X9133000Y-21770592D01*
X8901000Y-21770592D01*
X8813157Y-21328975D01*
X8563001Y-20954591D01*
X8188617Y-20704435D01*
X7747000Y-20616592D01*
X7305383Y-20704435D01*
X6930999Y-20954591D01*
X6680843Y-21328975D01*
X6615000Y-21659990D01*
X6615000Y-21589198D01*
X6460661Y-21589198D01*
X6551095Y-21373773D01*
X6288274Y-20891337D01*
X5860839Y-20546202D01*
X5626424Y-20449122D01*
X5411000Y-20541211D01*
X5003000Y-20541211D01*
X4787576Y-20449122D01*
X4553161Y-20546202D01*
X4125726Y-20891337D01*
X3862905Y-21373773D01*
X440500Y-21373773D01*
X440500Y-18411068D01*
X635670Y-18411068D01*
X924926Y-19111121D01*
X1460062Y-19647192D01*
X2159609Y-19937669D01*
X2917068Y-19938330D01*
X3617121Y-19649074D01*
X4153192Y-19113938D01*
X4443669Y-18414391D01*
X4443671Y-18411068D01*
X13462670Y-18411068D01*
X13751926Y-19111121D01*
X14287062Y-19647192D01*
X14986609Y-19937669D01*
X15744068Y-19938330D01*
X16444121Y-19649074D01*
X16980192Y-19113938D01*
X17270669Y-18414391D01*
X17271330Y-17656932D01*
X16982074Y-16956879D01*
X16446938Y-16420808D01*
X15747391Y-16130331D01*
X14989932Y-16129670D01*
X14289879Y-16418926D01*
X13753808Y-16954062D01*
X13463331Y-17653609D01*
X13462670Y-18411068D01*
X4443671Y-18411068D01*
X4444330Y-17656932D01*
X4155074Y-16956879D01*
X3619938Y-16420808D01*
X2920391Y-16130331D01*
X2162932Y-16129670D01*
X1462879Y-16418926D01*
X926808Y-16954062D01*
X636331Y-17653609D01*
X635670Y-18411068D01*
X440500Y-18411068D01*
X440500Y-2443876D01*
X586654Y-1709108D01*
X985377Y-1112377D01*
X1582108Y-713654D01*
X2316875Y-567500D01*
X15717124Y-567500D01*
X16451892Y-713654D01*
X16451892Y-713654D01*
G37*
X16451892Y-713654D02*
X17048623Y-1112377D01*
X17447346Y-1709108D01*
X17593500Y-2443875D01*
X17593500Y-22439314D01*
X17396318Y-23205633D01*
X16934509Y-23820038D01*
X16272728Y-24210949D01*
X15471888Y-24324500D01*
X2325686Y-24324500D01*
X1559367Y-24127318D01*
X944962Y-23665509D01*
X554051Y-23003728D01*
X441881Y-22212627D01*
X3862905Y-22212627D01*
X4125726Y-22695063D01*
X4553161Y-23040198D01*
X4787576Y-23137278D01*
X5003000Y-23045189D01*
X5003000Y-21997200D01*
X3953340Y-21997200D01*
X3862905Y-22212627D01*
X441881Y-22212627D01*
X440500Y-22202888D01*
X440500Y-21373773D01*
X3862905Y-21373773D01*
X3953340Y-21589200D01*
X5003000Y-21589200D01*
X5003000Y-20541211D01*
X5411000Y-20541211D01*
X5411000Y-21589200D01*
X5431000Y-21589200D01*
X5431000Y-21997200D01*
X5411000Y-21997200D01*
X5411000Y-23045189D01*
X5626424Y-23137278D01*
X5860839Y-23040198D01*
X6288274Y-22695063D01*
X6551095Y-22212627D01*
X6460661Y-21997202D01*
X6615000Y-21997202D01*
X6615000Y-21926410D01*
X6680843Y-22257425D01*
X6930999Y-22631809D01*
X7305383Y-22881965D01*
X7747000Y-22969808D01*
X8188617Y-22881965D01*
X8563001Y-22631809D01*
X8813157Y-22257425D01*
X8901000Y-21815808D01*
X8901000Y-21770592D01*
X9133000Y-21770592D01*
X9133000Y-21815808D01*
X9220843Y-22257425D01*
X9470999Y-22631809D01*
X9845383Y-22881965D01*
X10287000Y-22969808D01*
X10728617Y-22881965D01*
X11103001Y-22631809D01*
X11353157Y-22257425D01*
X11441000Y-21815808D01*
X11441000Y-21770592D01*
X11353157Y-21328975D01*
X11103001Y-20954591D01*
X11085954Y-20943200D01*
X11667045Y-20943200D01*
X11667045Y-22643200D01*
X11688243Y-22755855D01*
X11754822Y-22859323D01*
X11856410Y-22928735D01*
X11977000Y-22953155D01*
X13677000Y-22953155D01*
X13789655Y-22931957D01*
X13893123Y-22865378D01*
X13962535Y-22763790D01*
X13986955Y-22643200D01*
X13986955Y-20943200D01*
X13965757Y-20830545D01*
X13899178Y-20727077D01*
X13797590Y-20657665D01*
X13677000Y-20633245D01*
X11977000Y-20633245D01*
X11864345Y-20654443D01*
X11760877Y-20721022D01*
X11691465Y-20822610D01*
X11667045Y-20943200D01*
X11085954Y-20943200D01*
X10728617Y-20704435D01*
X10287000Y-20616592D01*
X9845383Y-20704435D01*
X9470999Y-20954591D01*
X9220843Y-21328975D01*
X9133000Y-21770592D01*
X8901000Y-21770592D01*
X8813157Y-21328975D01*
X8563001Y-20954591D01*
X8188617Y-20704435D01*
X7747000Y-20616592D01*
X7305383Y-20704435D01*
X6930999Y-20954591D01*
X6680843Y-21328975D01*
X6615000Y-21659990D01*
X6615000Y-21589198D01*
X6460661Y-21589198D01*
X6551095Y-21373773D01*
X6288274Y-20891337D01*
X5860839Y-20546202D01*
X5626424Y-20449122D01*
X5411000Y-20541211D01*
X5003000Y-20541211D01*
X4787576Y-20449122D01*
X4553161Y-20546202D01*
X4125726Y-20891337D01*
X3862905Y-21373773D01*
X440500Y-21373773D01*
X440500Y-18411068D01*
X635670Y-18411068D01*
X924926Y-19111121D01*
X1460062Y-19647192D01*
X2159609Y-19937669D01*
X2917068Y-19938330D01*
X3617121Y-19649074D01*
X4153192Y-19113938D01*
X4443669Y-18414391D01*
X4443671Y-18411068D01*
X13462670Y-18411068D01*
X13751926Y-19111121D01*
X14287062Y-19647192D01*
X14986609Y-19937669D01*
X15744068Y-19938330D01*
X16444121Y-19649074D01*
X16980192Y-19113938D01*
X17270669Y-18414391D01*
X17271330Y-17656932D01*
X16982074Y-16956879D01*
X16446938Y-16420808D01*
X15747391Y-16130331D01*
X14989932Y-16129670D01*
X14289879Y-16418926D01*
X13753808Y-16954062D01*
X13463331Y-17653609D01*
X13462670Y-18411068D01*
X4443671Y-18411068D01*
X4444330Y-17656932D01*
X4155074Y-16956879D01*
X3619938Y-16420808D01*
X2920391Y-16130331D01*
X2162932Y-16129670D01*
X1462879Y-16418926D01*
X926808Y-16954062D01*
X636331Y-17653609D01*
X635670Y-18411068D01*
X440500Y-18411068D01*
X440500Y-2443876D01*
X586654Y-1709108D01*
X985377Y-1112377D01*
X1582108Y-713654D01*
X2316875Y-567500D01*
X15717124Y-567500D01*
X16451892Y-713654D01*
M02*
