%TF.GenerationSoftware,KiCad,Pcbnew,4.0.7*%
%TF.CreationDate,2018-07-15T20:08:15+02:00*%
%TF.ProjectId,RGBModule,5247424D6F64756C652E6B696361645F,rev?*%
%TF.FileFunction,Legend,Top*%
%FSLAX46Y46*%
G04 Gerber Fmt 4.6, Leading zero omitted, Abs format (unit mm)*
G04 Created by KiCad (PCBNEW 4.0.7) date 07/15/18 20:08:15*
%MOMM*%
%LPD*%
G01*
G04 APERTURE LIST*
%ADD10C,0.100000*%
%ADD11C,0.250000*%
%ADD12C,0.150000*%
G04 APERTURE END LIST*
D10*
D11*
X5588048Y-19121429D02*
X6349953Y-19121429D01*
X11882429Y-18978571D02*
X12025286Y-19026190D01*
X12072905Y-19073810D01*
X12120524Y-19169048D01*
X12120524Y-19311905D01*
X12072905Y-19407143D01*
X12025286Y-19454762D01*
X11930048Y-19502381D01*
X11549095Y-19502381D01*
X11549095Y-18502381D01*
X11882429Y-18502381D01*
X11977667Y-18550000D01*
X12025286Y-18597619D01*
X12072905Y-18692857D01*
X12072905Y-18788095D01*
X12025286Y-18883333D01*
X11977667Y-18930952D01*
X11882429Y-18978571D01*
X11549095Y-18978571D01*
X10294905Y-18550000D02*
X10199667Y-18502381D01*
X10056810Y-18502381D01*
X9913952Y-18550000D01*
X9818714Y-18645238D01*
X9771095Y-18740476D01*
X9723476Y-18930952D01*
X9723476Y-19073810D01*
X9771095Y-19264286D01*
X9818714Y-19359524D01*
X9913952Y-19454762D01*
X10056810Y-19502381D01*
X10152048Y-19502381D01*
X10294905Y-19454762D01*
X10342524Y-19407143D01*
X10342524Y-19073810D01*
X10152048Y-19073810D01*
X8310524Y-19502381D02*
X7977190Y-19026190D01*
X7739095Y-19502381D02*
X7739095Y-18502381D01*
X8120048Y-18502381D01*
X8215286Y-18550000D01*
X8262905Y-18597619D01*
X8310524Y-18692857D01*
X8310524Y-18835714D01*
X8262905Y-18930952D01*
X8215286Y-18978571D01*
X8120048Y-19026190D01*
X7739095Y-19026190D01*
D12*
X12051000Y-15402000D02*
X12051000Y-16602000D01*
X10301000Y-16602000D02*
X10301000Y-15402000D01*
X8142000Y-16602000D02*
X8142000Y-15402000D01*
X9892000Y-15402000D02*
X9892000Y-16602000D01*
X5983000Y-16602000D02*
X5983000Y-15402000D01*
X7733000Y-15402000D02*
X7733000Y-16602000D01*
M02*
