%TF.GenerationSoftware,KiCad,Pcbnew,4.0.7-e2-6376~58~ubuntu16.04.1*%
%TF.CreationDate,2018-01-20T16:01:05+01:00*%
%TF.ProjectId,RGBModule,5247424D6F64756C652E6B696361645F,rev?*%
%TF.FileFunction,Copper,L2,Bot,Signal*%
%FSLAX46Y46*%
G04 Gerber Fmt 4.6, Leading zero omitted, Abs format (unit mm)*
G04 Created by KiCad (PCBNEW 4.0.7-e2-6376~58~ubuntu16.04.1) date Sat Jan 20 16:01:05 2018*
%MOMM*%
%LPD*%
G01*
G04 APERTURE LIST*
%ADD10C,0.100000*%
%ADD11R,1.200000X1.700000*%
%ADD12O,1.200000X1.700000*%
G04 APERTURE END LIST*
D10*
D11*
X5969000Y-21463000D03*
D12*
X7969000Y-21463000D03*
X9969000Y-21463000D03*
X11969000Y-21463000D03*
D10*
G36*
X16451892Y-713654D02*
X17048623Y-1112377D01*
X17447346Y-1709108D01*
X17593500Y-2443875D01*
X17593500Y-22439314D01*
X17396318Y-23205633D01*
X16934509Y-23820038D01*
X16272728Y-24210949D01*
X15471888Y-24324500D01*
X2325686Y-24324500D01*
X1559367Y-24127318D01*
X944962Y-23665509D01*
X554051Y-23003728D01*
X440500Y-22202888D01*
X440500Y-21806500D01*
X4811000Y-21806500D01*
X4811000Y-22423993D01*
X4895951Y-22629082D01*
X5052918Y-22786050D01*
X5258007Y-22871000D01*
X5625500Y-22871000D01*
X5765000Y-22731500D01*
X5765000Y-21667000D01*
X4950500Y-21667000D01*
X4811000Y-21806500D01*
X440500Y-21806500D01*
X440500Y-20502007D01*
X4811000Y-20502007D01*
X4811000Y-21119500D01*
X4950500Y-21259000D01*
X5765000Y-21259000D01*
X5765000Y-20194500D01*
X6173000Y-20194500D01*
X6173000Y-21259000D01*
X6193000Y-21259000D01*
X6193000Y-21667000D01*
X6173000Y-21667000D01*
X6173000Y-22731500D01*
X6312500Y-22871000D01*
X6679993Y-22871000D01*
X6885082Y-22786050D01*
X7042049Y-22629082D01*
X7127000Y-22423993D01*
X7127000Y-22047303D01*
X7133813Y-22081554D01*
X7329775Y-22374833D01*
X7623054Y-22570795D01*
X7969000Y-22639608D01*
X8314946Y-22570795D01*
X8608225Y-22374833D01*
X8804187Y-22081554D01*
X8873000Y-21735608D01*
X8873000Y-21190392D01*
X9065000Y-21190392D01*
X9065000Y-21735608D01*
X9133813Y-22081554D01*
X9329775Y-22374833D01*
X9623054Y-22570795D01*
X9969000Y-22639608D01*
X10314946Y-22570795D01*
X10608225Y-22374833D01*
X10804187Y-22081554D01*
X10873000Y-21735608D01*
X10873000Y-21190392D01*
X11065000Y-21190392D01*
X11065000Y-21735608D01*
X11133813Y-22081554D01*
X11329775Y-22374833D01*
X11623054Y-22570795D01*
X11969000Y-22639608D01*
X12314946Y-22570795D01*
X12608225Y-22374833D01*
X12804187Y-22081554D01*
X12873000Y-21735608D01*
X12873000Y-21190392D01*
X12804187Y-20844446D01*
X12608225Y-20551167D01*
X12314946Y-20355205D01*
X11969000Y-20286392D01*
X11623054Y-20355205D01*
X11329775Y-20551167D01*
X11133813Y-20844446D01*
X11065000Y-21190392D01*
X10873000Y-21190392D01*
X10804187Y-20844446D01*
X10608225Y-20551167D01*
X10314946Y-20355205D01*
X9969000Y-20286392D01*
X9623054Y-20355205D01*
X9329775Y-20551167D01*
X9133813Y-20844446D01*
X9065000Y-21190392D01*
X8873000Y-21190392D01*
X8804187Y-20844446D01*
X8608225Y-20551167D01*
X8314946Y-20355205D01*
X7969000Y-20286392D01*
X7623054Y-20355205D01*
X7329775Y-20551167D01*
X7133813Y-20844446D01*
X7127000Y-20878697D01*
X7127000Y-20502007D01*
X7042049Y-20296918D01*
X6885082Y-20139950D01*
X6679993Y-20055000D01*
X6312500Y-20055000D01*
X6173000Y-20194500D01*
X5765000Y-20194500D01*
X5625500Y-20055000D01*
X5258007Y-20055000D01*
X5052918Y-20139950D01*
X4895951Y-20296918D01*
X4811000Y-20502007D01*
X440500Y-20502007D01*
X440500Y-18411068D01*
X635670Y-18411068D01*
X924926Y-19111121D01*
X1460062Y-19647192D01*
X2159609Y-19937669D01*
X2917068Y-19938330D01*
X3617121Y-19649074D01*
X4153192Y-19113938D01*
X4443669Y-18414391D01*
X4443671Y-18411068D01*
X13462670Y-18411068D01*
X13751926Y-19111121D01*
X14287062Y-19647192D01*
X14986609Y-19937669D01*
X15744068Y-19938330D01*
X16444121Y-19649074D01*
X16980192Y-19113938D01*
X17270669Y-18414391D01*
X17271330Y-17656932D01*
X16982074Y-16956879D01*
X16446938Y-16420808D01*
X15747391Y-16130331D01*
X14989932Y-16129670D01*
X14289879Y-16418926D01*
X13753808Y-16954062D01*
X13463331Y-17653609D01*
X13462670Y-18411068D01*
X4443671Y-18411068D01*
X4444330Y-17656932D01*
X4155074Y-16956879D01*
X3619938Y-16420808D01*
X2920391Y-16130331D01*
X2162932Y-16129670D01*
X1462879Y-16418926D01*
X926808Y-16954062D01*
X636331Y-17653609D01*
X635670Y-18411068D01*
X440500Y-18411068D01*
X440500Y-2443876D01*
X586654Y-1709108D01*
X985377Y-1112377D01*
X1582108Y-713654D01*
X2316875Y-567500D01*
X15717124Y-567500D01*
X16451892Y-713654D01*
X16451892Y-713654D01*
G37*
X16451892Y-713654D02*
X17048623Y-1112377D01*
X17447346Y-1709108D01*
X17593500Y-2443875D01*
X17593500Y-22439314D01*
X17396318Y-23205633D01*
X16934509Y-23820038D01*
X16272728Y-24210949D01*
X15471888Y-24324500D01*
X2325686Y-24324500D01*
X1559367Y-24127318D01*
X944962Y-23665509D01*
X554051Y-23003728D01*
X440500Y-22202888D01*
X440500Y-21806500D01*
X4811000Y-21806500D01*
X4811000Y-22423993D01*
X4895951Y-22629082D01*
X5052918Y-22786050D01*
X5258007Y-22871000D01*
X5625500Y-22871000D01*
X5765000Y-22731500D01*
X5765000Y-21667000D01*
X4950500Y-21667000D01*
X4811000Y-21806500D01*
X440500Y-21806500D01*
X440500Y-20502007D01*
X4811000Y-20502007D01*
X4811000Y-21119500D01*
X4950500Y-21259000D01*
X5765000Y-21259000D01*
X5765000Y-20194500D01*
X6173000Y-20194500D01*
X6173000Y-21259000D01*
X6193000Y-21259000D01*
X6193000Y-21667000D01*
X6173000Y-21667000D01*
X6173000Y-22731500D01*
X6312500Y-22871000D01*
X6679993Y-22871000D01*
X6885082Y-22786050D01*
X7042049Y-22629082D01*
X7127000Y-22423993D01*
X7127000Y-22047303D01*
X7133813Y-22081554D01*
X7329775Y-22374833D01*
X7623054Y-22570795D01*
X7969000Y-22639608D01*
X8314946Y-22570795D01*
X8608225Y-22374833D01*
X8804187Y-22081554D01*
X8873000Y-21735608D01*
X8873000Y-21190392D01*
X9065000Y-21190392D01*
X9065000Y-21735608D01*
X9133813Y-22081554D01*
X9329775Y-22374833D01*
X9623054Y-22570795D01*
X9969000Y-22639608D01*
X10314946Y-22570795D01*
X10608225Y-22374833D01*
X10804187Y-22081554D01*
X10873000Y-21735608D01*
X10873000Y-21190392D01*
X11065000Y-21190392D01*
X11065000Y-21735608D01*
X11133813Y-22081554D01*
X11329775Y-22374833D01*
X11623054Y-22570795D01*
X11969000Y-22639608D01*
X12314946Y-22570795D01*
X12608225Y-22374833D01*
X12804187Y-22081554D01*
X12873000Y-21735608D01*
X12873000Y-21190392D01*
X12804187Y-20844446D01*
X12608225Y-20551167D01*
X12314946Y-20355205D01*
X11969000Y-20286392D01*
X11623054Y-20355205D01*
X11329775Y-20551167D01*
X11133813Y-20844446D01*
X11065000Y-21190392D01*
X10873000Y-21190392D01*
X10804187Y-20844446D01*
X10608225Y-20551167D01*
X10314946Y-20355205D01*
X9969000Y-20286392D01*
X9623054Y-20355205D01*
X9329775Y-20551167D01*
X9133813Y-20844446D01*
X9065000Y-21190392D01*
X8873000Y-21190392D01*
X8804187Y-20844446D01*
X8608225Y-20551167D01*
X8314946Y-20355205D01*
X7969000Y-20286392D01*
X7623054Y-20355205D01*
X7329775Y-20551167D01*
X7133813Y-20844446D01*
X7127000Y-20878697D01*
X7127000Y-20502007D01*
X7042049Y-20296918D01*
X6885082Y-20139950D01*
X6679993Y-20055000D01*
X6312500Y-20055000D01*
X6173000Y-20194500D01*
X5765000Y-20194500D01*
X5625500Y-20055000D01*
X5258007Y-20055000D01*
X5052918Y-20139950D01*
X4895951Y-20296918D01*
X4811000Y-20502007D01*
X440500Y-20502007D01*
X440500Y-18411068D01*
X635670Y-18411068D01*
X924926Y-19111121D01*
X1460062Y-19647192D01*
X2159609Y-19937669D01*
X2917068Y-19938330D01*
X3617121Y-19649074D01*
X4153192Y-19113938D01*
X4443669Y-18414391D01*
X4443671Y-18411068D01*
X13462670Y-18411068D01*
X13751926Y-19111121D01*
X14287062Y-19647192D01*
X14986609Y-19937669D01*
X15744068Y-19938330D01*
X16444121Y-19649074D01*
X16980192Y-19113938D01*
X17270669Y-18414391D01*
X17271330Y-17656932D01*
X16982074Y-16956879D01*
X16446938Y-16420808D01*
X15747391Y-16130331D01*
X14989932Y-16129670D01*
X14289879Y-16418926D01*
X13753808Y-16954062D01*
X13463331Y-17653609D01*
X13462670Y-18411068D01*
X4443671Y-18411068D01*
X4444330Y-17656932D01*
X4155074Y-16956879D01*
X3619938Y-16420808D01*
X2920391Y-16130331D01*
X2162932Y-16129670D01*
X1462879Y-16418926D01*
X926808Y-16954062D01*
X636331Y-17653609D01*
X635670Y-18411068D01*
X440500Y-18411068D01*
X440500Y-2443876D01*
X586654Y-1709108D01*
X985377Y-1112377D01*
X1582108Y-713654D01*
X2316875Y-567500D01*
X15717124Y-567500D01*
X16451892Y-713654D01*
M02*
