%TF.GenerationSoftware,KiCad,Pcbnew,4.0.7*%
%TF.CreationDate,2018-05-06T16:02:13+02:00*%
%TF.ProjectId,RGBModule,5247424D6F64756C652E6B696361645F,rev?*%
%TF.FileFunction,Copper,L1,Top,Signal*%
%FSLAX46Y46*%
G04 Gerber Fmt 4.6, Leading zero omitted, Abs format (unit mm)*
G04 Created by KiCad (PCBNEW 4.0.7) date 05/06/18 16:02:13*
%MOMM*%
%LPD*%
G01*
G04 APERTURE LIST*
%ADD10C,0.100000*%
%ADD11O,1.998980X1.099820*%
%ADD12R,1.700000X1.700000*%
%ADD13O,1.700000X1.700000*%
%ADD14R,1.300000X0.700000*%
%ADD15C,0.685800*%
%ADD16C,0.400000*%
%ADD17C,0.254000*%
G04 APERTURE END LIST*
D10*
D11*
X11414760Y-9446260D03*
X11414760Y-7747000D03*
X11414760Y-6047740D03*
X6619240Y-6047740D03*
X6619240Y-7747000D03*
X6619240Y-9446260D03*
D12*
X12827000Y-21793200D03*
D13*
X10287000Y-21793200D03*
X7747000Y-21793200D03*
X5207000Y-21793200D03*
D14*
X11176000Y-16952000D03*
X11176000Y-15052000D03*
X9017000Y-15052000D03*
X9017000Y-16952000D03*
X6858000Y-15052000D03*
X6858000Y-16952000D03*
D15*
X9017000Y-19050000D03*
D16*
X6619240Y-9446260D02*
X6619240Y-7747000D01*
X6619240Y-6047740D02*
X6619240Y-7747000D01*
X9017000Y-15052000D02*
X9017000Y-13462000D01*
X11414760Y-11064240D02*
X11414760Y-9446260D01*
X9017000Y-13462000D02*
X11414760Y-11064240D01*
X6858000Y-15052000D02*
X6858000Y-12954000D01*
X10160000Y-7747000D02*
X11414760Y-7747000D01*
X9525000Y-8382000D02*
X10160000Y-7747000D01*
X9525000Y-10287000D02*
X9525000Y-8382000D01*
X6858000Y-12954000D02*
X9525000Y-10287000D01*
X11176000Y-15052000D02*
X11176000Y-12700000D01*
X13032740Y-6047740D02*
X11414760Y-6047740D01*
X13716000Y-6731000D02*
X13032740Y-6047740D01*
X13716000Y-10160000D02*
X13716000Y-6731000D01*
X11176000Y-12700000D02*
X13716000Y-10160000D01*
D17*
X7747000Y-21793200D02*
X7747000Y-20269200D01*
X6858000Y-19380200D02*
X6858000Y-16952000D01*
X7747000Y-20269200D02*
X6858000Y-19380200D01*
D16*
X10287000Y-21793200D02*
X10287000Y-19050000D01*
X11176000Y-18161000D02*
X11176000Y-16952000D01*
X10287000Y-19050000D02*
X11176000Y-18161000D01*
D17*
X10287000Y-21793200D02*
X10287000Y-21031200D01*
D16*
X9017000Y-19050000D02*
X9017000Y-16952000D01*
D17*
X8890000Y-17079000D02*
X9017000Y-16952000D01*
X12827000Y-21793200D02*
X12827000Y-21539200D01*
D10*
G36*
X16451892Y-713654D02*
X17048623Y-1112377D01*
X17447346Y-1709108D01*
X17593500Y-2443875D01*
X17593500Y-22439314D01*
X17396318Y-23205633D01*
X16934509Y-23820038D01*
X16272728Y-24210949D01*
X15471888Y-24324500D01*
X2325686Y-24324500D01*
X1559367Y-24127318D01*
X944962Y-23665509D01*
X554051Y-23003728D01*
X441881Y-22212627D01*
X3862905Y-22212627D01*
X4125726Y-22695063D01*
X4553161Y-23040198D01*
X4787576Y-23137278D01*
X5003000Y-23045189D01*
X5003000Y-21997200D01*
X3953340Y-21997200D01*
X3862905Y-22212627D01*
X441881Y-22212627D01*
X440500Y-22202888D01*
X440500Y-21373773D01*
X3862905Y-21373773D01*
X3953340Y-21589200D01*
X5003000Y-21589200D01*
X5003000Y-20541211D01*
X5411000Y-20541211D01*
X5411000Y-21589200D01*
X5431000Y-21589200D01*
X5431000Y-21997200D01*
X5411000Y-21997200D01*
X5411000Y-23045189D01*
X5626424Y-23137278D01*
X5860839Y-23040198D01*
X6288274Y-22695063D01*
X6551095Y-22212627D01*
X6460661Y-21997202D01*
X6615000Y-21997202D01*
X6615000Y-21926410D01*
X6680843Y-22257425D01*
X6930999Y-22631809D01*
X7305383Y-22881965D01*
X7747000Y-22969808D01*
X8188617Y-22881965D01*
X8563001Y-22631809D01*
X8813157Y-22257425D01*
X8901000Y-21815808D01*
X8901000Y-21770592D01*
X8813157Y-21328975D01*
X8563001Y-20954591D01*
X8188617Y-20704435D01*
X8178000Y-20702323D01*
X8178000Y-20269200D01*
X8145192Y-20104263D01*
X8051763Y-19964437D01*
X7289000Y-19201674D01*
X7289000Y-17611955D01*
X7508000Y-17611955D01*
X7620655Y-17590757D01*
X7724123Y-17524178D01*
X7793535Y-17422590D01*
X7817955Y-17302000D01*
X7817955Y-16602000D01*
X8057045Y-16602000D01*
X8057045Y-17302000D01*
X8078243Y-17414655D01*
X8144822Y-17518123D01*
X8246410Y-17587535D01*
X8367000Y-17611955D01*
X8586000Y-17611955D01*
X8586000Y-19761200D01*
X8618808Y-19926137D01*
X8703666Y-20053136D01*
X8712237Y-20065963D01*
X9548848Y-20902574D01*
X9470999Y-20954591D01*
X9220843Y-21328975D01*
X9133000Y-21770592D01*
X9133000Y-21815808D01*
X9220843Y-22257425D01*
X9470999Y-22631809D01*
X9845383Y-22881965D01*
X10287000Y-22969808D01*
X10728617Y-22881965D01*
X11103001Y-22631809D01*
X11353157Y-22257425D01*
X11441000Y-21815808D01*
X11441000Y-21770592D01*
X11353157Y-21328975D01*
X11103001Y-20954591D01*
X10728617Y-20704435D01*
X10530317Y-20664991D01*
X9448000Y-19582674D01*
X9448000Y-17611955D01*
X9667000Y-17611955D01*
X9779655Y-17590757D01*
X9883123Y-17524178D01*
X9952535Y-17422590D01*
X9976955Y-17302000D01*
X9976955Y-16602000D01*
X10216045Y-16602000D01*
X10216045Y-17302000D01*
X10237243Y-17414655D01*
X10303822Y-17518123D01*
X10405410Y-17587535D01*
X10526000Y-17611955D01*
X10745000Y-17611955D01*
X10745000Y-19888200D01*
X10777808Y-20053137D01*
X10811970Y-20104264D01*
X10871237Y-20192963D01*
X11667045Y-20988771D01*
X11667045Y-22643200D01*
X11688243Y-22755855D01*
X11754822Y-22859323D01*
X11856410Y-22928735D01*
X11977000Y-22953155D01*
X13677000Y-22953155D01*
X13789655Y-22931957D01*
X13893123Y-22865378D01*
X13962535Y-22763790D01*
X13986955Y-22643200D01*
X13986955Y-20943200D01*
X13965757Y-20830545D01*
X13899178Y-20727077D01*
X13797590Y-20657665D01*
X13677000Y-20633245D01*
X12530571Y-20633245D01*
X11607000Y-19709674D01*
X11607000Y-18411068D01*
X13462670Y-18411068D01*
X13751926Y-19111121D01*
X14287062Y-19647192D01*
X14986609Y-19937669D01*
X15744068Y-19938330D01*
X16444121Y-19649074D01*
X16980192Y-19113938D01*
X17270669Y-18414391D01*
X17271330Y-17656932D01*
X16982074Y-16956879D01*
X16446938Y-16420808D01*
X15747391Y-16130331D01*
X14989932Y-16129670D01*
X14289879Y-16418926D01*
X13753808Y-16954062D01*
X13463331Y-17653609D01*
X13462670Y-18411068D01*
X11607000Y-18411068D01*
X11607000Y-17611955D01*
X11826000Y-17611955D01*
X11938655Y-17590757D01*
X12042123Y-17524178D01*
X12111535Y-17422590D01*
X12135955Y-17302000D01*
X12135955Y-16602000D01*
X12114757Y-16489345D01*
X12048178Y-16385877D01*
X11946590Y-16316465D01*
X11826000Y-16292045D01*
X10526000Y-16292045D01*
X10413345Y-16313243D01*
X10309877Y-16379822D01*
X10240465Y-16481410D01*
X10216045Y-16602000D01*
X9976955Y-16602000D01*
X9955757Y-16489345D01*
X9889178Y-16385877D01*
X9787590Y-16316465D01*
X9667000Y-16292045D01*
X8367000Y-16292045D01*
X8254345Y-16313243D01*
X8150877Y-16379822D01*
X8081465Y-16481410D01*
X8057045Y-16602000D01*
X7817955Y-16602000D01*
X7796757Y-16489345D01*
X7730178Y-16385877D01*
X7628590Y-16316465D01*
X7508000Y-16292045D01*
X6208000Y-16292045D01*
X6095345Y-16313243D01*
X5991877Y-16379822D01*
X5922465Y-16481410D01*
X5898045Y-16602000D01*
X5898045Y-17302000D01*
X5919243Y-17414655D01*
X5985822Y-17518123D01*
X6087410Y-17587535D01*
X6208000Y-17611955D01*
X6427000Y-17611955D01*
X6427000Y-19380200D01*
X6459808Y-19545137D01*
X6493970Y-19596264D01*
X6553237Y-19684963D01*
X7316000Y-20447726D01*
X7316000Y-20702323D01*
X7305383Y-20704435D01*
X6930999Y-20954591D01*
X6680843Y-21328975D01*
X6615000Y-21659990D01*
X6615000Y-21589198D01*
X6460661Y-21589198D01*
X6551095Y-21373773D01*
X6288274Y-20891337D01*
X5860839Y-20546202D01*
X5626424Y-20449122D01*
X5411000Y-20541211D01*
X5003000Y-20541211D01*
X4787576Y-20449122D01*
X4553161Y-20546202D01*
X4125726Y-20891337D01*
X3862905Y-21373773D01*
X440500Y-21373773D01*
X440500Y-18411068D01*
X635670Y-18411068D01*
X924926Y-19111121D01*
X1460062Y-19647192D01*
X2159609Y-19937669D01*
X2917068Y-19938330D01*
X3617121Y-19649074D01*
X4153192Y-19113938D01*
X4443669Y-18414391D01*
X4444330Y-17656932D01*
X4155074Y-16956879D01*
X3619938Y-16420808D01*
X2920391Y-16130331D01*
X2162932Y-16129670D01*
X1462879Y-16418926D01*
X926808Y-16954062D01*
X636331Y-17653609D01*
X635670Y-18411068D01*
X440500Y-18411068D01*
X440500Y-14702000D01*
X5898045Y-14702000D01*
X5898045Y-15402000D01*
X5919243Y-15514655D01*
X5985822Y-15618123D01*
X6087410Y-15687535D01*
X6208000Y-15711955D01*
X7508000Y-15711955D01*
X7620655Y-15690757D01*
X7724123Y-15624178D01*
X7793535Y-15522590D01*
X7817955Y-15402000D01*
X7817955Y-14702000D01*
X7796757Y-14589345D01*
X7730178Y-14485877D01*
X7628590Y-14416465D01*
X7508000Y-14392045D01*
X7362000Y-14392045D01*
X7362000Y-13162764D01*
X9881382Y-10643382D01*
X9990635Y-10479872D01*
X10029001Y-10287000D01*
X10029000Y-10286995D01*
X10029000Y-8590764D01*
X10309049Y-8310715D01*
X10335837Y-8350806D01*
X10612866Y-8535910D01*
X10918126Y-8596630D01*
X10612866Y-8657350D01*
X10335837Y-8842454D01*
X10150733Y-9119483D01*
X10085733Y-9446260D01*
X10150733Y-9773037D01*
X10335837Y-10050066D01*
X10612866Y-10235170D01*
X10910760Y-10294425D01*
X10910760Y-10347476D01*
X8660618Y-12597618D01*
X8551365Y-12761127D01*
X8551365Y-12761128D01*
X8513000Y-12954000D01*
X8513000Y-14392045D01*
X8367000Y-14392045D01*
X8254345Y-14413243D01*
X8150877Y-14479822D01*
X8081465Y-14581410D01*
X8057045Y-14702000D01*
X8057045Y-15402000D01*
X8078243Y-15514655D01*
X8144822Y-15618123D01*
X8246410Y-15687535D01*
X8367000Y-15711955D01*
X9667000Y-15711955D01*
X9779655Y-15690757D01*
X9883123Y-15624178D01*
X9952535Y-15522590D01*
X9976955Y-15402000D01*
X9976955Y-14702000D01*
X9955757Y-14589345D01*
X9889178Y-14485877D01*
X9787590Y-14416465D01*
X9667000Y-14392045D01*
X9521000Y-14392045D01*
X9521000Y-13162764D01*
X11771142Y-10912622D01*
X11880395Y-10749112D01*
X11918760Y-10556240D01*
X11918760Y-10294425D01*
X12216654Y-10235170D01*
X12493683Y-10050066D01*
X12678787Y-9773037D01*
X12704000Y-9646283D01*
X12704000Y-10713236D01*
X10819618Y-12597618D01*
X10710365Y-12761127D01*
X10710365Y-12761128D01*
X10672000Y-12954000D01*
X10672000Y-14392045D01*
X10526000Y-14392045D01*
X10413345Y-14413243D01*
X10309877Y-14479822D01*
X10240465Y-14581410D01*
X10216045Y-14702000D01*
X10216045Y-15402000D01*
X10237243Y-15514655D01*
X10303822Y-15618123D01*
X10405410Y-15687535D01*
X10526000Y-15711955D01*
X11826000Y-15711955D01*
X11938655Y-15690757D01*
X12042123Y-15624178D01*
X12111535Y-15522590D01*
X12135955Y-15402000D01*
X12135955Y-14702000D01*
X12114757Y-14589345D01*
X12048178Y-14485877D01*
X11946590Y-14416465D01*
X11826000Y-14392045D01*
X11680000Y-14392045D01*
X11680000Y-13162764D01*
X13564382Y-11278382D01*
X13673635Y-11114873D01*
X13712000Y-10922000D01*
X13712000Y-6731005D01*
X13712001Y-6731000D01*
X13673635Y-6538128D01*
X13564382Y-6374618D01*
X12881122Y-5691358D01*
X12717613Y-5582105D01*
X12565832Y-5551914D01*
X12493683Y-5443934D01*
X12216654Y-5258830D01*
X11889877Y-5193830D01*
X10939643Y-5193830D01*
X10612866Y-5258830D01*
X10335837Y-5443934D01*
X10150733Y-5720963D01*
X10085733Y-6047740D01*
X10150733Y-6374517D01*
X10335837Y-6651546D01*
X10612866Y-6836650D01*
X10918126Y-6897370D01*
X10612866Y-6958090D01*
X10335837Y-7143194D01*
X10269149Y-7243000D01*
X10160005Y-7243000D01*
X10160000Y-7242999D01*
X9967128Y-7281365D01*
X9803618Y-7390618D01*
X9168618Y-8025618D01*
X9059365Y-8189127D01*
X9059365Y-8189128D01*
X9021000Y-8382000D01*
X9021000Y-10078236D01*
X6501618Y-12597618D01*
X6392365Y-12761127D01*
X6392365Y-12761128D01*
X6354000Y-12954000D01*
X6354000Y-14392045D01*
X6208000Y-14392045D01*
X6095345Y-14413243D01*
X5991877Y-14479822D01*
X5922465Y-14581410D01*
X5898045Y-14702000D01*
X440500Y-14702000D01*
X440500Y-9818100D01*
X5126013Y-9818100D01*
X5242000Y-10085421D01*
X5557210Y-10391768D01*
X5965660Y-10554170D01*
X6415240Y-10554170D01*
X6415240Y-9650260D01*
X6823240Y-9650260D01*
X6823240Y-10554170D01*
X7272820Y-10554170D01*
X7681270Y-10391768D01*
X7996480Y-10085421D01*
X8112467Y-9818100D01*
X8015499Y-9650260D01*
X6823240Y-9650260D01*
X6415240Y-9650260D01*
X5222981Y-9650260D01*
X5126013Y-9818100D01*
X440500Y-9818100D01*
X440500Y-8118840D01*
X5126013Y-8118840D01*
X5242000Y-8386161D01*
X5458558Y-8596630D01*
X5242000Y-8807099D01*
X5126013Y-9074420D01*
X5222981Y-9242260D01*
X6415240Y-9242260D01*
X6415240Y-7951000D01*
X6823240Y-7951000D01*
X6823240Y-9242260D01*
X8015499Y-9242260D01*
X8112467Y-9074420D01*
X7996480Y-8807099D01*
X7779922Y-8596630D01*
X7996480Y-8386161D01*
X8112467Y-8118840D01*
X8015499Y-7951000D01*
X6823240Y-7951000D01*
X6415240Y-7951000D01*
X5222981Y-7951000D01*
X5126013Y-8118840D01*
X440500Y-8118840D01*
X440500Y-6419580D01*
X5126013Y-6419580D01*
X5242000Y-6686901D01*
X5458558Y-6897370D01*
X5242000Y-7107839D01*
X5126013Y-7375160D01*
X5222981Y-7543000D01*
X6415240Y-7543000D01*
X6415240Y-6251740D01*
X6823240Y-6251740D01*
X6823240Y-7543000D01*
X8015499Y-7543000D01*
X8112467Y-7375160D01*
X7996480Y-7107839D01*
X7779922Y-6897370D01*
X7996480Y-6686901D01*
X8112467Y-6419580D01*
X8015499Y-6251740D01*
X6823240Y-6251740D01*
X6415240Y-6251740D01*
X5222981Y-6251740D01*
X5126013Y-6419580D01*
X440500Y-6419580D01*
X440500Y-5675900D01*
X5126013Y-5675900D01*
X5222981Y-5843740D01*
X6415240Y-5843740D01*
X6415240Y-4939830D01*
X6823240Y-4939830D01*
X6823240Y-5843740D01*
X8015499Y-5843740D01*
X8112467Y-5675900D01*
X7996480Y-5408579D01*
X7681270Y-5102232D01*
X7272820Y-4939830D01*
X6823240Y-4939830D01*
X6415240Y-4939830D01*
X5965660Y-4939830D01*
X5557210Y-5102232D01*
X5242000Y-5408579D01*
X5126013Y-5675900D01*
X440500Y-5675900D01*
X440500Y-2443876D01*
X586654Y-1709108D01*
X985377Y-1112377D01*
X1582108Y-713654D01*
X2316875Y-567500D01*
X15717124Y-567500D01*
X16451892Y-713654D01*
X16451892Y-713654D01*
G37*
X16451892Y-713654D02*
X17048623Y-1112377D01*
X17447346Y-1709108D01*
X17593500Y-2443875D01*
X17593500Y-22439314D01*
X17396318Y-23205633D01*
X16934509Y-23820038D01*
X16272728Y-24210949D01*
X15471888Y-24324500D01*
X2325686Y-24324500D01*
X1559367Y-24127318D01*
X944962Y-23665509D01*
X554051Y-23003728D01*
X441881Y-22212627D01*
X3862905Y-22212627D01*
X4125726Y-22695063D01*
X4553161Y-23040198D01*
X4787576Y-23137278D01*
X5003000Y-23045189D01*
X5003000Y-21997200D01*
X3953340Y-21997200D01*
X3862905Y-22212627D01*
X441881Y-22212627D01*
X440500Y-22202888D01*
X440500Y-21373773D01*
X3862905Y-21373773D01*
X3953340Y-21589200D01*
X5003000Y-21589200D01*
X5003000Y-20541211D01*
X5411000Y-20541211D01*
X5411000Y-21589200D01*
X5431000Y-21589200D01*
X5431000Y-21997200D01*
X5411000Y-21997200D01*
X5411000Y-23045189D01*
X5626424Y-23137278D01*
X5860839Y-23040198D01*
X6288274Y-22695063D01*
X6551095Y-22212627D01*
X6460661Y-21997202D01*
X6615000Y-21997202D01*
X6615000Y-21926410D01*
X6680843Y-22257425D01*
X6930999Y-22631809D01*
X7305383Y-22881965D01*
X7747000Y-22969808D01*
X8188617Y-22881965D01*
X8563001Y-22631809D01*
X8813157Y-22257425D01*
X8901000Y-21815808D01*
X8901000Y-21770592D01*
X8813157Y-21328975D01*
X8563001Y-20954591D01*
X8188617Y-20704435D01*
X8178000Y-20702323D01*
X8178000Y-20269200D01*
X8145192Y-20104263D01*
X8051763Y-19964437D01*
X7289000Y-19201674D01*
X7289000Y-17611955D01*
X7508000Y-17611955D01*
X7620655Y-17590757D01*
X7724123Y-17524178D01*
X7793535Y-17422590D01*
X7817955Y-17302000D01*
X7817955Y-16602000D01*
X8057045Y-16602000D01*
X8057045Y-17302000D01*
X8078243Y-17414655D01*
X8144822Y-17518123D01*
X8246410Y-17587535D01*
X8367000Y-17611955D01*
X8586000Y-17611955D01*
X8586000Y-19761200D01*
X8618808Y-19926137D01*
X8703666Y-20053136D01*
X8712237Y-20065963D01*
X9548848Y-20902574D01*
X9470999Y-20954591D01*
X9220843Y-21328975D01*
X9133000Y-21770592D01*
X9133000Y-21815808D01*
X9220843Y-22257425D01*
X9470999Y-22631809D01*
X9845383Y-22881965D01*
X10287000Y-22969808D01*
X10728617Y-22881965D01*
X11103001Y-22631809D01*
X11353157Y-22257425D01*
X11441000Y-21815808D01*
X11441000Y-21770592D01*
X11353157Y-21328975D01*
X11103001Y-20954591D01*
X10728617Y-20704435D01*
X10530317Y-20664991D01*
X9448000Y-19582674D01*
X9448000Y-17611955D01*
X9667000Y-17611955D01*
X9779655Y-17590757D01*
X9883123Y-17524178D01*
X9952535Y-17422590D01*
X9976955Y-17302000D01*
X9976955Y-16602000D01*
X10216045Y-16602000D01*
X10216045Y-17302000D01*
X10237243Y-17414655D01*
X10303822Y-17518123D01*
X10405410Y-17587535D01*
X10526000Y-17611955D01*
X10745000Y-17611955D01*
X10745000Y-19888200D01*
X10777808Y-20053137D01*
X10811970Y-20104264D01*
X10871237Y-20192963D01*
X11667045Y-20988771D01*
X11667045Y-22643200D01*
X11688243Y-22755855D01*
X11754822Y-22859323D01*
X11856410Y-22928735D01*
X11977000Y-22953155D01*
X13677000Y-22953155D01*
X13789655Y-22931957D01*
X13893123Y-22865378D01*
X13962535Y-22763790D01*
X13986955Y-22643200D01*
X13986955Y-20943200D01*
X13965757Y-20830545D01*
X13899178Y-20727077D01*
X13797590Y-20657665D01*
X13677000Y-20633245D01*
X12530571Y-20633245D01*
X11607000Y-19709674D01*
X11607000Y-18411068D01*
X13462670Y-18411068D01*
X13751926Y-19111121D01*
X14287062Y-19647192D01*
X14986609Y-19937669D01*
X15744068Y-19938330D01*
X16444121Y-19649074D01*
X16980192Y-19113938D01*
X17270669Y-18414391D01*
X17271330Y-17656932D01*
X16982074Y-16956879D01*
X16446938Y-16420808D01*
X15747391Y-16130331D01*
X14989932Y-16129670D01*
X14289879Y-16418926D01*
X13753808Y-16954062D01*
X13463331Y-17653609D01*
X13462670Y-18411068D01*
X11607000Y-18411068D01*
X11607000Y-17611955D01*
X11826000Y-17611955D01*
X11938655Y-17590757D01*
X12042123Y-17524178D01*
X12111535Y-17422590D01*
X12135955Y-17302000D01*
X12135955Y-16602000D01*
X12114757Y-16489345D01*
X12048178Y-16385877D01*
X11946590Y-16316465D01*
X11826000Y-16292045D01*
X10526000Y-16292045D01*
X10413345Y-16313243D01*
X10309877Y-16379822D01*
X10240465Y-16481410D01*
X10216045Y-16602000D01*
X9976955Y-16602000D01*
X9955757Y-16489345D01*
X9889178Y-16385877D01*
X9787590Y-16316465D01*
X9667000Y-16292045D01*
X8367000Y-16292045D01*
X8254345Y-16313243D01*
X8150877Y-16379822D01*
X8081465Y-16481410D01*
X8057045Y-16602000D01*
X7817955Y-16602000D01*
X7796757Y-16489345D01*
X7730178Y-16385877D01*
X7628590Y-16316465D01*
X7508000Y-16292045D01*
X6208000Y-16292045D01*
X6095345Y-16313243D01*
X5991877Y-16379822D01*
X5922465Y-16481410D01*
X5898045Y-16602000D01*
X5898045Y-17302000D01*
X5919243Y-17414655D01*
X5985822Y-17518123D01*
X6087410Y-17587535D01*
X6208000Y-17611955D01*
X6427000Y-17611955D01*
X6427000Y-19380200D01*
X6459808Y-19545137D01*
X6493970Y-19596264D01*
X6553237Y-19684963D01*
X7316000Y-20447726D01*
X7316000Y-20702323D01*
X7305383Y-20704435D01*
X6930999Y-20954591D01*
X6680843Y-21328975D01*
X6615000Y-21659990D01*
X6615000Y-21589198D01*
X6460661Y-21589198D01*
X6551095Y-21373773D01*
X6288274Y-20891337D01*
X5860839Y-20546202D01*
X5626424Y-20449122D01*
X5411000Y-20541211D01*
X5003000Y-20541211D01*
X4787576Y-20449122D01*
X4553161Y-20546202D01*
X4125726Y-20891337D01*
X3862905Y-21373773D01*
X440500Y-21373773D01*
X440500Y-18411068D01*
X635670Y-18411068D01*
X924926Y-19111121D01*
X1460062Y-19647192D01*
X2159609Y-19937669D01*
X2917068Y-19938330D01*
X3617121Y-19649074D01*
X4153192Y-19113938D01*
X4443669Y-18414391D01*
X4444330Y-17656932D01*
X4155074Y-16956879D01*
X3619938Y-16420808D01*
X2920391Y-16130331D01*
X2162932Y-16129670D01*
X1462879Y-16418926D01*
X926808Y-16954062D01*
X636331Y-17653609D01*
X635670Y-18411068D01*
X440500Y-18411068D01*
X440500Y-14702000D01*
X5898045Y-14702000D01*
X5898045Y-15402000D01*
X5919243Y-15514655D01*
X5985822Y-15618123D01*
X6087410Y-15687535D01*
X6208000Y-15711955D01*
X7508000Y-15711955D01*
X7620655Y-15690757D01*
X7724123Y-15624178D01*
X7793535Y-15522590D01*
X7817955Y-15402000D01*
X7817955Y-14702000D01*
X7796757Y-14589345D01*
X7730178Y-14485877D01*
X7628590Y-14416465D01*
X7508000Y-14392045D01*
X7362000Y-14392045D01*
X7362000Y-13162764D01*
X9881382Y-10643382D01*
X9990635Y-10479872D01*
X10029001Y-10287000D01*
X10029000Y-10286995D01*
X10029000Y-8590764D01*
X10309049Y-8310715D01*
X10335837Y-8350806D01*
X10612866Y-8535910D01*
X10918126Y-8596630D01*
X10612866Y-8657350D01*
X10335837Y-8842454D01*
X10150733Y-9119483D01*
X10085733Y-9446260D01*
X10150733Y-9773037D01*
X10335837Y-10050066D01*
X10612866Y-10235170D01*
X10910760Y-10294425D01*
X10910760Y-10347476D01*
X8660618Y-12597618D01*
X8551365Y-12761127D01*
X8551365Y-12761128D01*
X8513000Y-12954000D01*
X8513000Y-14392045D01*
X8367000Y-14392045D01*
X8254345Y-14413243D01*
X8150877Y-14479822D01*
X8081465Y-14581410D01*
X8057045Y-14702000D01*
X8057045Y-15402000D01*
X8078243Y-15514655D01*
X8144822Y-15618123D01*
X8246410Y-15687535D01*
X8367000Y-15711955D01*
X9667000Y-15711955D01*
X9779655Y-15690757D01*
X9883123Y-15624178D01*
X9952535Y-15522590D01*
X9976955Y-15402000D01*
X9976955Y-14702000D01*
X9955757Y-14589345D01*
X9889178Y-14485877D01*
X9787590Y-14416465D01*
X9667000Y-14392045D01*
X9521000Y-14392045D01*
X9521000Y-13162764D01*
X11771142Y-10912622D01*
X11880395Y-10749112D01*
X11918760Y-10556240D01*
X11918760Y-10294425D01*
X12216654Y-10235170D01*
X12493683Y-10050066D01*
X12678787Y-9773037D01*
X12704000Y-9646283D01*
X12704000Y-10713236D01*
X10819618Y-12597618D01*
X10710365Y-12761127D01*
X10710365Y-12761128D01*
X10672000Y-12954000D01*
X10672000Y-14392045D01*
X10526000Y-14392045D01*
X10413345Y-14413243D01*
X10309877Y-14479822D01*
X10240465Y-14581410D01*
X10216045Y-14702000D01*
X10216045Y-15402000D01*
X10237243Y-15514655D01*
X10303822Y-15618123D01*
X10405410Y-15687535D01*
X10526000Y-15711955D01*
X11826000Y-15711955D01*
X11938655Y-15690757D01*
X12042123Y-15624178D01*
X12111535Y-15522590D01*
X12135955Y-15402000D01*
X12135955Y-14702000D01*
X12114757Y-14589345D01*
X12048178Y-14485877D01*
X11946590Y-14416465D01*
X11826000Y-14392045D01*
X11680000Y-14392045D01*
X11680000Y-13162764D01*
X13564382Y-11278382D01*
X13673635Y-11114873D01*
X13712000Y-10922000D01*
X13712000Y-6731005D01*
X13712001Y-6731000D01*
X13673635Y-6538128D01*
X13564382Y-6374618D01*
X12881122Y-5691358D01*
X12717613Y-5582105D01*
X12565832Y-5551914D01*
X12493683Y-5443934D01*
X12216654Y-5258830D01*
X11889877Y-5193830D01*
X10939643Y-5193830D01*
X10612866Y-5258830D01*
X10335837Y-5443934D01*
X10150733Y-5720963D01*
X10085733Y-6047740D01*
X10150733Y-6374517D01*
X10335837Y-6651546D01*
X10612866Y-6836650D01*
X10918126Y-6897370D01*
X10612866Y-6958090D01*
X10335837Y-7143194D01*
X10269149Y-7243000D01*
X10160005Y-7243000D01*
X10160000Y-7242999D01*
X9967128Y-7281365D01*
X9803618Y-7390618D01*
X9168618Y-8025618D01*
X9059365Y-8189127D01*
X9059365Y-8189128D01*
X9021000Y-8382000D01*
X9021000Y-10078236D01*
X6501618Y-12597618D01*
X6392365Y-12761127D01*
X6392365Y-12761128D01*
X6354000Y-12954000D01*
X6354000Y-14392045D01*
X6208000Y-14392045D01*
X6095345Y-14413243D01*
X5991877Y-14479822D01*
X5922465Y-14581410D01*
X5898045Y-14702000D01*
X440500Y-14702000D01*
X440500Y-9818100D01*
X5126013Y-9818100D01*
X5242000Y-10085421D01*
X5557210Y-10391768D01*
X5965660Y-10554170D01*
X6415240Y-10554170D01*
X6415240Y-9650260D01*
X6823240Y-9650260D01*
X6823240Y-10554170D01*
X7272820Y-10554170D01*
X7681270Y-10391768D01*
X7996480Y-10085421D01*
X8112467Y-9818100D01*
X8015499Y-9650260D01*
X6823240Y-9650260D01*
X6415240Y-9650260D01*
X5222981Y-9650260D01*
X5126013Y-9818100D01*
X440500Y-9818100D01*
X440500Y-8118840D01*
X5126013Y-8118840D01*
X5242000Y-8386161D01*
X5458558Y-8596630D01*
X5242000Y-8807099D01*
X5126013Y-9074420D01*
X5222981Y-9242260D01*
X6415240Y-9242260D01*
X6415240Y-7951000D01*
X6823240Y-7951000D01*
X6823240Y-9242260D01*
X8015499Y-9242260D01*
X8112467Y-9074420D01*
X7996480Y-8807099D01*
X7779922Y-8596630D01*
X7996480Y-8386161D01*
X8112467Y-8118840D01*
X8015499Y-7951000D01*
X6823240Y-7951000D01*
X6415240Y-7951000D01*
X5222981Y-7951000D01*
X5126013Y-8118840D01*
X440500Y-8118840D01*
X440500Y-6419580D01*
X5126013Y-6419580D01*
X5242000Y-6686901D01*
X5458558Y-6897370D01*
X5242000Y-7107839D01*
X5126013Y-7375160D01*
X5222981Y-7543000D01*
X6415240Y-7543000D01*
X6415240Y-6251740D01*
X6823240Y-6251740D01*
X6823240Y-7543000D01*
X8015499Y-7543000D01*
X8112467Y-7375160D01*
X7996480Y-7107839D01*
X7779922Y-6897370D01*
X7996480Y-6686901D01*
X8112467Y-6419580D01*
X8015499Y-6251740D01*
X6823240Y-6251740D01*
X6415240Y-6251740D01*
X5222981Y-6251740D01*
X5126013Y-6419580D01*
X440500Y-6419580D01*
X440500Y-5675900D01*
X5126013Y-5675900D01*
X5222981Y-5843740D01*
X6415240Y-5843740D01*
X6415240Y-4939830D01*
X6823240Y-4939830D01*
X6823240Y-5843740D01*
X8015499Y-5843740D01*
X8112467Y-5675900D01*
X7996480Y-5408579D01*
X7681270Y-5102232D01*
X7272820Y-4939830D01*
X6823240Y-4939830D01*
X6415240Y-4939830D01*
X5965660Y-4939830D01*
X5557210Y-5102232D01*
X5242000Y-5408579D01*
X5126013Y-5675900D01*
X440500Y-5675900D01*
X440500Y-2443876D01*
X586654Y-1709108D01*
X985377Y-1112377D01*
X1582108Y-713654D01*
X2316875Y-567500D01*
X15717124Y-567500D01*
X16451892Y-713654D01*
M02*
