%TF.GenerationSoftware,KiCad,Pcbnew,4.0.7-e2-6376~58~ubuntu16.04.1*%
%TF.CreationDate,2018-01-20T15:51:19+01:00*%
%TF.ProjectId,RGBModule,5247424D6F64756C652E6B696361645F,rev?*%
%TF.FileFunction,Copper,L1,Top,Signal*%
%FSLAX46Y46*%
G04 Gerber Fmt 4.6, Leading zero omitted, Abs format (unit mm)*
G04 Created by KiCad (PCBNEW 4.0.7-e2-6376~58~ubuntu16.04.1) date Sat Jan 20 15:51:19 2018*
%MOMM*%
%LPD*%
G01*
G04 APERTURE LIST*
%ADD10C,0.100000*%
%ADD11O,1.998980X1.099820*%
%ADD12R,1.200000X1.700000*%
%ADD13O,1.200000X1.700000*%
%ADD14R,1.300000X0.700000*%
%ADD15C,0.400000*%
%ADD16C,0.254000*%
G04 APERTURE END LIST*
D10*
D11*
X11287760Y-9192260D03*
X11287760Y-7493000D03*
X11287760Y-5793740D03*
X6492240Y-5793740D03*
X6492240Y-7493000D03*
X6492240Y-9192260D03*
D12*
X5842000Y-21209000D03*
D13*
X7842000Y-21209000D03*
X9842000Y-21209000D03*
X11842000Y-21209000D03*
D14*
X11049000Y-16698000D03*
X11049000Y-14798000D03*
X8890000Y-14798000D03*
X8890000Y-16698000D03*
X6731000Y-14798000D03*
X6731000Y-16698000D03*
D15*
X6492240Y-9192260D02*
X6492240Y-10398760D01*
X5842000Y-18796000D02*
X5842000Y-21209000D01*
X4826000Y-17780000D02*
X5842000Y-18796000D01*
X4826000Y-12065000D02*
X4826000Y-17780000D01*
X6492240Y-10398760D02*
X4826000Y-12065000D01*
X6492240Y-9192260D02*
X6492240Y-7493000D01*
X6492240Y-5793740D02*
X6492240Y-7493000D01*
X11287760Y-9192260D02*
X11287760Y-10302240D01*
X8890000Y-12700000D02*
X8890000Y-14798000D01*
X11287760Y-10302240D02*
X8890000Y-12700000D01*
X6731000Y-14798000D02*
X6731000Y-12700000D01*
X10033000Y-7493000D02*
X11287760Y-7493000D01*
X9398000Y-8128000D02*
X10033000Y-7493000D01*
X9398000Y-10033000D02*
X9398000Y-8128000D01*
X6731000Y-12700000D02*
X9398000Y-10033000D01*
X11049000Y-14798000D02*
X11049000Y-12700000D01*
X12397740Y-5793740D02*
X11287760Y-5793740D01*
X13081000Y-6477000D02*
X12397740Y-5793740D01*
X13081000Y-10668000D02*
X13081000Y-6477000D01*
X11049000Y-12700000D02*
X13081000Y-10668000D01*
X6731000Y-16698000D02*
X6731000Y-17653000D01*
X7842000Y-18764000D02*
X7842000Y-21209000D01*
X6731000Y-17653000D02*
X7842000Y-18764000D01*
X9842000Y-21209000D02*
X9842000Y-18732000D01*
X8763000Y-17653000D02*
X8763000Y-16825000D01*
X9842000Y-18732000D02*
X8763000Y-17653000D01*
D16*
X8763000Y-16825000D02*
X8890000Y-16698000D01*
D15*
X11049000Y-16698000D02*
X11049000Y-17780000D01*
X11842000Y-18573000D02*
X11842000Y-21209000D01*
X11049000Y-17780000D02*
X11842000Y-18573000D01*
D10*
G36*
X16324892Y-459654D02*
X16921623Y-858377D01*
X17320346Y-1455108D01*
X17466500Y-2189875D01*
X17466500Y-22185314D01*
X17269318Y-22951633D01*
X16807509Y-23566038D01*
X16145728Y-23956949D01*
X15344888Y-24070500D01*
X2198686Y-24070500D01*
X1432367Y-23873318D01*
X817962Y-23411509D01*
X427051Y-22749728D01*
X313500Y-21948888D01*
X313500Y-21552500D01*
X4684000Y-21552500D01*
X4684000Y-22169993D01*
X4768951Y-22375082D01*
X4925918Y-22532050D01*
X5131007Y-22617000D01*
X5498500Y-22617000D01*
X5638000Y-22477500D01*
X5638000Y-21413000D01*
X4823500Y-21413000D01*
X4684000Y-21552500D01*
X313500Y-21552500D01*
X313500Y-20248007D01*
X4684000Y-20248007D01*
X4684000Y-20865500D01*
X4823500Y-21005000D01*
X5638000Y-21005000D01*
X5638000Y-19940500D01*
X5498500Y-19801000D01*
X5131007Y-19801000D01*
X4925918Y-19885950D01*
X4768951Y-20042918D01*
X4684000Y-20248007D01*
X313500Y-20248007D01*
X313500Y-18157068D01*
X508670Y-18157068D01*
X797926Y-18857121D01*
X1333062Y-19393192D01*
X2032609Y-19683669D01*
X2790068Y-19684330D01*
X3490121Y-19395074D01*
X4026192Y-18859938D01*
X4316669Y-18160391D01*
X4317330Y-17402932D01*
X4028074Y-16702879D01*
X3673814Y-16348000D01*
X5771045Y-16348000D01*
X5771045Y-17048000D01*
X5792243Y-17160655D01*
X5858822Y-17264123D01*
X5960410Y-17333535D01*
X6081000Y-17357955D01*
X6227000Y-17357955D01*
X6227000Y-17653000D01*
X6265365Y-17845873D01*
X6374618Y-18009382D01*
X7338000Y-18972764D01*
X7338000Y-20206813D01*
X7202775Y-20297167D01*
X7006813Y-20590446D01*
X7000000Y-20624697D01*
X7000000Y-20248007D01*
X6915049Y-20042918D01*
X6758082Y-19885950D01*
X6552993Y-19801000D01*
X6185500Y-19801000D01*
X6046000Y-19940500D01*
X6046000Y-21005000D01*
X6066000Y-21005000D01*
X6066000Y-21413000D01*
X6046000Y-21413000D01*
X6046000Y-22477500D01*
X6185500Y-22617000D01*
X6552993Y-22617000D01*
X6758082Y-22532050D01*
X6915049Y-22375082D01*
X7000000Y-22169993D01*
X7000000Y-21793303D01*
X7006813Y-21827554D01*
X7202775Y-22120833D01*
X7496054Y-22316795D01*
X7842000Y-22385608D01*
X8187946Y-22316795D01*
X8481225Y-22120833D01*
X8677187Y-21827554D01*
X8746000Y-21481608D01*
X8746000Y-20936392D01*
X8677187Y-20590446D01*
X8481225Y-20297167D01*
X8346000Y-20206813D01*
X8346000Y-18764000D01*
X8339635Y-18732000D01*
X8307635Y-18571127D01*
X8198382Y-18407618D01*
X7235000Y-17444236D01*
X7235000Y-17357955D01*
X7381000Y-17357955D01*
X7493655Y-17336757D01*
X7597123Y-17270178D01*
X7666535Y-17168590D01*
X7690955Y-17048000D01*
X7690955Y-16348000D01*
X7930045Y-16348000D01*
X7930045Y-17048000D01*
X7951243Y-17160655D01*
X8017822Y-17264123D01*
X8119410Y-17333535D01*
X8240000Y-17357955D01*
X8259000Y-17357955D01*
X8259000Y-17653000D01*
X8297365Y-17845873D01*
X8406618Y-18009382D01*
X9338000Y-18940764D01*
X9338000Y-20206813D01*
X9202775Y-20297167D01*
X9006813Y-20590446D01*
X8938000Y-20936392D01*
X8938000Y-21481608D01*
X9006813Y-21827554D01*
X9202775Y-22120833D01*
X9496054Y-22316795D01*
X9842000Y-22385608D01*
X10187946Y-22316795D01*
X10481225Y-22120833D01*
X10677187Y-21827554D01*
X10746000Y-21481608D01*
X10746000Y-20936392D01*
X10677187Y-20590446D01*
X10481225Y-20297167D01*
X10346000Y-20206813D01*
X10346000Y-18732000D01*
X10307635Y-18539128D01*
X10198382Y-18375618D01*
X9267000Y-17444236D01*
X9267000Y-17357955D01*
X9540000Y-17357955D01*
X9652655Y-17336757D01*
X9756123Y-17270178D01*
X9825535Y-17168590D01*
X9849955Y-17048000D01*
X9849955Y-16348000D01*
X10089045Y-16348000D01*
X10089045Y-17048000D01*
X10110243Y-17160655D01*
X10176822Y-17264123D01*
X10278410Y-17333535D01*
X10399000Y-17357955D01*
X10545000Y-17357955D01*
X10545000Y-17780000D01*
X10583365Y-17972873D01*
X10692618Y-18136382D01*
X11338000Y-18781764D01*
X11338000Y-20206813D01*
X11202775Y-20297167D01*
X11006813Y-20590446D01*
X10938000Y-20936392D01*
X10938000Y-21481608D01*
X11006813Y-21827554D01*
X11202775Y-22120833D01*
X11496054Y-22316795D01*
X11842000Y-22385608D01*
X12187946Y-22316795D01*
X12481225Y-22120833D01*
X12677187Y-21827554D01*
X12746000Y-21481608D01*
X12746000Y-20936392D01*
X12677187Y-20590446D01*
X12481225Y-20297167D01*
X12346000Y-20206813D01*
X12346000Y-18573000D01*
X12307635Y-18380128D01*
X12307635Y-18380127D01*
X12198382Y-18216618D01*
X12138832Y-18157068D01*
X13335670Y-18157068D01*
X13624926Y-18857121D01*
X14160062Y-19393192D01*
X14859609Y-19683669D01*
X15617068Y-19684330D01*
X16317121Y-19395074D01*
X16853192Y-18859938D01*
X17143669Y-18160391D01*
X17144330Y-17402932D01*
X16855074Y-16702879D01*
X16319938Y-16166808D01*
X15620391Y-15876331D01*
X14862932Y-15875670D01*
X14162879Y-16164926D01*
X13626808Y-16700062D01*
X13336331Y-17399609D01*
X13335670Y-18157068D01*
X12138832Y-18157068D01*
X11553000Y-17571236D01*
X11553000Y-17357955D01*
X11699000Y-17357955D01*
X11811655Y-17336757D01*
X11915123Y-17270178D01*
X11984535Y-17168590D01*
X12008955Y-17048000D01*
X12008955Y-16348000D01*
X11987757Y-16235345D01*
X11921178Y-16131877D01*
X11819590Y-16062465D01*
X11699000Y-16038045D01*
X10399000Y-16038045D01*
X10286345Y-16059243D01*
X10182877Y-16125822D01*
X10113465Y-16227410D01*
X10089045Y-16348000D01*
X9849955Y-16348000D01*
X9828757Y-16235345D01*
X9762178Y-16131877D01*
X9660590Y-16062465D01*
X9540000Y-16038045D01*
X8240000Y-16038045D01*
X8127345Y-16059243D01*
X8023877Y-16125822D01*
X7954465Y-16227410D01*
X7930045Y-16348000D01*
X7690955Y-16348000D01*
X7669757Y-16235345D01*
X7603178Y-16131877D01*
X7501590Y-16062465D01*
X7381000Y-16038045D01*
X6081000Y-16038045D01*
X5968345Y-16059243D01*
X5864877Y-16125822D01*
X5795465Y-16227410D01*
X5771045Y-16348000D01*
X3673814Y-16348000D01*
X3492938Y-16166808D01*
X2793391Y-15876331D01*
X2035932Y-15875670D01*
X1335879Y-16164926D01*
X799808Y-16700062D01*
X509331Y-17399609D01*
X508670Y-18157068D01*
X313500Y-18157068D01*
X313500Y-14448000D01*
X5771045Y-14448000D01*
X5771045Y-15148000D01*
X5792243Y-15260655D01*
X5858822Y-15364123D01*
X5960410Y-15433535D01*
X6081000Y-15457955D01*
X7381000Y-15457955D01*
X7493655Y-15436757D01*
X7597123Y-15370178D01*
X7666535Y-15268590D01*
X7690955Y-15148000D01*
X7690955Y-14448000D01*
X7669757Y-14335345D01*
X7603178Y-14231877D01*
X7501590Y-14162465D01*
X7381000Y-14138045D01*
X7235000Y-14138045D01*
X7235000Y-12908764D01*
X9754382Y-10389382D01*
X9863635Y-10225872D01*
X9902001Y-10033000D01*
X9902000Y-10032995D01*
X9902000Y-8336764D01*
X10182049Y-8056715D01*
X10208837Y-8096806D01*
X10485866Y-8281910D01*
X10791126Y-8342630D01*
X10485866Y-8403350D01*
X10208837Y-8588454D01*
X10023733Y-8865483D01*
X9958733Y-9192260D01*
X10023733Y-9519037D01*
X10208837Y-9796066D01*
X10485866Y-9981170D01*
X10783760Y-10040425D01*
X10783760Y-10093476D01*
X8533618Y-12343618D01*
X8424365Y-12507127D01*
X8424365Y-12507128D01*
X8386000Y-12700000D01*
X8386000Y-14138045D01*
X8240000Y-14138045D01*
X8127345Y-14159243D01*
X8023877Y-14225822D01*
X7954465Y-14327410D01*
X7930045Y-14448000D01*
X7930045Y-15148000D01*
X7951243Y-15260655D01*
X8017822Y-15364123D01*
X8119410Y-15433535D01*
X8240000Y-15457955D01*
X9540000Y-15457955D01*
X9652655Y-15436757D01*
X9756123Y-15370178D01*
X9825535Y-15268590D01*
X9849955Y-15148000D01*
X9849955Y-14448000D01*
X9828757Y-14335345D01*
X9762178Y-14231877D01*
X9660590Y-14162465D01*
X9540000Y-14138045D01*
X9394000Y-14138045D01*
X9394000Y-12908764D01*
X11644142Y-10658622D01*
X11753395Y-10495112D01*
X11791760Y-10302240D01*
X11791760Y-10040425D01*
X12089654Y-9981170D01*
X12366683Y-9796066D01*
X12551787Y-9519037D01*
X12577000Y-9392283D01*
X12577000Y-10459236D01*
X10692618Y-12343618D01*
X10583365Y-12507127D01*
X10583365Y-12507128D01*
X10545000Y-12700000D01*
X10545000Y-14138045D01*
X10399000Y-14138045D01*
X10286345Y-14159243D01*
X10182877Y-14225822D01*
X10113465Y-14327410D01*
X10089045Y-14448000D01*
X10089045Y-15148000D01*
X10110243Y-15260655D01*
X10176822Y-15364123D01*
X10278410Y-15433535D01*
X10399000Y-15457955D01*
X11699000Y-15457955D01*
X11811655Y-15436757D01*
X11915123Y-15370178D01*
X11984535Y-15268590D01*
X12008955Y-15148000D01*
X12008955Y-14448000D01*
X11987757Y-14335345D01*
X11921178Y-14231877D01*
X11819590Y-14162465D01*
X11699000Y-14138045D01*
X11553000Y-14138045D01*
X11553000Y-12908764D01*
X13437382Y-11024382D01*
X13546635Y-10860873D01*
X13585000Y-10668000D01*
X13585000Y-6477005D01*
X13585001Y-6477000D01*
X13546635Y-6284128D01*
X13437382Y-6120618D01*
X12754122Y-5437358D01*
X12590613Y-5328105D01*
X12438832Y-5297914D01*
X12366683Y-5189934D01*
X12089654Y-5004830D01*
X11762877Y-4939830D01*
X10812643Y-4939830D01*
X10485866Y-5004830D01*
X10208837Y-5189934D01*
X10023733Y-5466963D01*
X9958733Y-5793740D01*
X10023733Y-6120517D01*
X10208837Y-6397546D01*
X10485866Y-6582650D01*
X10791126Y-6643370D01*
X10485866Y-6704090D01*
X10208837Y-6889194D01*
X10142149Y-6989000D01*
X10033005Y-6989000D01*
X10033000Y-6988999D01*
X9840128Y-7027365D01*
X9676618Y-7136618D01*
X9041618Y-7771618D01*
X8932365Y-7935127D01*
X8932365Y-7935128D01*
X8894000Y-8128000D01*
X8894000Y-9824236D01*
X6374618Y-12343618D01*
X6265365Y-12507127D01*
X6265365Y-12507128D01*
X6227000Y-12700000D01*
X6227000Y-14138045D01*
X6081000Y-14138045D01*
X5968345Y-14159243D01*
X5864877Y-14225822D01*
X5795465Y-14327410D01*
X5771045Y-14448000D01*
X313500Y-14448000D01*
X313500Y-9564100D01*
X4999013Y-9564100D01*
X5115000Y-9831421D01*
X5430210Y-10137768D01*
X5838660Y-10300170D01*
X6288240Y-10300170D01*
X6288240Y-9396260D01*
X6696240Y-9396260D01*
X6696240Y-10300170D01*
X7145820Y-10300170D01*
X7554270Y-10137768D01*
X7869480Y-9831421D01*
X7985467Y-9564100D01*
X7888499Y-9396260D01*
X6696240Y-9396260D01*
X6288240Y-9396260D01*
X5095981Y-9396260D01*
X4999013Y-9564100D01*
X313500Y-9564100D01*
X313500Y-7864840D01*
X4999013Y-7864840D01*
X5115000Y-8132161D01*
X5331558Y-8342630D01*
X5115000Y-8553099D01*
X4999013Y-8820420D01*
X5095981Y-8988260D01*
X6288240Y-8988260D01*
X6288240Y-7697000D01*
X6696240Y-7697000D01*
X6696240Y-8988260D01*
X7888499Y-8988260D01*
X7985467Y-8820420D01*
X7869480Y-8553099D01*
X7652922Y-8342630D01*
X7869480Y-8132161D01*
X7985467Y-7864840D01*
X7888499Y-7697000D01*
X6696240Y-7697000D01*
X6288240Y-7697000D01*
X5095981Y-7697000D01*
X4999013Y-7864840D01*
X313500Y-7864840D01*
X313500Y-6165580D01*
X4999013Y-6165580D01*
X5115000Y-6432901D01*
X5331558Y-6643370D01*
X5115000Y-6853839D01*
X4999013Y-7121160D01*
X5095981Y-7289000D01*
X6288240Y-7289000D01*
X6288240Y-5997740D01*
X6696240Y-5997740D01*
X6696240Y-7289000D01*
X7888499Y-7289000D01*
X7985467Y-7121160D01*
X7869480Y-6853839D01*
X7652922Y-6643370D01*
X7869480Y-6432901D01*
X7985467Y-6165580D01*
X7888499Y-5997740D01*
X6696240Y-5997740D01*
X6288240Y-5997740D01*
X5095981Y-5997740D01*
X4999013Y-6165580D01*
X313500Y-6165580D01*
X313500Y-5421900D01*
X4999013Y-5421900D01*
X5095981Y-5589740D01*
X6288240Y-5589740D01*
X6288240Y-4685830D01*
X6696240Y-4685830D01*
X6696240Y-5589740D01*
X7888499Y-5589740D01*
X7985467Y-5421900D01*
X7869480Y-5154579D01*
X7554270Y-4848232D01*
X7145820Y-4685830D01*
X6696240Y-4685830D01*
X6288240Y-4685830D01*
X5838660Y-4685830D01*
X5430210Y-4848232D01*
X5115000Y-5154579D01*
X4999013Y-5421900D01*
X313500Y-5421900D01*
X313500Y-2189876D01*
X459654Y-1455108D01*
X858377Y-858377D01*
X1455108Y-459654D01*
X2189875Y-313500D01*
X15590124Y-313500D01*
X16324892Y-459654D01*
X16324892Y-459654D01*
G37*
X16324892Y-459654D02*
X16921623Y-858377D01*
X17320346Y-1455108D01*
X17466500Y-2189875D01*
X17466500Y-22185314D01*
X17269318Y-22951633D01*
X16807509Y-23566038D01*
X16145728Y-23956949D01*
X15344888Y-24070500D01*
X2198686Y-24070500D01*
X1432367Y-23873318D01*
X817962Y-23411509D01*
X427051Y-22749728D01*
X313500Y-21948888D01*
X313500Y-21552500D01*
X4684000Y-21552500D01*
X4684000Y-22169993D01*
X4768951Y-22375082D01*
X4925918Y-22532050D01*
X5131007Y-22617000D01*
X5498500Y-22617000D01*
X5638000Y-22477500D01*
X5638000Y-21413000D01*
X4823500Y-21413000D01*
X4684000Y-21552500D01*
X313500Y-21552500D01*
X313500Y-20248007D01*
X4684000Y-20248007D01*
X4684000Y-20865500D01*
X4823500Y-21005000D01*
X5638000Y-21005000D01*
X5638000Y-19940500D01*
X5498500Y-19801000D01*
X5131007Y-19801000D01*
X4925918Y-19885950D01*
X4768951Y-20042918D01*
X4684000Y-20248007D01*
X313500Y-20248007D01*
X313500Y-18157068D01*
X508670Y-18157068D01*
X797926Y-18857121D01*
X1333062Y-19393192D01*
X2032609Y-19683669D01*
X2790068Y-19684330D01*
X3490121Y-19395074D01*
X4026192Y-18859938D01*
X4316669Y-18160391D01*
X4317330Y-17402932D01*
X4028074Y-16702879D01*
X3673814Y-16348000D01*
X5771045Y-16348000D01*
X5771045Y-17048000D01*
X5792243Y-17160655D01*
X5858822Y-17264123D01*
X5960410Y-17333535D01*
X6081000Y-17357955D01*
X6227000Y-17357955D01*
X6227000Y-17653000D01*
X6265365Y-17845873D01*
X6374618Y-18009382D01*
X7338000Y-18972764D01*
X7338000Y-20206813D01*
X7202775Y-20297167D01*
X7006813Y-20590446D01*
X7000000Y-20624697D01*
X7000000Y-20248007D01*
X6915049Y-20042918D01*
X6758082Y-19885950D01*
X6552993Y-19801000D01*
X6185500Y-19801000D01*
X6046000Y-19940500D01*
X6046000Y-21005000D01*
X6066000Y-21005000D01*
X6066000Y-21413000D01*
X6046000Y-21413000D01*
X6046000Y-22477500D01*
X6185500Y-22617000D01*
X6552993Y-22617000D01*
X6758082Y-22532050D01*
X6915049Y-22375082D01*
X7000000Y-22169993D01*
X7000000Y-21793303D01*
X7006813Y-21827554D01*
X7202775Y-22120833D01*
X7496054Y-22316795D01*
X7842000Y-22385608D01*
X8187946Y-22316795D01*
X8481225Y-22120833D01*
X8677187Y-21827554D01*
X8746000Y-21481608D01*
X8746000Y-20936392D01*
X8677187Y-20590446D01*
X8481225Y-20297167D01*
X8346000Y-20206813D01*
X8346000Y-18764000D01*
X8339635Y-18732000D01*
X8307635Y-18571127D01*
X8198382Y-18407618D01*
X7235000Y-17444236D01*
X7235000Y-17357955D01*
X7381000Y-17357955D01*
X7493655Y-17336757D01*
X7597123Y-17270178D01*
X7666535Y-17168590D01*
X7690955Y-17048000D01*
X7690955Y-16348000D01*
X7930045Y-16348000D01*
X7930045Y-17048000D01*
X7951243Y-17160655D01*
X8017822Y-17264123D01*
X8119410Y-17333535D01*
X8240000Y-17357955D01*
X8259000Y-17357955D01*
X8259000Y-17653000D01*
X8297365Y-17845873D01*
X8406618Y-18009382D01*
X9338000Y-18940764D01*
X9338000Y-20206813D01*
X9202775Y-20297167D01*
X9006813Y-20590446D01*
X8938000Y-20936392D01*
X8938000Y-21481608D01*
X9006813Y-21827554D01*
X9202775Y-22120833D01*
X9496054Y-22316795D01*
X9842000Y-22385608D01*
X10187946Y-22316795D01*
X10481225Y-22120833D01*
X10677187Y-21827554D01*
X10746000Y-21481608D01*
X10746000Y-20936392D01*
X10677187Y-20590446D01*
X10481225Y-20297167D01*
X10346000Y-20206813D01*
X10346000Y-18732000D01*
X10307635Y-18539128D01*
X10198382Y-18375618D01*
X9267000Y-17444236D01*
X9267000Y-17357955D01*
X9540000Y-17357955D01*
X9652655Y-17336757D01*
X9756123Y-17270178D01*
X9825535Y-17168590D01*
X9849955Y-17048000D01*
X9849955Y-16348000D01*
X10089045Y-16348000D01*
X10089045Y-17048000D01*
X10110243Y-17160655D01*
X10176822Y-17264123D01*
X10278410Y-17333535D01*
X10399000Y-17357955D01*
X10545000Y-17357955D01*
X10545000Y-17780000D01*
X10583365Y-17972873D01*
X10692618Y-18136382D01*
X11338000Y-18781764D01*
X11338000Y-20206813D01*
X11202775Y-20297167D01*
X11006813Y-20590446D01*
X10938000Y-20936392D01*
X10938000Y-21481608D01*
X11006813Y-21827554D01*
X11202775Y-22120833D01*
X11496054Y-22316795D01*
X11842000Y-22385608D01*
X12187946Y-22316795D01*
X12481225Y-22120833D01*
X12677187Y-21827554D01*
X12746000Y-21481608D01*
X12746000Y-20936392D01*
X12677187Y-20590446D01*
X12481225Y-20297167D01*
X12346000Y-20206813D01*
X12346000Y-18573000D01*
X12307635Y-18380128D01*
X12307635Y-18380127D01*
X12198382Y-18216618D01*
X12138832Y-18157068D01*
X13335670Y-18157068D01*
X13624926Y-18857121D01*
X14160062Y-19393192D01*
X14859609Y-19683669D01*
X15617068Y-19684330D01*
X16317121Y-19395074D01*
X16853192Y-18859938D01*
X17143669Y-18160391D01*
X17144330Y-17402932D01*
X16855074Y-16702879D01*
X16319938Y-16166808D01*
X15620391Y-15876331D01*
X14862932Y-15875670D01*
X14162879Y-16164926D01*
X13626808Y-16700062D01*
X13336331Y-17399609D01*
X13335670Y-18157068D01*
X12138832Y-18157068D01*
X11553000Y-17571236D01*
X11553000Y-17357955D01*
X11699000Y-17357955D01*
X11811655Y-17336757D01*
X11915123Y-17270178D01*
X11984535Y-17168590D01*
X12008955Y-17048000D01*
X12008955Y-16348000D01*
X11987757Y-16235345D01*
X11921178Y-16131877D01*
X11819590Y-16062465D01*
X11699000Y-16038045D01*
X10399000Y-16038045D01*
X10286345Y-16059243D01*
X10182877Y-16125822D01*
X10113465Y-16227410D01*
X10089045Y-16348000D01*
X9849955Y-16348000D01*
X9828757Y-16235345D01*
X9762178Y-16131877D01*
X9660590Y-16062465D01*
X9540000Y-16038045D01*
X8240000Y-16038045D01*
X8127345Y-16059243D01*
X8023877Y-16125822D01*
X7954465Y-16227410D01*
X7930045Y-16348000D01*
X7690955Y-16348000D01*
X7669757Y-16235345D01*
X7603178Y-16131877D01*
X7501590Y-16062465D01*
X7381000Y-16038045D01*
X6081000Y-16038045D01*
X5968345Y-16059243D01*
X5864877Y-16125822D01*
X5795465Y-16227410D01*
X5771045Y-16348000D01*
X3673814Y-16348000D01*
X3492938Y-16166808D01*
X2793391Y-15876331D01*
X2035932Y-15875670D01*
X1335879Y-16164926D01*
X799808Y-16700062D01*
X509331Y-17399609D01*
X508670Y-18157068D01*
X313500Y-18157068D01*
X313500Y-14448000D01*
X5771045Y-14448000D01*
X5771045Y-15148000D01*
X5792243Y-15260655D01*
X5858822Y-15364123D01*
X5960410Y-15433535D01*
X6081000Y-15457955D01*
X7381000Y-15457955D01*
X7493655Y-15436757D01*
X7597123Y-15370178D01*
X7666535Y-15268590D01*
X7690955Y-15148000D01*
X7690955Y-14448000D01*
X7669757Y-14335345D01*
X7603178Y-14231877D01*
X7501590Y-14162465D01*
X7381000Y-14138045D01*
X7235000Y-14138045D01*
X7235000Y-12908764D01*
X9754382Y-10389382D01*
X9863635Y-10225872D01*
X9902001Y-10033000D01*
X9902000Y-10032995D01*
X9902000Y-8336764D01*
X10182049Y-8056715D01*
X10208837Y-8096806D01*
X10485866Y-8281910D01*
X10791126Y-8342630D01*
X10485866Y-8403350D01*
X10208837Y-8588454D01*
X10023733Y-8865483D01*
X9958733Y-9192260D01*
X10023733Y-9519037D01*
X10208837Y-9796066D01*
X10485866Y-9981170D01*
X10783760Y-10040425D01*
X10783760Y-10093476D01*
X8533618Y-12343618D01*
X8424365Y-12507127D01*
X8424365Y-12507128D01*
X8386000Y-12700000D01*
X8386000Y-14138045D01*
X8240000Y-14138045D01*
X8127345Y-14159243D01*
X8023877Y-14225822D01*
X7954465Y-14327410D01*
X7930045Y-14448000D01*
X7930045Y-15148000D01*
X7951243Y-15260655D01*
X8017822Y-15364123D01*
X8119410Y-15433535D01*
X8240000Y-15457955D01*
X9540000Y-15457955D01*
X9652655Y-15436757D01*
X9756123Y-15370178D01*
X9825535Y-15268590D01*
X9849955Y-15148000D01*
X9849955Y-14448000D01*
X9828757Y-14335345D01*
X9762178Y-14231877D01*
X9660590Y-14162465D01*
X9540000Y-14138045D01*
X9394000Y-14138045D01*
X9394000Y-12908764D01*
X11644142Y-10658622D01*
X11753395Y-10495112D01*
X11791760Y-10302240D01*
X11791760Y-10040425D01*
X12089654Y-9981170D01*
X12366683Y-9796066D01*
X12551787Y-9519037D01*
X12577000Y-9392283D01*
X12577000Y-10459236D01*
X10692618Y-12343618D01*
X10583365Y-12507127D01*
X10583365Y-12507128D01*
X10545000Y-12700000D01*
X10545000Y-14138045D01*
X10399000Y-14138045D01*
X10286345Y-14159243D01*
X10182877Y-14225822D01*
X10113465Y-14327410D01*
X10089045Y-14448000D01*
X10089045Y-15148000D01*
X10110243Y-15260655D01*
X10176822Y-15364123D01*
X10278410Y-15433535D01*
X10399000Y-15457955D01*
X11699000Y-15457955D01*
X11811655Y-15436757D01*
X11915123Y-15370178D01*
X11984535Y-15268590D01*
X12008955Y-15148000D01*
X12008955Y-14448000D01*
X11987757Y-14335345D01*
X11921178Y-14231877D01*
X11819590Y-14162465D01*
X11699000Y-14138045D01*
X11553000Y-14138045D01*
X11553000Y-12908764D01*
X13437382Y-11024382D01*
X13546635Y-10860873D01*
X13585000Y-10668000D01*
X13585000Y-6477005D01*
X13585001Y-6477000D01*
X13546635Y-6284128D01*
X13437382Y-6120618D01*
X12754122Y-5437358D01*
X12590613Y-5328105D01*
X12438832Y-5297914D01*
X12366683Y-5189934D01*
X12089654Y-5004830D01*
X11762877Y-4939830D01*
X10812643Y-4939830D01*
X10485866Y-5004830D01*
X10208837Y-5189934D01*
X10023733Y-5466963D01*
X9958733Y-5793740D01*
X10023733Y-6120517D01*
X10208837Y-6397546D01*
X10485866Y-6582650D01*
X10791126Y-6643370D01*
X10485866Y-6704090D01*
X10208837Y-6889194D01*
X10142149Y-6989000D01*
X10033005Y-6989000D01*
X10033000Y-6988999D01*
X9840128Y-7027365D01*
X9676618Y-7136618D01*
X9041618Y-7771618D01*
X8932365Y-7935127D01*
X8932365Y-7935128D01*
X8894000Y-8128000D01*
X8894000Y-9824236D01*
X6374618Y-12343618D01*
X6265365Y-12507127D01*
X6265365Y-12507128D01*
X6227000Y-12700000D01*
X6227000Y-14138045D01*
X6081000Y-14138045D01*
X5968345Y-14159243D01*
X5864877Y-14225822D01*
X5795465Y-14327410D01*
X5771045Y-14448000D01*
X313500Y-14448000D01*
X313500Y-9564100D01*
X4999013Y-9564100D01*
X5115000Y-9831421D01*
X5430210Y-10137768D01*
X5838660Y-10300170D01*
X6288240Y-10300170D01*
X6288240Y-9396260D01*
X6696240Y-9396260D01*
X6696240Y-10300170D01*
X7145820Y-10300170D01*
X7554270Y-10137768D01*
X7869480Y-9831421D01*
X7985467Y-9564100D01*
X7888499Y-9396260D01*
X6696240Y-9396260D01*
X6288240Y-9396260D01*
X5095981Y-9396260D01*
X4999013Y-9564100D01*
X313500Y-9564100D01*
X313500Y-7864840D01*
X4999013Y-7864840D01*
X5115000Y-8132161D01*
X5331558Y-8342630D01*
X5115000Y-8553099D01*
X4999013Y-8820420D01*
X5095981Y-8988260D01*
X6288240Y-8988260D01*
X6288240Y-7697000D01*
X6696240Y-7697000D01*
X6696240Y-8988260D01*
X7888499Y-8988260D01*
X7985467Y-8820420D01*
X7869480Y-8553099D01*
X7652922Y-8342630D01*
X7869480Y-8132161D01*
X7985467Y-7864840D01*
X7888499Y-7697000D01*
X6696240Y-7697000D01*
X6288240Y-7697000D01*
X5095981Y-7697000D01*
X4999013Y-7864840D01*
X313500Y-7864840D01*
X313500Y-6165580D01*
X4999013Y-6165580D01*
X5115000Y-6432901D01*
X5331558Y-6643370D01*
X5115000Y-6853839D01*
X4999013Y-7121160D01*
X5095981Y-7289000D01*
X6288240Y-7289000D01*
X6288240Y-5997740D01*
X6696240Y-5997740D01*
X6696240Y-7289000D01*
X7888499Y-7289000D01*
X7985467Y-7121160D01*
X7869480Y-6853839D01*
X7652922Y-6643370D01*
X7869480Y-6432901D01*
X7985467Y-6165580D01*
X7888499Y-5997740D01*
X6696240Y-5997740D01*
X6288240Y-5997740D01*
X5095981Y-5997740D01*
X4999013Y-6165580D01*
X313500Y-6165580D01*
X313500Y-5421900D01*
X4999013Y-5421900D01*
X5095981Y-5589740D01*
X6288240Y-5589740D01*
X6288240Y-4685830D01*
X6696240Y-4685830D01*
X6696240Y-5589740D01*
X7888499Y-5589740D01*
X7985467Y-5421900D01*
X7869480Y-5154579D01*
X7554270Y-4848232D01*
X7145820Y-4685830D01*
X6696240Y-4685830D01*
X6288240Y-4685830D01*
X5838660Y-4685830D01*
X5430210Y-4848232D01*
X5115000Y-5154579D01*
X4999013Y-5421900D01*
X313500Y-5421900D01*
X313500Y-2189876D01*
X459654Y-1455108D01*
X858377Y-858377D01*
X1455108Y-459654D01*
X2189875Y-313500D01*
X15590124Y-313500D01*
X16324892Y-459654D01*
M02*
